<svg xmlns="http://www.w3.org/2000/svg" viewBox="0 0 1500 500"><rect width="1500" height="500" fill="#FBF9F3"/><g transform="translate(452.60 110.00) scale(0.35156)"><path d="M 433.41 375.67 A 214 214 0 0 1 209.68 464.93" fill="none" stroke="#7BD1E6" stroke-width="42" stroke-linecap="butt"/><circle cx="433.41" cy="375.67" r="21.00" fill="#7BD1E6"/><path d="M 188.10 458.94 A 214 214 0 0 1 42.29 267.20" fill="none" stroke="#C92C6B" stroke-width="42" stroke-linecap="butt"/><path d="M 42.29 244.80 A 214 214 0 0 1 188.10 53.06" fill="none" stroke="#FF9A56" stroke-width="42" stroke-linecap="butt"/><path d="M 209.68 47.07 A 214 214 0 0 1 433.41 136.33" fill="none" stroke="#FFD36C" stroke-width="42" stroke-linecap="butt"/><circle cx="433.41" cy="136.33" r="21.00" fill="#FFD36C"/><rect x="374" y="224" width="118" height="64" rx="26" fill="#EFEBDF" stroke="#33394E" stroke-width="16"/><circle cx="256" cy="256" r="150" fill="#EFEBDF" stroke="#33394E" stroke-width="16"/><circle cx="256" cy="256" r="104" fill="#C2B1A6"/></g><g transform="translate(686.60 204.72)"><g><path d="M80.4912109375 -80.8369140625Q82.27734375 -84.8125 83.0263671875 -84.8125H83.314453125Q84.1787109375 -84.8125 86.8291015625 -82.96875Q89.4794921875 -81.125 89.4794921875 -79.51171875Q89.4794921875 -77.2646484375 74.7294921875 -44.7109375Q59.9794921875 -12.1572265625 57.81884765625 -8.21044921875Q55.658203125 -4.263671875 54.8515625 -2.9384765625Q54.044921875 -1.61328125 52.662109375 0.0Q50.1845703125 3.0537109375 46.4970703125 3.0537109375Q44.9990234375 3.0537109375 43.8466796875 3.42822265625Q42.6943359375 3.802734375 42.4638671875 3.802734375Q40.6201171875 3.802734375 40.6201171875 2.9384765625Q40.6201171875 2.765625 41.10986328125 1.52685546875Q41.599609375 0.2880859375 54.275390625 -26.4462890625Q40.7353515625 -26.96484375 30.4794921875 -27.2529296875Q20.626953125 -14.865234375 12.6181640625 -1.3251953125Q11.638671875 0.576171875 10.7744140625 1.35400390625Q9.91015625 2.1318359375 8.412109375 2.1318359375Q6.9140625 2.1318359375 5.185546875 0.60498046875Q3.45703125 -0.921875 3.45703125 -2.9384765625Q3.45703125 -8.7001953125 18.322265625 -27.5986328125Q11.3505859375 -27.5986328125 9.47802734375 -27.2529296875Q7.60546875 -26.9072265625 7.0869140625 -26.9072265625Q5.53125 -26.9072265625 5.53125 -29.52880859375Q5.53125 -32.150390625 8.61376953125 -34.13818359375Q11.6962890625 -36.1259765625 16.8818359375 -36.1259765625Q17.28515625 -36.1259765625 18.322265625 -36.18359375Q21.89453125 -36.3564453125 25.6396484375 -36.4716796875Q38.2001953125 -51.2216796875 51.9130859375 -63.83984375Q65.6259765625 -76.4580078125 75.6513671875 -81.5283203125Q77.2646484375 -82.3349609375 78.21533203125 -82.30615234375Q79.166015625 -82.27734375 80.4912109375 -80.8369140625ZM76.4580078125 -72.712890625Q55.427734375 -56.7529296875 38.02734375 -36.4716796875Q48.2255859375 -36.2412109375 58.654296875 -35.607421875Q69.140625 -57.6748046875 76.4580078125 -72.712890625Z M104.1142578125 -40.5625Q94.0888671875 -27.771484375 84.8701171875 -17.5732421875Q84.8125 -16.8818359375 84.38037109375 -15.00927734375Q83.9482421875 -13.13671875 83.9482421875 -11.2353515625Q83.9482421875 -9.333984375 85.70556640625 -7.80712890625Q87.462890625 -6.2802734375 90.0556640625 -6.2802734375Q92.6484375 -6.2802734375 95.61572265625 -8.1240234375Q98.5830078125 -9.9677734375 100.7724609375 -12.21484375Q106.5341796875 -18.1494140625 107.9169921875 -18.1494140625Q109.2998046875 -18.1494140625 109.2998046875 -13.943359375V-12.791015625Q109.2998046875 -10.5439453125 108.4931640625 -9.5068359375Q103.6533203125 -3.572265625 97.603515625 -0.66259765625Q91.5537109375 2.2470703125 86.1376953125 2.2470703125Q80.7216796875 2.2470703125 77.8984375 -1.06591796875Q75.0751953125 -4.37890625 75.0751953125 -10.140625Q75.0751953125 -21.3759765625 81.09619140625 -36.55810546875Q87.1171875 -51.740234375 94.6650390625 -62.3994140625Q111.662109375 -86.4833984375 120.650390625 -86.4833984375Q123.416015625 -86.4833984375 125.51904296875 -84.84130859375Q127.6220703125 -83.19921875 127.6220703125 -79.97265625Q127.6220703125 -76.74609375 124.0498046875 -69.86083984375Q120.4775390625 -62.9755859375 115.46484375 -55.80224609375Q110.4521484375 -48.62890625 104.1142578125 -40.5625ZM118.0576171875 -76.9189453125Q118.0576171875 -77.783203125 117.4814453125 -77.783203125Q115.46484375 -77.783203125 106.8798828125 -66.259765625Q98.294921875 -54.736328125 94.46337890625 -47.8798828125Q90.6318359375 -41.0234375 87.232421875 -30.65234375Q94.03125 -38.71875 106.04443359375 -55.80224609375Q118.0576171875 -72.8857421875 118.0576171875 -76.9189453125Z M134.5361328125 -40.5625Q124.5107421875 -27.771484375 115.2919921875 -17.5732421875Q115.234375 -16.8818359375 114.80224609375 -15.00927734375Q114.3701171875 -13.13671875 114.3701171875 -11.2353515625Q114.3701171875 -9.333984375 116.12744140625 -7.80712890625Q117.884765625 -6.2802734375 120.4775390625 -6.2802734375Q123.0703125 -6.2802734375 126.03759765625 -8.1240234375Q129.0048828125 -9.9677734375 131.1943359375 -12.21484375Q136.9560546875 -18.1494140625 138.3388671875 -18.1494140625Q139.7216796875 -18.1494140625 139.7216796875 -13.943359375V-12.791015625Q139.7216796875 -10.5439453125 138.9150390625 -9.5068359375Q134.0751953125 -3.572265625 128.025390625 -0.66259765625Q121.9755859375 2.2470703125 116.5595703125 2.2470703125Q111.1435546875 2.2470703125 108.3203125 -1.06591796875Q105.4970703125 -4.37890625 105.4970703125 -10.140625Q105.4970703125 -21.3759765625 111.51806640625 -36.55810546875Q117.5390625 -51.740234375 125.0869140625 -62.3994140625Q142.083984375 -86.4833984375 151.072265625 -86.4833984375Q153.837890625 -86.4833984375 155.94091796875 -84.84130859375Q158.0439453125 -83.19921875 158.0439453125 -79.97265625Q158.0439453125 -76.74609375 154.4716796875 -69.86083984375Q150.8994140625 -62.9755859375 145.88671875 -55.80224609375Q140.8740234375 -48.62890625 134.5361328125 -40.5625ZM148.4794921875 -76.9189453125Q148.4794921875 -77.783203125 147.9033203125 -77.783203125Q145.88671875 -77.783203125 137.3017578125 -66.259765625Q128.716796875 -54.736328125 124.88525390625 -47.8798828125Q121.0537109375 -41.0234375 117.654296875 -30.65234375Q124.453125 -38.71875 136.46630859375 -55.80224609375Q148.4794921875 -72.8857421875 148.4794921875 -76.9189453125Z M148.4794921875 -39.064453125Q157.87109375 -46.6123046875 164.9580078125 -46.6123046875Q168.126953125 -46.6123046875 169.740234375 -45.056640625Q170.31640625 -44.5380859375 170.31640625 -44.134765625V-43.7890625Q171.123046875 -43.904296875 172.8515625 -43.904296875Q174.580078125 -43.904296875 176.39501953125 -42.3486328125Q178.2099609375 -40.79296875 178.2099609375 -37.59521484375Q178.2099609375 -34.3974609375 175.962890625 -29.29833984375Q173.7158203125 -24.19921875 169.7978515625 -18.92724609375Q165.8798828125 -13.6552734375 161.18408203125 -9.01708984375Q156.48828125 -4.37890625 151.04345703125 -1.41162109375Q145.5986328125 1.5556640625 141.162109375 1.5556640625Q136.7255859375 1.5556640625 134.04638671875 -1.23876953125Q131.3671875 -4.033203125 131.3671875 -9.01708984375Q131.3671875 -14.0009765625 133.81591796875 -20.05078125Q136.2646484375 -26.1005859375 140.125 -30.73876953125Q143.9853515625 -35.376953125 148.4794921875 -39.064453125ZM167.0322265625 -36.2412109375H166.62890625Q164.6123046875 -36.2412109375 164.6123046875 -39.1796875Q160.40625 -37.796875 155.796875 -34.33984375Q151.1875 -30.8828125 147.5576171875 -26.158203125Q140.1826171875 -16.708984375 140.0673828125 -10.1982421875Q140.0673828125 -6.9716796875 142.4296875 -6.9716796875Q144.7919921875 -6.9716796875 149.458984375 -10.0830078125Q154.1259765625 -13.1943359375 158.70654296875 -18.9560546875Q163.287109375 -24.7177734375 165.56298828125 -28.95263671875Q167.8388671875 -33.1875 167.8388671875 -34.71435546875Q167.8388671875 -36.2412109375 167.0322265625 -36.2412109375Z M207.0185546875 -8.873046875Q207.0185546875 -6.337890625 210.4755859375 -6.337890625Q212.3193359375 -6.337890625 215.11376953125 -8.181640625Q217.908203125 -10.025390625 220.1552734375 -12.21484375Q226.1474609375 -18.1494140625 226.9541015625 -18.1494140625Q228.4521484375 -18.1494140625 228.4521484375 -13.828125Q228.4521484375 -9.5068359375 225.744140625 -7.8935546875Q217.5048828125 -0.4609375 213.0107421875 1.15234375Q210.4755859375 2.0166015625 207.421875 1.958984375Q204.3681640625 1.9013671875 201.3720703125 -0.69140625Q198.3759765625 -3.2841796875 198.3759765625 -7.00048828125Q198.3759765625 -10.716796875 200.3349609375 -15.44140625Q202.2939453125 -20.166015625 204.33935546875 -23.53662109375Q206.384765625 -26.9072265625 209.380859375 -31.37255859375Q212.376953125 -35.837890625 212.5498046875 -36.9326171875L212.4345703125 -37.0478515625Q210.533203125 -36.875 203.01416015625 -29.5576171875Q195.4951171875 -22.240234375 190.59765625 -16.82421875Q185.7001953125 -11.408203125 178.9013671875 -2.3623046875Q177.0 0.115234375 175.7900390625 0.115234375Q174.580078125 0.115234375 172.53466796875 -0.66259765625Q170.4892578125 -1.4404296875 170.0283203125 -1.7861328125Q169.5673828125 -2.1318359375 169.5673828125 -2.8232421875Q169.5673828125 -3.5146484375 169.970703125 -4.52294921875Q170.3740234375 -5.53125 170.74853515625 -6.19384765625Q171.123046875 -6.8564453125 171.9873046875 -8.2392578125Q172.8515625 -9.6220703125 175.41552734375 -14.08740234375Q177.9794921875 -18.552734375 183.2802734375 -27.42578125Q188.5810546875 -36.298828125 189.6181640625 -38.142578125Q191.8076171875 -41.9453125 193.1904296875 -43.673828125Q195.783203125 -46.9580078125 201.9482421875 -46.9580078125Q203.3310546875 -46.9580078125 203.3310546875 -45.2294921875Q203.3310546875 -42.521484375 198.318359375 -35.03125L195.8984375 -31.4013671875Q205.8662109375 -42.4638671875 212.72265625 -45.40234375Q216.064453125 -46.8427734375 218.74365234375 -46.8427734375Q221.4228515625 -46.8427734375 223.00732421875 -45.40234375Q224.591796875 -43.9619140625 224.591796875 -42.20458984375Q224.591796875 -40.447265625 223.3818359375 -37.99853515625Q222.171875 -35.5498046875 220.93310546875 -33.61962890625Q219.6943359375 -31.689453125 217.677734375 -28.7509765625Q215.6611328125 -25.8125 215.48828125 -25.55322265625Q215.3154296875 -25.2939453125 214.59521484375 -24.17041015625Q213.875 -23.046875 213.529296875 -22.5283203125Q213.18359375 -22.009765625 212.376953125 -20.71337890625Q211.5703125 -19.4169921875 211.08056640625 -18.552734375Q210.5908203125 -17.6884765625 209.87060546875 -16.4208984375Q209.150390625 -15.1533203125 208.71826171875 -14.2314453125Q208.2861328125 -13.3095703125 207.8251953125 -12.21484375Q207.0185546875 -10.1982421875 207.0185546875 -8.873046875Z M229.3740234375 -11.5234375 229.31640625 -10.6015625Q229.31640625 -9.1611328125 230.4111328125 -8.1240234375Q231.505859375 -7.0869140625 232.427734375 -7.0869140625Q239.341796875 -7.0869140625 244.67138671875 -9.1611328125Q250.0009765625 -11.2353515625 250.0009765625 -13.3095703125Q250.0009765625 -14.2890625 248.07080078125 -15.00927734375Q246.140625 -15.7294921875 241.56005859375 -16.79541015625Q236.9794921875 -17.861328125 234.9052734375 -18.46630859375Q232.8310546875 -19.0712890625 231.62109375 -19.58984375Q230.4111328125 -20.1083984375 229.1435546875 -21.0302734375Q226.435546875 -22.931640625 226.435546875 -26.70556640625Q226.435546875 -30.4794921875 229.22998046875 -34.19580078125Q232.0244140625 -37.912109375 236.23046875 -40.5625Q240.4365234375 -43.212890625 245.2763671875 -45.2294921875Q254.8408203125 -49.205078125 261.3515625 -49.205078125Q267.7470703125 -49.205078125 269.2451171875 -46.439453125Q269.7060546875 -45.4599609375 269.7060546875 -44.25V-43.8466796875Q269.7060546875 -40.79296875 268.40966796875 -39.064453125Q267.11328125 -37.3359375 264.31884765625 -35.953125Q261.5244140625 -34.5703125 259.88232421875 -34.5703125Q258.240234375 -34.5703125 257.80810546875 -34.80078125Q257.3759765625 -35.03125 257.087890625 -35.40576171875Q256.7998046875 -35.7802734375 256.36767578125 -35.953125Q255.935546875 -36.1259765625 255.935546875 -36.8173828125Q255.935546875 -37.5087890625 256.51171875 -38.22900390625Q257.087890625 -38.94921875 257.318359375 -39.755859375Q253.515625 -39.5830078125 249.3671875 -37.99853515625Q245.21875 -36.4140625 242.25146484375 -34.455078125Q239.2841796875 -32.49609375 237.3251953125 -30.7099609375Q235.3662109375 -28.923828125 235.3662109375 -28.08837890625Q235.3662109375 -27.2529296875 238.0166015625 -26.734375Q249.943359375 -24.3720703125 253.6884765625 -22.6435546875Q257.43359375 -20.9150390625 258.8740234375 -18.7255859375Q260.314453125 -16.5361328125 260.314453125 -14.75Q260.314453125 -11.0625 257.3759765625 -7.7783203125Q254.4375 -4.494140625 250.1162109375 -2.419921875Q240.83984375 2.1318359375 233.95458984375 2.1318359375Q227.0693359375 2.1318359375 224.44775390625 0.02880859375Q221.826171875 -2.07421875 221.826171875 -4.955078125Q221.826171875 -7.8359375 223.29541015625 -10.28466796875Q224.7646484375 -12.7333984375 227.0693359375 -12.7333984375Q229.3740234375 -12.7333984375 229.3740234375 -11.5234375Z" fill="#33394E"/><g transform="translate(288.81 -28.91) skewX(-12)"><rect x="-17.70" y="-6.19" width="35.40" height="12.39" rx="6.19" fill="#C92C6B"/></g><path d="M21.0302734375 19.12890625Q20.7421875 19.4169921875 19.27294921875 22.03857421875Q17.8037109375 24.66015625 16.1328125 27.33935546875Q14.4619140625 30.0185546875 12.01318359375 32.4384765625Q9.564453125 34.8583984375 7.92236328125 35.06005859375Q6.2802734375 35.26171875 5.8193359375 35.26171875Q0.5185546875 35.26171875 0.5185546875 29.9033203125Q0.5185546875 23.623046875 7.029296875 15.2109375Q9.5068359375 12.0419921875 13.251953125 8.38330078125Q16.9970703125 4.724609375 17.3427734375 4.23486328125Q17.6884765625 3.7451171875 25.9853515625 -11.9267578125Q20.4541015625 -5.876953125 15.7294921875 -2.10302734375Q11.0048828125 1.6708984375 6.6259765625 2.1318359375H6.22265625Q3.9755859375 2.1318359375 1.7861328125 0.66259765625Q-0.4033203125 -0.806640625 -0.4033203125 -4.494140625Q-0.4033203125 -9.9677734375 2.53515625 -15.095703125Q3.572265625 -16.8818359375 6.13623046875 -21.1455078125Q8.7001953125 -25.4091796875 10.8896484375 -29.384765625Q12.9638671875 -32.5537109375 15.1533203125 -36.759765625Q17.3427734375 -40.9658203125 18.4951171875 -42.78076171875Q19.6474609375 -44.595703125 20.6845703125 -44.595703125Q21.7216796875 -44.595703125 23.36376953125 -43.29931640625Q25.005859375 -42.0029296875 25.005859375 -40.216796875Q25.005859375 -38.4306640625 17.4580078125 -24.7177734375Q9.91015625 -11.0048828125 9.91015625 -9.103515625Q9.91015625 -8.642578125 10.37109375 -8.642578125Q11.9267578125 -8.642578125 17.25634765625 -13.05029296875Q22.5859375 -17.4580078125 29.0390625 -24.3720703125Q36.2412109375 -32.03515625 40.33203125 -38.373046875Q40.8505859375 -39.1796875 41.16748046875 -39.61181640625Q41.484375 -40.0439453125 41.97412109375 -40.76416015625Q42.4638671875 -41.484375 42.78076171875 -41.8876953125Q43.09765625 -42.291015625 43.52978515625 -42.83837890625Q43.9619140625 -43.3857421875 44.3076171875 -43.673828125Q44.6533203125 -43.9619140625 45.056640625 -44.25Q45.6904296875 -44.826171875 46.46826171875 -44.826171875Q47.24609375 -44.826171875 48.83056640625 -44.48046875Q50.4150390625 -44.134765625 50.73193359375 -43.7314453125Q51.048828125 -43.328125 51.39453125 -42.982421875Q51.970703125 -42.3486328125 51.970703125 -41.80126953125Q51.970703125 -41.25390625 51.509765625 -40.36083984375Q51.048828125 -39.4677734375 46.1513671875 -31.228515625Q31.7470703125 -6.9140625 26.3310546875 4.263671875Q35.0888671875 -3.111328125 50.9912109375 -17.5732421875Q51.625 -18.091796875 52.2587890625 -18.091796875Q54.044921875 -18.091796875 54.044921875 -12.6181640625Q54.044921875 -11.0048828125 53.46875 -10.486328125Q36.2412109375 2.765625 21.0302734375 19.12890625Z" fill="#33394E" transform="translate(314.77 0)"/><path d="M11.682 0.3186Q7.2216000000000005 0.3186 4.584300000000001 -1.8761999999999999Q1.947 -4.071 1.4868000000000001 -8.142H4.3188Q4.7082 -5.2038 6.549 -3.717Q8.389800000000001 -2.2302 11.646600000000001 -2.2302Q14.4078 -2.2302 15.8061 -3.2745Q17.2044 -4.3188 17.2044 -6.3366Q17.2044 -8.071200000000001 16.2486 -9.0978Q15.2928 -10.1244 13.275 -10.797L8.9916 -12.283800000000001Q5.7348 -13.4166 4.1772 -15.0273Q2.6196 -16.638 2.6196 -19.116Q2.6196 -21.1692 3.6462000000000003 -22.6737Q4.6728000000000005 -24.1782 6.549 -25.0278Q8.4252 -25.8774 10.9032 -25.8774Q14.7264 -25.8774 17.0274 -23.8773Q19.328400000000002 -21.877200000000002 19.6824 -18.1956H16.8504Q16.3902 -20.8506 14.9565 -22.0896Q13.5228 -23.3286 10.8324 -23.3286Q8.2836 -23.3286 6.8675999999999995 -22.302Q5.4516 -21.2754 5.4516 -19.3992Q5.4516 -17.8062 6.4428 -16.8504Q7.434 -15.8946 9.5226 -15.1866L14.0892 -13.5936Q17.0628 -12.567 18.549599999999998 -10.8147Q20.0364 -9.0624 20.0364 -6.372Q20.0364 -3.186 17.8593 -1.4337Q15.6822 0.3186 11.682 0.3186Z M76.5224284375 0.0V-22.9392H67.77862843749999V-25.488H88.16902843749999V-22.9392H79.4252284375V0.0Z M147.239256875 0.354Q142.637256875 0.354 140.07075687499997 -2.4603Q137.50425687499998 -5.2746 137.50425687499998 -10.3368V-25.488H140.407056875V-10.1952Q140.407056875 -6.372 142.177056875 -4.3187999999999995Q143.947056875 -2.2656 147.239256875 -2.2656Q150.602256875 -2.2656 152.372256875 -4.3011Q154.142256875 -6.3366 154.142256875 -10.1952V-25.488H157.045056875V-10.301400000000001Q157.045056875 -5.2746 154.460856875 -2.4603Q151.87665687499998 0.354 147.239256875 0.354Z M210.4866853125 0.0V-2.5488H217.3188853125Q220.5048853125 -2.5488 222.80588531249998 -3.8409Q225.1068853125 -5.133 226.3458853125 -7.4694Q227.58488531249998 -9.8058 227.58488531249998 -12.8856Q227.58488531249998 -15.93 226.3458853125 -18.1956Q225.1068853125 -20.4612 222.8235853125 -21.700200000000002Q220.5402853125 -22.9392 217.3188853125 -22.9392H210.4866853125V-25.488H217.3188853125Q221.3190853125 -25.488 224.2926853125 -23.9127Q227.2662853125 -22.3374 228.9123853125 -19.4877Q230.55848531249998 -16.638 230.55848531249998 -12.8148Q230.55848531249998 -8.9916 228.89468531249997 -6.1065000000000005Q227.2308853125 -3.2214 224.2749853125 -1.6107Q221.3190853125 0.0 217.3542853125 0.0ZM208.7520853125 0.0V-25.488H211.6548853125V0.0Z M281.20351374999996 0.0V-25.488H284.10631374999997V0.0Z M346.8935421874999 0.354Q344.23854218749995 0.354 342.0260421874999 -0.6194999999999999Q339.81354218749993 -1.593 338.18514218749993 -3.3807Q336.55674218749994 -5.1684 335.65404218749995 -7.5756000000000006Q334.7513421874999 -9.982800000000001 334.7513421874999 -12.850200000000001Q334.7513421874999 -16.638 336.30894218749995 -19.5762Q337.86654218749993 -22.514400000000002 340.61004218749997 -24.178200000000004Q343.35354218749995 -25.842000000000002 346.85814218749994 -25.842000000000002Q350.43354218749994 -25.842000000000002 353.1770421874999 -24.178200000000004Q355.9205421874999 -22.514400000000002 357.4781421874999 -19.5762Q359.0357421874999 -16.638 359.0357421874999 -12.8148Q359.0357421874999 -9.9474 358.13304218749994 -7.5402000000000005Q357.23034218749996 -5.133 355.60194218749996 -3.363Q353.97354218749996 -1.593 351.74334218749993 -0.6194999999999999Q349.5131421874999 0.354 346.8935421874999 0.354ZM346.85814218749994 -2.2656Q349.58394218749993 -2.2656 351.6548421874999 -3.6285000000000003Q353.7257421874999 -4.9914000000000005 354.89394218749993 -7.3986Q356.06214218749994 -9.8058 356.06214218749994 -12.8856Q356.06214218749994 -15.93 354.9116421875 -18.2664Q353.76114218749996 -20.602800000000002 351.69024218749996 -21.9126Q349.6193421874999 -23.2224 346.85814218749994 -23.2224Q344.09694218749996 -23.2224 342.04374218749996 -21.9126Q339.99054218749995 -20.602800000000002 338.8577421875 -18.284100000000002Q337.72494218749995 -15.9654 337.72494218749995 -12.8856Q337.72494218749995 -9.7704 338.87544218749997 -7.3809000000000005Q340.02594218749994 -4.9914000000000005 342.07914218749994 -3.6285000000000003Q344.13234218749994 -2.2656 346.85814218749994 -2.2656Z" fill="#6B6F80" transform="translate(0 75.52)"/></g></g><rect x="516.90" y="347.50" width="106.95" height="8" rx="4.0" fill="#FF9A56"/><rect x="636.65" y="347.50" width="106.95" height="8" rx="4.0" fill="#FFD36C"/><rect x="756.40" y="347.50" width="106.95" height="8" rx="4.0" fill="#C92C6B"/><rect x="876.15" y="347.50" width="106.95" height="8" rx="4.0" fill="#7BD1E6"/><path d="M2.7 0.0V-1.44H6.5600000000000005Q8.36 -1.44 9.66 -2.17Q10.96 -2.9 11.66 -4.22Q12.36 -5.54 12.36 -7.28Q12.36 -9.0 11.66 -10.280000000000001Q10.96 -11.56 9.670000000000002 -12.260000000000002Q8.38 -12.96 6.5600000000000005 -12.96H2.7V-14.4H6.5600000000000005Q8.82 -14.4 10.5 -13.510000000000002Q12.18 -12.620000000000001 13.11 -11.010000000000002Q14.040000000000001 -9.4 14.040000000000001 -7.24Q14.040000000000001 -5.08 13.100000000000001 -3.45Q12.16 -1.82 10.49 -0.91Q8.82 0.0 6.58 0.0ZM1.72 0.0V-14.4H3.36V0.0Z M21.16 0.0V-14.4H22.8V0.0ZM22.0 0.0V-1.44H30.8V0.0ZM22.0 -6.78V-8.22H30.080000000000002V-6.78ZM22.0 -12.96V-14.4H30.64V-12.96Z M42.34 0.18Q39.82 0.18 38.33 -1.06Q36.84 -2.3000000000000003 36.580000000000005 -4.6000000000000005H38.18Q38.400000000000006 -2.94 39.440000000000005 -2.1Q40.480000000000004 -1.26 42.32 -1.26Q43.88 -1.26 44.67 -1.85Q45.46 -2.44 45.46 -3.58Q45.46 -4.5600000000000005 44.92 -5.140000000000001Q44.38 -5.72 43.24 -6.1000000000000005L40.82 -6.94Q38.980000000000004 -7.58 38.1 -8.49Q37.22 -9.4 37.22 -10.8Q37.22 -11.96 37.8 -12.81Q38.38 -13.66 39.44 -14.14Q40.5 -14.620000000000001 41.900000000000006 -14.620000000000001Q44.06 -14.620000000000001 45.36 -13.49Q46.660000000000004 -12.36 46.86 -10.28H45.260000000000005Q45.0 -11.78 44.19 -12.48Q43.38 -13.18 41.86 -13.18Q40.42 -13.18 39.620000000000005 -12.6Q38.82 -12.02 38.82 -10.96Q38.82 -10.06 39.38 -9.52Q39.940000000000005 -8.98 41.120000000000005 -8.58L43.7 -7.68Q45.38 -7.1000000000000005 46.22 -6.11Q47.06 -5.12 47.06 -3.6Q47.06 -1.8 45.83 -0.81Q44.6 0.18 42.34 0.18Z M54.02 0.0V-14.4H55.660000000000004V0.0Z M69.98 0.2Q67.78 0.2 66.16 -0.7000000000000001Q64.54 -1.6 63.660000000000004 -3.2300000000000004Q62.78 -4.86 62.78 -7.08Q62.78 -9.3 63.65 -10.99Q64.52 -12.68 66.07 -13.64Q67.62 -14.6 69.64 -14.6Q71.22 -14.6 72.50999999999999 -14.0Q73.8 -13.4 74.63 -12.34Q75.46000000000001 -11.28 75.64 -9.88H74.0Q73.8 -11.36 72.63 -12.24Q71.46000000000001 -13.120000000000001 69.7 -13.120000000000001Q68.12 -13.120000000000001 66.94 -12.370000000000001Q65.76 -11.620000000000001 65.11000000000001 -10.280000000000001Q64.46000000000001 -8.94 64.46000000000001 -7.12Q64.46000000000001 -5.3 65.13 -3.99Q65.8 -2.68 67.07 -1.98Q68.34 -1.28 70.12 -1.28Q71.34 -1.28 72.30000000000001 -1.63Q73.26 -1.98 74.04 -2.72L75.68 -2.12Q74.58 -0.96 73.15 -0.38Q71.72 0.2 69.98 0.2ZM74.04 -2.12V-6.78L74.66 -6.16H70.1V-7.6000000000000005H75.68V-2.12Z M83.2 0.0V-14.4H84.9L93.16 -2.2800000000000002L92.92 -2.24V-14.4H94.48V0.0H92.78L84.52000000000001 -12.120000000000001L84.76 -12.16V0.0Z M115.60000000000001 0.18Q113.08000000000001 0.18 111.59 -1.06Q110.10000000000001 -2.3000000000000003 109.84000000000002 -4.6000000000000005H111.44000000000001Q111.66000000000001 -2.94 112.70000000000002 -2.1Q113.74000000000001 -1.26 115.58000000000001 -1.26Q117.14000000000001 -1.26 117.93 -1.85Q118.72000000000001 -2.44 118.72000000000001 -3.58Q118.72000000000001 -4.5600000000000005 118.18 -5.140000000000001Q117.64000000000001 -5.72 116.50000000000001 -6.1000000000000005L114.08000000000001 -6.94Q112.24000000000001 -7.58 111.36000000000001 -8.49Q110.48000000000002 -9.4 110.48000000000002 -10.8Q110.48000000000002 -11.96 111.06000000000002 -12.81Q111.64000000000001 -13.66 112.70000000000002 -14.14Q113.76000000000002 -14.620000000000001 115.16000000000001 -14.620000000000001Q117.32000000000002 -14.620000000000001 118.62000000000002 -13.49Q119.92000000000002 -12.36 120.12000000000002 -10.28H118.52000000000001Q118.26000000000002 -11.78 117.45000000000002 -12.48Q116.64000000000001 -13.18 115.12000000000002 -13.18Q113.68 -13.18 112.88000000000001 -12.6Q112.08000000000001 -12.02 112.08000000000001 -10.96Q112.08000000000001 -10.06 112.64000000000001 -9.52Q113.20000000000002 -8.98 114.38000000000001 -8.58L116.96000000000001 -7.68Q118.64000000000001 -7.1000000000000005 119.48000000000002 -6.11Q120.32000000000002 -5.12 120.32000000000002 -3.6Q120.32000000000002 -1.8 119.09000000000002 -0.81Q117.86000000000001 0.18 115.60000000000001 0.18Z M130.74000000000004 0.0V-6.5200000000000005L125.28000000000003 -14.4H127.28000000000003L132.02000000000004 -7.48H131.26000000000002L136.00000000000003 -14.4H137.84000000000003L132.38000000000002 -6.5200000000000005V0.0Z M148.50000000000003 0.18Q145.98000000000005 0.18 144.49000000000004 -1.06Q143.00000000000003 -2.3000000000000003 142.74000000000004 -4.6000000000000005H144.34000000000003Q144.56000000000003 -2.94 145.60000000000002 -2.1Q146.64000000000004 -1.26 148.48000000000005 -1.26Q150.04000000000002 -1.26 150.83000000000004 -1.85Q151.62000000000003 -2.44 151.62000000000003 -3.58Q151.62000000000003 -4.5600000000000005 151.08000000000004 -5.140000000000001Q150.54000000000002 -5.72 149.40000000000003 -6.1000000000000005L146.98000000000005 -6.94Q145.14000000000004 -7.58 144.26000000000005 -8.49Q143.38000000000002 -9.4 143.38000000000002 -10.8Q143.38000000000002 -11.96 143.96000000000004 -12.81Q144.54000000000002 -13.66 145.60000000000002 -14.14Q146.66000000000003 -14.620000000000001 148.06000000000003 -14.620000000000001Q150.22000000000003 -14.620000000000001 151.52000000000004 -13.49Q152.82000000000002 -12.36 153.02000000000004 -10.28H151.42000000000004Q151.16000000000003 -11.78 150.35000000000002 -12.48Q149.54000000000002 -13.18 148.02000000000004 -13.18Q146.58000000000004 -13.18 145.78000000000003 -12.6Q144.98000000000005 -12.02 144.98000000000005 -10.96Q144.98000000000005 -10.06 145.54000000000002 -9.52Q146.10000000000002 -8.98 147.28000000000003 -8.58L149.86000000000004 -7.68Q151.54000000000002 -7.1000000000000005 152.38000000000002 -6.11Q153.22000000000003 -5.12 153.22000000000003 -3.6Q153.22000000000003 -1.8 151.99000000000004 -0.81Q150.76000000000005 0.18 148.50000000000003 0.18Z M163.64000000000004 0.0V-12.96H158.70000000000005V-14.4H170.22000000000006V-12.96H165.28000000000006V0.0Z M177.06000000000006 0.0V-14.4H178.70000000000007V0.0ZM177.90000000000006 0.0V-1.44H186.70000000000005V0.0ZM177.90000000000006 -6.78V-8.22H185.98000000000008V-6.78ZM177.90000000000006 -12.96V-14.4H186.54000000000005V-12.96Z M194.22000000000006 0.0V-14.4H196.74000000000007L201.94000000000005 -0.52H201.18000000000006L206.34000000000006 -14.4H208.90000000000006V0.0H207.28000000000006V-13.540000000000001H207.50000000000006L202.48000000000005 0.0H200.52000000000007L195.50000000000006 -13.42H195.72000000000006V0.0Z M221.62000000000006 0.18Q219.10000000000008 0.18 217.61000000000007 -1.06Q216.12000000000006 -2.3000000000000003 215.86000000000007 -4.6000000000000005H217.46000000000006Q217.68000000000006 -2.94 218.72000000000008 -2.1Q219.76000000000008 -1.26 221.60000000000008 -1.26Q223.16000000000008 -1.26 223.95000000000007 -1.85Q224.74000000000007 -2.44 224.74000000000007 -3.58Q224.74000000000007 -4.5600000000000005 224.20000000000007 -5.140000000000001Q223.66000000000008 -5.72 222.52000000000007 -6.1000000000000005L220.10000000000008 -6.94Q218.26000000000008 -7.58 217.38000000000005 -8.49Q216.50000000000006 -9.4 216.50000000000006 -10.8Q216.50000000000006 -11.96 217.08000000000004 -12.81Q217.66000000000005 -13.66 218.72000000000006 -14.14Q219.78000000000006 -14.620000000000001 221.18000000000006 -14.620000000000001Q223.34000000000006 -14.620000000000001 224.64000000000004 -13.49Q225.94000000000005 -12.36 226.14000000000007 -10.28H224.54000000000008Q224.28000000000006 -11.78 223.47000000000008 -12.48Q222.66000000000008 -13.18 221.14000000000007 -13.18Q219.70000000000007 -13.18 218.9000000000001 -12.6Q218.10000000000008 -12.02 218.10000000000008 -10.96Q218.10000000000008 -10.06 218.66000000000008 -9.52Q219.22000000000006 -8.98 220.40000000000006 -8.58L222.98000000000008 -7.68Q224.66000000000008 -7.1000000000000005 225.50000000000006 -6.11Q226.34000000000006 -5.12 226.34000000000006 -3.6Q226.34000000000006 -1.8 225.11000000000007 -0.81Q223.88000000000005 0.18 221.62000000000006 0.18Z M239.98000000000008 -6.7V-8.76H242.04000000000008V-6.7Z M256.5600000000001 0.0V-14.4H258.2000000000001V0.0ZM257.4000000000001 -6.18V-7.62H265.1600000000001V-6.18ZM257.4000000000001 -12.96V-14.4H265.7200000000001V-12.96Z M272.4600000000001 0.0V-14.4H277.7800000000001Q279.32000000000005 -14.4 280.4000000000001 -13.9Q281.4800000000001 -13.4 282.05000000000007 -12.510000000000002Q282.62000000000006 -11.620000000000001 282.62000000000006 -10.4Q282.62000000000006 -9.18 282.05000000000007 -8.27Q281.4800000000001 -7.36 280.4000000000001 -6.85Q279.32000000000005 -6.34 277.7800000000001 -6.34H273.6600000000001V-7.78H277.7200000000001Q279.32000000000005 -7.78 280.1500000000001 -8.48Q280.9800000000001 -9.18 280.9800000000001 -10.4Q280.9800000000001 -11.6 280.1600000000001 -12.280000000000001Q279.3400000000001 -12.96 277.7200000000001 -12.96H274.1000000000001V0.0ZM280.9000000000001 0.0 273.24000000000007 -7.140000000000001H275.4800000000001L283.38000000000005 0.0Z M295.94000000000005 0.2Q294.44000000000005 0.2 293.19000000000005 -0.35Q291.94000000000005 -0.9 291.02000000000004 -1.91Q290.1 -2.92 289.59000000000003 -4.279999999999999Q289.08000000000004 -5.64 289.08000000000004 -7.26Q289.08000000000004 -9.4 289.96000000000004 -11.06Q290.84000000000003 -12.72 292.39000000000004 -13.66Q293.94000000000005 -14.6 295.92 -14.6Q297.94000000000005 -14.6 299.49 -13.66Q301.04 -12.72 301.9200000000001 -11.06Q302.80000000000007 -9.4 302.80000000000007 -7.24Q302.80000000000007 -5.62 302.2900000000001 -4.26Q301.78000000000003 -2.9 300.86 -1.9Q299.94000000000005 -0.9 298.68000000000006 -0.35Q297.42 0.2 295.94000000000005 0.2ZM295.92 -1.28Q297.46000000000004 -1.28 298.63000000000005 -2.05Q299.80000000000007 -2.82 300.46000000000004 -4.18Q301.12000000000006 -5.54 301.12000000000006 -7.28Q301.12000000000006 -9.0 300.47 -10.32Q299.82000000000005 -11.64 298.65000000000003 -12.38Q297.48 -13.120000000000001 295.92 -13.120000000000001Q294.36 -13.120000000000001 293.20000000000005 -12.38Q292.04 -11.64 291.40000000000003 -10.33Q290.76000000000005 -9.02 290.76000000000005 -7.28Q290.76000000000005 -5.5200000000000005 291.4100000000001 -4.17Q292.06000000000006 -2.82 293.22 -2.05Q294.38000000000005 -1.28 295.92 -1.28Z M309.9200000000001 0.0V-14.4H311.62000000000006L319.88000000000005 -2.2800000000000002L319.64000000000004 -2.24V-14.4H321.20000000000005V0.0H319.50000000000006L311.24000000000007 -12.120000000000001L311.48 -12.16V0.0Z M332.9800000000001 0.0V-12.96H328.0400000000001V-14.4H339.56000000000006V-12.96H334.62000000000006V0.0Z M343.00000000000006 -4.68V-6.2H349.92V-4.68Z M357.64000000000004 0.0V-14.4H359.28000000000003V0.0ZM358.48 0.0V-1.44H367.28000000000003V0.0ZM358.48 -6.78V-8.22H366.56V-6.78ZM358.48 -12.96V-14.4H367.12V-12.96Z M374.8 0.0V-14.4H376.5L384.76 -2.2800000000000002L384.52 -2.24V-14.4H386.08V0.0H384.38L376.12 -12.120000000000001L376.35999999999996 -12.16V0.0Z M394.9 0.0V-1.44H398.76Q400.56 -1.44 401.86 -2.17Q403.15999999999997 -2.9 403.86 -4.22Q404.56 -5.54 404.56 -7.28Q404.56 -9.0 403.86 -10.280000000000001Q403.15999999999997 -11.56 401.87 -12.260000000000002Q400.58 -12.96 398.76 -12.96H394.9V-14.4H398.76Q401.02 -14.4 402.7 -13.510000000000002Q404.38 -12.620000000000001 405.31 -11.010000000000002Q406.24 -9.4 406.24 -7.24Q406.24 -5.08 405.3 -3.45Q404.36 -1.82 402.69 -0.91Q401.02 0.0 398.78 0.0ZM393.92 0.0V-14.4H395.56V0.0Z M420.76 0.0 426.31999999999994 -14.4H427.76L422.34 0.0ZM432.2 0.0 426.78 -14.4H428.31999999999994L433.87999999999994 0.0ZM423.52 -5.82H431.03999999999996V-4.38H423.52Z M440.32 0.0V-14.4H445.64Q447.17999999999995 -14.4 448.26 -13.9Q449.34 -13.4 449.90999999999997 -12.510000000000002Q450.47999999999996 -11.620000000000001 450.47999999999996 -10.4Q450.47999999999996 -9.18 449.90999999999997 -8.27Q449.34 -7.36 448.26 -6.85Q447.17999999999995 -6.34 445.64 -6.34H441.52V-7.78H445.58Q447.17999999999995 -7.78 448.01 -8.48Q448.84 -9.18 448.84 -10.4Q448.84 -11.6 448.02 -12.280000000000001Q447.2 -12.96 445.58 -12.96H441.96V0.0ZM448.76 0.0 441.09999999999997 -7.140000000000001H443.34L451.23999999999995 0.0Z M463.75999999999993 0.2Q462.2799999999999 0.2 461.0299999999999 -0.35Q459.7799999999999 -0.9 458.8599999999999 -1.89Q457.93999999999994 -2.88 457.43999999999994 -4.23Q456.93999999999994 -5.58 456.93999999999994 -7.2Q456.93999999999994 -8.82 457.43999999999994 -10.17Q457.93999999999994 -11.52 458.8499999999999 -12.51Q459.75999999999993 -13.5 461.00999999999993 -14.05Q462.25999999999993 -14.6 463.73999999999995 -14.6Q465.35999999999996 -14.6 466.65 -13.940000000000001Q467.93999999999994 -13.280000000000001 468.77 -12.080000000000002Q469.59999999999997 -10.88 469.79999999999995 -9.28H468.15999999999997Q467.91999999999996 -11.06 466.74999999999994 -12.09Q465.5799999999999 -13.120000000000001 463.75999999999993 -13.120000000000001Q462.2199999999999 -13.120000000000001 461.05999999999995 -12.370000000000001Q459.8999999999999 -11.620000000000001 459.25999999999993 -10.290000000000001Q458.61999999999995 -8.96 458.61999999999995 -7.2Q458.61999999999995 -5.44 459.25999999999993 -4.11Q459.8999999999999 -2.7800000000000002 461.05999999999995 -2.0300000000000002Q462.2199999999999 -1.28 463.73999999999995 -1.28Q465.59999999999997 -1.28 466.78999999999996 -2.32Q467.97999999999996 -3.36 468.19999999999993 -5.12H469.8399999999999Q469.63999999999993 -3.52 468.80999999999995 -2.3200000000000003Q467.97999999999996 -1.12 466.68999999999994 -0.4600000000000001Q465.3999999999999 0.2 463.75999999999993 0.2Z M476.87999999999994 0.0V-14.4H478.5199999999999V0.0ZM486.5199999999999 0.0V-14.4H488.1599999999999V0.0ZM477.7199999999999 -8.22H487.2399999999999V-6.78H477.7199999999999Z M495.99999999999994 0.0V-14.4H497.63999999999993V0.0Z M509.4199999999999 0.0V-12.96H504.4799999999999V-14.4H515.9999999999999V-12.96H511.0599999999999V0.0Z M522.8399999999999 0.0V-14.4H524.4799999999999V0.0ZM523.6799999999998 0.0V-1.44H532.4799999999999V0.0ZM523.6799999999998 -6.78V-8.22H531.7599999999999V-6.78ZM523.6799999999998 -12.96V-14.4H532.3199999999999V-12.96Z M545.28 0.2Q543.8 0.2 542.55 -0.35Q541.3 -0.9 540.3799999999999 -1.89Q539.4599999999999 -2.88 538.9599999999999 -4.23Q538.4599999999999 -5.58 538.4599999999999 -7.2Q538.4599999999999 -8.82 538.9599999999999 -10.17Q539.4599999999999 -11.52 540.3699999999999 -12.51Q541.28 -13.5 542.53 -14.05Q543.78 -14.6 545.2599999999999 -14.6Q546.8799999999999 -14.6 548.1699999999998 -13.940000000000001Q549.4599999999999 -13.280000000000001 550.29 -12.080000000000002Q551.1199999999999 -10.88 551.3199999999999 -9.28H549.68Q549.4399999999999 -11.06 548.27 -12.09Q547.0999999999999 -13.120000000000001 545.28 -13.120000000000001Q543.7399999999999 -13.120000000000001 542.5799999999999 -12.370000000000001Q541.42 -11.620000000000001 540.78 -10.290000000000001Q540.1399999999999 -8.96 540.1399999999999 -7.2Q540.1399999999999 -5.44 540.78 -4.11Q541.42 -2.7800000000000002 542.5799999999999 -2.0300000000000002Q543.7399999999999 -1.28 545.2599999999999 -1.28Q547.1199999999999 -1.28 548.31 -2.32Q549.4999999999999 -3.36 549.7199999999999 -5.12H551.3599999999999Q551.16 -3.52 550.3299999999999 -2.3200000000000003Q549.4999999999999 -1.12 548.2099999999999 -0.4600000000000001Q546.92 0.2 545.28 0.2Z M561.3999999999999 0.0V-12.96H556.4599999999999V-14.4H567.9799999999999V-12.96H563.0399999999998V0.0Z M579.8599999999999 0.2Q577.2599999999999 0.2 575.81 -1.39Q574.3599999999999 -2.98 574.3599999999999 -5.84V-14.4H575.9999999999999V-5.76Q575.9999999999999 -3.6 576.9999999999999 -2.44Q577.9999999999999 -1.28 579.8599999999999 -1.28Q581.7599999999999 -1.28 582.7599999999999 -2.43Q583.7599999999999 -3.58 583.7599999999999 -5.76V-14.4H585.3999999999999V-5.82Q585.3999999999999 -2.98 583.9399999999998 -1.39Q582.4799999999999 0.2 579.8599999999999 0.2Z M592.8999999999999 0.0V-14.4H598.2199999999998Q599.7599999999999 -14.4 600.8399999999999 -13.9Q601.9199999999998 -13.4 602.4899999999998 -12.510000000000002Q603.0599999999998 -11.620000000000001 603.0599999999998 -10.4Q603.0599999999998 -9.18 602.4899999999998 -8.27Q601.9199999999998 -7.36 600.8399999999999 -6.85Q599.7599999999999 -6.34 598.2199999999998 -6.34H594.0999999999998V-7.78H598.1599999999999Q599.7599999999999 -7.78 600.5899999999999 -8.48Q601.4199999999998 -9.18 601.4199999999998 -10.4Q601.4199999999998 -11.6 600.5999999999999 -12.280000000000001Q599.7799999999999 -12.96 598.1599999999999 -12.96H594.5399999999998V0.0ZM601.3399999999998 0.0 593.6799999999998 -7.140000000000001H595.9199999999998L603.8199999999998 0.0Z M610.4199999999998 0.0V-14.4H612.0599999999998V0.0ZM611.2599999999998 0.0V-1.44H620.0599999999998V0.0ZM611.2599999999998 -6.78V-8.22H619.3399999999998V-6.78ZM611.2599999999998 -12.96V-14.4H619.8999999999999V-12.96Z M634.2599999999998 -6.7V-8.76H636.3199999999998V-6.7Z M649.8399999999997 0.0 655.3999999999996 -14.4H656.8399999999997L651.4199999999996 0.0ZM661.2799999999996 0.0 655.8599999999997 -14.4H657.3999999999996L662.9599999999997 0.0ZM652.5999999999997 -5.82H660.1199999999997V-4.38H652.5999999999997Z M675.1199999999997 0.2Q673.6399999999996 0.2 672.3899999999996 -0.35Q671.1399999999996 -0.9 670.2199999999996 -1.89Q669.2999999999996 -2.88 668.7999999999996 -4.23Q668.2999999999996 -5.58 668.2999999999996 -7.2Q668.2999999999996 -8.82 668.7999999999996 -10.17Q669.2999999999996 -11.52 670.2099999999996 -12.51Q671.1199999999997 -13.5 672.3699999999997 -14.05Q673.6199999999997 -14.6 675.0999999999996 -14.6Q676.7199999999996 -14.6 678.0099999999995 -13.940000000000001Q679.2999999999996 -13.280000000000001 680.1299999999997 -12.080000000000002Q680.9599999999996 -10.88 681.1599999999996 -9.28H679.5199999999996Q679.2799999999996 -11.06 678.1099999999997 -12.09Q676.9399999999996 -13.120000000000001 675.1199999999997 -13.120000000000001Q673.5799999999996 -13.120000000000001 672.4199999999996 -12.370000000000001Q671.2599999999996 -11.620000000000001 670.6199999999997 -10.290000000000001Q669.9799999999996 -8.96 669.9799999999996 -7.2Q669.9799999999996 -5.44 670.6199999999997 -4.11Q671.2599999999996 -2.7800000000000002 672.4199999999996 -2.0300000000000002Q673.5799999999996 -1.28 675.0999999999996 -1.28Q676.9599999999996 -1.28 678.1499999999996 -2.32Q679.3399999999996 -3.36 679.5599999999996 -5.12H681.1999999999996Q680.9999999999997 -3.52 680.1699999999996 -2.3200000000000003Q679.3399999999996 -1.12 678.0499999999996 -0.4600000000000001Q676.7599999999996 0.2 675.1199999999997 0.2Z M694.2199999999997 0.2Q692.7399999999997 0.2 691.4899999999997 -0.35Q690.2399999999997 -0.9 689.3199999999997 -1.89Q688.3999999999996 -2.88 687.8999999999996 -4.23Q687.3999999999996 -5.58 687.3999999999996 -7.2Q687.3999999999996 -8.82 687.8999999999996 -10.17Q688.3999999999996 -11.52 689.3099999999997 -12.51Q690.2199999999997 -13.5 691.4699999999997 -14.05Q692.7199999999997 -14.6 694.1999999999996 -14.6Q695.8199999999996 -14.6 697.1099999999997 -13.940000000000001Q698.3999999999996 -13.280000000000001 699.2299999999996 -12.080000000000002Q700.0599999999996 -10.88 700.2599999999996 -9.28H698.6199999999997Q698.3799999999997 -11.06 697.2099999999996 -12.09Q696.0399999999996 -13.120000000000001 694.2199999999997 -13.120000000000001Q692.6799999999996 -13.120000000000001 691.5199999999996 -12.370000000000001Q690.3599999999997 -11.620000000000001 689.7199999999996 -10.290000000000001Q689.0799999999996 -8.96 689.0799999999996 -7.2Q689.0799999999996 -5.44 689.7199999999996 -4.11Q690.3599999999997 -2.7800000000000002 691.5199999999996 -2.0300000000000002Q692.6799999999996 -1.28 694.1999999999996 -1.28Q696.0599999999996 -1.28 697.2499999999995 -2.32Q698.4399999999996 -3.36 698.6599999999996 -5.12H700.2999999999996Q700.0999999999997 -3.52 699.2699999999996 -2.3200000000000003Q698.4399999999996 -1.12 697.1499999999996 -0.4600000000000001Q695.8599999999997 0.2 694.2199999999997 0.2Z M707.3399999999997 0.0V-14.4H708.9799999999997V0.0ZM708.1799999999996 0.0V-1.44H716.9799999999997V0.0ZM708.1799999999996 -6.78V-8.22H716.2599999999996V-6.78ZM708.1799999999996 -12.96V-14.4H716.8199999999997V-12.96Z M728.5199999999996 0.18Q725.9999999999997 0.18 724.5099999999996 -1.06Q723.0199999999996 -2.3000000000000003 722.7599999999996 -4.6000000000000005H724.3599999999997Q724.5799999999996 -2.94 725.6199999999997 -2.1Q726.6599999999996 -1.26 728.4999999999997 -1.26Q730.0599999999996 -1.26 730.8499999999997 -1.85Q731.6399999999996 -2.44 731.6399999999996 -3.58Q731.6399999999996 -4.5600000000000005 731.0999999999997 -5.140000000000001Q730.5599999999996 -5.72 729.4199999999996 -6.1000000000000005L726.9999999999997 -6.94Q725.1599999999996 -7.58 724.2799999999996 -8.49Q723.3999999999996 -9.4 723.3999999999996 -10.8Q723.3999999999996 -11.96 723.9799999999996 -12.81Q724.5599999999996 -13.66 725.6199999999997 -14.14Q726.6799999999996 -14.620000000000001 728.0799999999996 -14.620000000000001Q730.2399999999997 -14.620000000000001 731.5399999999996 -13.49Q732.8399999999996 -12.36 733.0399999999996 -10.28H731.4399999999996Q731.1799999999996 -11.78 730.3699999999997 -12.48Q729.5599999999996 -13.18 728.0399999999996 -13.18Q726.5999999999996 -13.18 725.7999999999996 -12.6Q724.9999999999997 -12.02 724.9999999999997 -10.96Q724.9999999999997 -10.06 725.5599999999997 -9.52Q726.1199999999997 -8.98 727.2999999999996 -8.58L729.8799999999997 -7.68Q731.5599999999996 -7.1000000000000005 732.3999999999996 -6.11Q733.2399999999997 -5.12 733.2399999999997 -3.6Q733.2399999999997 -1.8 732.0099999999996 -0.81Q730.7799999999996 0.18 728.5199999999996 0.18Z M745.0799999999996 0.18Q742.5599999999996 0.18 741.0699999999996 -1.06Q739.5799999999996 -2.3000000000000003 739.3199999999996 -4.6000000000000005H740.9199999999996Q741.1399999999995 -2.94 742.1799999999996 -2.1Q743.2199999999996 -1.26 745.0599999999996 -1.26Q746.6199999999995 -1.26 747.4099999999996 -1.85Q748.1999999999996 -2.44 748.1999999999996 -3.58Q748.1999999999996 -4.5600000000000005 747.6599999999996 -5.140000000000001Q747.1199999999995 -5.72 745.9799999999996 -6.1000000000000005L743.5599999999996 -6.94Q741.7199999999996 -7.58 740.8399999999996 -8.49Q739.9599999999996 -9.4 739.9599999999996 -10.8Q739.9599999999996 -11.96 740.5399999999995 -12.81Q741.1199999999995 -13.66 742.1799999999996 -14.14Q743.2399999999996 -14.620000000000001 744.6399999999995 -14.620000000000001Q746.7999999999996 -14.620000000000001 748.0999999999996 -13.49Q749.3999999999995 -12.36 749.5999999999996 -10.28H747.9999999999995Q747.7399999999996 -11.78 746.9299999999996 -12.48Q746.1199999999995 -13.18 744.5999999999996 -13.18Q743.1599999999995 -13.18 742.3599999999996 -12.6Q741.5599999999996 -12.02 741.5599999999996 -10.96Q741.5599999999996 -10.06 742.1199999999997 -9.52Q742.6799999999996 -8.98 743.8599999999996 -8.58L746.4399999999996 -7.68Q748.1199999999995 -7.1000000000000005 748.9599999999996 -6.11Q749.7999999999996 -5.12 749.7999999999996 -3.6Q749.7999999999996 -1.8 748.5699999999996 -0.81Q747.3399999999996 0.18 745.0799999999996 0.18Z M756.7599999999995 0.0V-14.4H758.3999999999995V0.0Z M767.3199999999995 0.0V-1.36H771.9199999999995Q773.2399999999996 -1.36 774.0199999999995 -2.08Q774.7999999999995 -2.8000000000000003 774.7999999999995 -4.0200000000000005Q774.7999999999995 -5.32 773.9799999999996 -6.1Q773.1599999999995 -6.88 771.7799999999995 -6.88H767.3199999999995V-8.2H771.5599999999995Q772.9199999999995 -8.2 773.6799999999995 -8.86Q774.4399999999995 -9.52 774.4399999999995 -10.72Q774.4399999999995 -11.84 773.7299999999996 -12.440000000000001Q773.0199999999995 -13.040000000000001 771.6599999999995 -13.040000000000001H767.3199999999995V-14.4H771.7999999999995Q773.7799999999995 -14.4 774.9299999999995 -13.46Q776.0799999999995 -12.52 776.0799999999995 -10.9Q776.0799999999995 -9.88 775.6199999999994 -9.08Q775.1599999999995 -8.28 774.3599999999994 -7.83Q773.5599999999995 -7.38 772.5199999999995 -7.38L772.6199999999995 -7.8Q773.7199999999996 -7.8 774.5899999999996 -7.279999999999999Q775.4599999999996 -6.76 775.9699999999996 -5.87Q776.4799999999996 -4.98 776.4799999999996 -3.84Q776.4799999999996 -2.7 775.9299999999996 -1.83Q775.3799999999995 -0.96 774.3799999999995 -0.48Q773.3799999999995 0.0 772.0599999999995 0.0ZM766.2399999999996 0.0V-14.4H767.8799999999995V0.0Z M783.3599999999996 0.0V-14.4H784.9999999999995V0.0Z M792.8399999999996 0.0V-14.4H794.4799999999996V0.0ZM793.6799999999995 0.0V-1.44H801.8799999999995V0.0Z M808.9999999999995 0.0V-14.4H810.6399999999995V0.0Z M822.4199999999995 0.0V-12.96H817.4799999999996V-14.4H828.9999999999995V-12.96H824.0599999999995V0.0Z M840.0599999999996 0.0V-6.5200000000000005L834.5999999999996 -14.4H836.5999999999996L841.3399999999996 -7.48H840.5799999999996L845.3199999999996 -14.4H847.1599999999995L841.6999999999996 -6.5200000000000005V0.0Z" fill="#6B6F80" transform="translate(326.18 390.00)"/></svg>