<svg xmlns="http://www.w3.org/2000/svg" viewBox="0 0 1200 630"><rect width="1200" height="630" fill="#FBF9F3"/><g transform="translate(274.31 152.00) scale(0.39062)"><path d="M 433.41 375.67 A 214 214 0 0 1 209.68 464.93" fill="none" stroke="#7BD1E6" stroke-width="42" stroke-linecap="butt"/><circle cx="433.41" cy="375.67" r="21.00" fill="#7BD1E6"/><path d="M 188.10 458.94 A 214 214 0 0 1 42.29 267.20" fill="none" stroke="#C92C6B" stroke-width="42" stroke-linecap="butt"/><path d="M 42.29 244.80 A 214 214 0 0 1 188.10 53.06" fill="none" stroke="#FF9A56" stroke-width="42" stroke-linecap="butt"/><path d="M 209.68 47.07 A 214 214 0 0 1 433.41 136.33" fill="none" stroke="#FFD36C" stroke-width="42" stroke-linecap="butt"/><circle cx="433.41" cy="136.33" r="21.00" fill="#FFD36C"/><rect x="374" y="224" width="118" height="64" rx="26" fill="#EFEBDF" stroke="#33394E" stroke-width="16"/><circle cx="256" cy="256" r="150" fill="#EFEBDF" stroke="#33394E" stroke-width="16"/><circle cx="256" cy="256" r="104" fill="#C2B1A6"/></g><g transform="translate(534.31 257.12)"><g><path d="M87.3125 -87.6875Q89.25 -92.0 90.0625 -92.0H90.375Q91.3125 -92.0 94.1875 -90.0Q97.0625 -88.0 97.0625 -86.25Q97.0625 -83.8125 81.0625 -48.5Q65.0625 -13.1875 62.71875 -8.90625Q60.375 -4.625 59.5 -3.1875Q58.625 -1.75 57.125 0.0Q54.4375 3.3125 50.4375 3.3125Q48.8125 3.3125 47.5625 3.71875Q46.3125 4.125 46.0625 4.125Q44.0625 4.125 44.0625 3.1875Q44.0625 3.0 44.59375 1.65625Q45.125 0.3125 58.875 -28.6875Q44.1875 -29.25 33.0625 -29.5625Q22.375 -16.125 13.6875 -1.4375Q12.625 0.625 11.6875 1.46875Q10.75 2.3125 9.125 2.3125Q7.5 2.3125 5.625 0.65625Q3.75 -1.0 3.75 -3.1875Q3.75 -9.4375 19.875 -29.9375Q12.3125 -29.9375 10.28125 -29.5625Q8.25 -29.1875 7.6875 -29.1875Q6.0 -29.1875 6.0 -32.03125Q6.0 -34.875 9.34375 -37.03125Q12.6875 -39.1875 18.3125 -39.1875Q18.75 -39.1875 19.875 -39.25Q23.75 -39.4375 27.8125 -39.5625Q41.4375 -55.5625 56.3125 -69.25Q71.1875 -82.9375 82.0625 -88.4375Q83.8125 -89.3125 84.84375 -89.28125Q85.875 -89.25 87.3125 -87.6875ZM82.9375 -78.875Q60.125 -61.5625 41.25 -39.5625Q52.3125 -39.3125 63.625 -38.625Q75.0 -62.5625 82.9375 -78.875Z M112.9375 -44.0Q102.0625 -30.125 92.0625 -19.0625Q92.0 -18.3125 91.53125 -16.28125Q91.0625 -14.25 91.0625 -12.1875Q91.0625 -10.125 92.96875 -8.46875Q94.875 -6.8125 97.6875 -6.8125Q100.5 -6.8125 103.71875 -8.8125Q106.9375 -10.8125 109.3125 -13.25Q115.5625 -19.6875 117.0625 -19.6875Q118.5625 -19.6875 118.5625 -15.125V-13.875Q118.5625 -11.4375 117.6875 -10.3125Q112.4375 -3.875 105.875 -0.71875Q99.3125 2.4375 93.4375 2.4375Q87.5625 2.4375 84.5 -1.15625Q81.4375 -4.75 81.4375 -11.0Q81.4375 -23.1875 87.96875 -39.65625Q94.5 -56.125 102.6875 -67.6875Q121.125 -93.8125 130.875 -93.8125Q133.875 -93.8125 136.15625 -92.03125Q138.4375 -90.25 138.4375 -86.75Q138.4375 -83.25 134.5625 -75.78125Q130.6875 -68.3125 125.25 -60.53125Q119.8125 -52.75 112.9375 -44.0ZM128.0625 -83.4375Q128.0625 -84.375 127.4375 -84.375Q125.25 -84.375 115.9375 -71.875Q106.625 -59.375 102.46875 -51.9375Q98.3125 -44.5 94.625 -33.25Q102.0 -42.0 115.03125 -60.53125Q128.0625 -79.0625 128.0625 -83.4375Z M145.9375 -44.0Q135.0625 -30.125 125.0625 -19.0625Q125.0 -18.3125 124.53125 -16.28125Q124.0625 -14.25 124.0625 -12.1875Q124.0625 -10.125 125.96875 -8.46875Q127.875 -6.8125 130.6875 -6.8125Q133.5 -6.8125 136.71875 -8.8125Q139.9375 -10.8125 142.3125 -13.25Q148.5625 -19.6875 150.0625 -19.6875Q151.5625 -19.6875 151.5625 -15.125V-13.875Q151.5625 -11.4375 150.6875 -10.3125Q145.4375 -3.875 138.875 -0.71875Q132.3125 2.4375 126.4375 2.4375Q120.5625 2.4375 117.5 -1.15625Q114.4375 -4.75 114.4375 -11.0Q114.4375 -23.1875 120.96875 -39.65625Q127.5 -56.125 135.6875 -67.6875Q154.125 -93.8125 163.875 -93.8125Q166.875 -93.8125 169.15625 -92.03125Q171.4375 -90.25 171.4375 -86.75Q171.4375 -83.25 167.5625 -75.78125Q163.6875 -68.3125 158.25 -60.53125Q152.8125 -52.75 145.9375 -44.0ZM161.0625 -83.4375Q161.0625 -84.375 160.4375 -84.375Q158.25 -84.375 148.9375 -71.875Q139.625 -59.375 135.46875 -51.9375Q131.3125 -44.5 127.625 -33.25Q135.0 -42.0 148.03125 -60.53125Q161.0625 -79.0625 161.0625 -83.4375Z M161.0625 -42.375Q171.25 -50.5625 178.9375 -50.5625Q182.375 -50.5625 184.125 -48.875Q184.75 -48.3125 184.75 -47.875V-47.5Q185.625 -47.625 187.5 -47.625Q189.375 -47.625 191.34375 -45.9375Q193.3125 -44.25 193.3125 -40.78125Q193.3125 -37.3125 190.875 -31.78125Q188.4375 -26.25 184.1875 -20.53125Q179.9375 -14.8125 174.84375 -9.78125Q169.75 -4.75 163.84375 -1.53125Q157.9375 1.6875 153.125 1.6875Q148.3125 1.6875 145.40625 -1.34375Q142.5 -4.375 142.5 -9.78125Q142.5 -15.1875 145.15625 -21.75Q147.8125 -28.3125 152.0 -33.34375Q156.1875 -38.375 161.0625 -42.375ZM181.1875 -39.3125H180.75Q178.5625 -39.3125 178.5625 -42.5Q174.0 -41.0 169.0 -37.25Q164.0 -33.5 160.0625 -28.375Q152.0625 -18.125 151.9375 -11.0625Q151.9375 -7.5625 154.5 -7.5625Q157.0625 -7.5625 162.125 -10.9375Q167.1875 -14.3125 172.15625 -20.5625Q177.125 -26.8125 179.59375 -31.40625Q182.0625 -36.0 182.0625 -37.65625Q182.0625 -39.3125 181.1875 -39.3125Z M224.5625 -9.625Q224.5625 -6.875 228.3125 -6.875Q230.3125 -6.875 233.34375 -8.875Q236.375 -10.875 238.8125 -13.25Q245.3125 -19.6875 246.1875 -19.6875Q247.8125 -19.6875 247.8125 -15.0Q247.8125 -10.3125 244.875 -8.5625Q235.9375 -0.5 231.0625 1.25Q228.3125 2.1875 225.0 2.125Q221.6875 2.0625 218.4375 -0.75Q215.1875 -3.5625 215.1875 -7.59375Q215.1875 -11.625 217.3125 -16.75Q219.4375 -21.875 221.65625 -25.53125Q223.875 -29.1875 227.125 -34.03125Q230.375 -38.875 230.5625 -40.0625L230.4375 -40.1875Q228.375 -40.0 220.21875 -32.0625Q212.0625 -24.125 206.75 -18.25Q201.4375 -12.375 194.0625 -2.5625Q192.0 0.125 190.6875 0.125Q189.375 0.125 187.15625 -0.71875Q184.9375 -1.5625 184.4375 -1.9375Q183.9375 -2.3125 183.9375 -3.0625Q183.9375 -3.8125 184.375 -4.90625Q184.8125 -6.0 185.21875 -6.71875Q185.625 -7.4375 186.5625 -8.9375Q187.5 -10.4375 190.28125 -15.28125Q193.0625 -20.125 198.8125 -29.75Q204.5625 -39.375 205.6875 -41.375Q208.0625 -45.5 209.5625 -47.375Q212.375 -50.9375 219.0625 -50.9375Q220.5625 -50.9375 220.5625 -49.0625Q220.5625 -46.125 215.125 -38.0L212.5 -34.0625Q223.3125 -46.0625 230.75 -49.25Q234.375 -50.8125 237.28125 -50.8125Q240.1875 -50.8125 241.90625 -49.25Q243.625 -47.6875 243.625 -45.78125Q243.625 -43.875 242.3125 -41.21875Q241.0 -38.5625 239.65625 -36.46875Q238.3125 -34.375 236.125 -31.1875Q233.9375 -28.0 233.75 -27.71875Q233.5625 -27.4375 232.78125 -26.21875Q232.0 -25.0 231.625 -24.4375Q231.25 -23.875 230.375 -22.46875Q229.5 -21.0625 228.96875 -20.125Q228.4375 -19.1875 227.65625 -17.8125Q226.875 -16.4375 226.40625 -15.4375Q225.9375 -14.4375 225.4375 -13.25Q224.5625 -11.0625 224.5625 -9.625Z M248.8125 -12.5 248.75 -11.5Q248.75 -9.9375 249.9375 -8.8125Q251.125 -7.6875 252.125 -7.6875Q259.625 -7.6875 265.40625 -9.9375Q271.1875 -12.1875 271.1875 -14.4375Q271.1875 -15.5 269.09375 -16.28125Q267.0 -17.0625 262.03125 -18.21875Q257.0625 -19.375 254.8125 -20.03125Q252.5625 -20.6875 251.25 -21.25Q249.9375 -21.8125 248.5625 -22.8125Q245.625 -24.875 245.625 -28.96875Q245.625 -33.0625 248.65625 -37.09375Q251.6875 -41.125 256.25 -44.0Q260.8125 -46.875 266.0625 -49.0625Q276.4375 -53.375 283.5 -53.375Q290.4375 -53.375 292.0625 -50.375Q292.5625 -49.3125 292.5625 -48.0V-47.5625Q292.5625 -44.25 291.15625 -42.375Q289.75 -40.5 286.71875 -39.0Q283.6875 -37.5 281.90625 -37.5Q280.125 -37.5 279.65625 -37.75Q279.1875 -38.0 278.875 -38.40625Q278.5625 -38.8125 278.09375 -39.0Q277.625 -39.1875 277.625 -39.9375Q277.625 -40.6875 278.25 -41.46875Q278.875 -42.25 279.125 -43.125Q275.0 -42.9375 270.5 -41.21875Q266.0 -39.5 262.78125 -37.375Q259.5625 -35.25 257.4375 -33.3125Q255.3125 -31.375 255.3125 -30.46875Q255.3125 -29.5625 258.1875 -29.0Q271.125 -26.4375 275.1875 -24.5625Q279.25 -22.6875 280.8125 -20.3125Q282.375 -17.9375 282.375 -16.0Q282.375 -12.0 279.1875 -8.4375Q276.0 -4.875 271.3125 -2.625Q261.25 2.3125 253.78125 2.3125Q246.3125 2.3125 243.46875 0.03125Q240.625 -2.25 240.625 -5.375Q240.625 -8.5 242.21875 -11.15625Q243.8125 -13.8125 246.3125 -13.8125Q248.8125 -13.8125 248.8125 -12.5Z" fill="#33394E"/><g transform="translate(313.28 -31.36) skewX(-12)"><rect x="-19.20" y="-6.72" width="38.40" height="13.44" rx="6.72" fill="#C92C6B"/></g><path d="M22.8125 20.75Q22.5 21.0625 20.90625 23.90625Q19.3125 26.75 17.5 29.65625Q15.6875 32.5625 13.03125 35.1875Q10.375 37.8125 8.59375 38.03125Q6.8125 38.25 6.3125 38.25Q0.5625 38.25 0.5625 32.4375Q0.5625 25.625 7.625 16.5Q10.3125 13.0625 14.375 9.09375Q18.4375 5.125 18.8125 4.59375Q19.1875 4.0625 28.1875 -12.9375Q22.1875 -6.375 17.0625 -2.28125Q11.9375 1.8125 7.1875 2.3125H6.75Q4.3125 2.3125 1.9375 0.71875Q-0.4375 -0.875 -0.4375 -4.875Q-0.4375 -10.8125 2.75 -16.375Q3.875 -18.3125 6.65625 -22.9375Q9.4375 -27.5625 11.8125 -31.875Q14.0625 -35.3125 16.4375 -39.875Q18.8125 -44.4375 20.0625 -46.40625Q21.3125 -48.375 22.4375 -48.375Q23.5625 -48.375 25.34375 -46.96875Q27.125 -45.5625 27.125 -43.625Q27.125 -41.6875 18.9375 -26.8125Q10.75 -11.9375 10.75 -9.875Q10.75 -9.375 11.25 -9.375Q12.9375 -9.375 18.71875 -14.15625Q24.5 -18.9375 31.5 -26.4375Q39.3125 -34.75 43.75 -41.625Q44.3125 -42.5 44.65625 -42.96875Q45.0 -43.4375 45.53125 -44.21875Q46.0625 -45.0 46.40625 -45.4375Q46.75 -45.875 47.21875 -46.46875Q47.6875 -47.0625 48.0625 -47.375Q48.4375 -47.6875 48.875 -48.0Q49.5625 -48.625 50.40625 -48.625Q51.25 -48.625 52.96875 -48.25Q54.6875 -47.875 55.03125 -47.4375Q55.375 -47.0 55.75 -46.625Q56.375 -45.9375 56.375 -45.34375Q56.375 -44.75 55.875 -43.78125Q55.375 -42.8125 50.0625 -33.875Q34.4375 -7.5 28.5625 4.625Q38.0625 -3.375 55.3125 -19.0625Q56.0 -19.625 56.6875 -19.625Q58.625 -19.625 58.625 -13.6875Q58.625 -11.9375 58.0 -11.375Q39.3125 3.0 22.8125 20.75Z" fill="#33394E" transform="translate(341.44 0)"/><path d="M12.671999999999999 0.34559999999999996Q7.8336 0.34559999999999996 4.972799999999999 -2.0351999999999997Q2.1119999999999997 -4.4159999999999995 1.6127999999999998 -8.831999999999999H4.684799999999999Q5.1072 -5.644799999999999 7.103999999999999 -4.031999999999999Q9.1008 -2.4191999999999996 12.6336 -2.4191999999999996Q15.628799999999998 -2.4191999999999996 17.145599999999998 -3.5519999999999996Q18.662399999999998 -4.684799999999999 18.662399999999998 -6.8736Q18.662399999999998 -8.755199999999999 17.6256 -9.868799999999998Q16.5888 -10.982399999999998 14.399999999999999 -11.712L9.753599999999999 -13.324799999999998Q6.2208 -14.5536 4.5312 -16.3008Q2.8415999999999997 -18.048 2.8415999999999997 -20.735999999999997Q2.8415999999999997 -22.963199999999997 3.9551999999999996 -24.5952Q5.0687999999999995 -26.227199999999996 7.103999999999999 -27.148799999999994Q9.139199999999999 -28.070399999999996 11.8272 -28.070399999999996Q15.9744 -28.070399999999996 18.470399999999998 -25.900799999999997Q20.966399999999997 -23.731199999999998 21.350399999999997 -19.737599999999997H18.278399999999998Q17.7792 -22.6176 16.224 -23.961599999999997Q14.6688 -25.3056 11.750399999999999 -25.3056Q8.9856 -25.3056 7.4496 -24.192Q5.9136 -23.0784 5.9136 -21.0432Q5.9136 -19.315199999999997 6.9887999999999995 -18.278399999999998Q8.064 -17.2416 10.3296 -16.473599999999998L15.283199999999999 -14.7456Q18.508799999999997 -13.632 20.121599999999997 -11.7312Q21.734399999999997 -9.8304 21.734399999999997 -6.911999999999999Q21.734399999999997 -3.4559999999999995 19.372799999999998 -1.5551999999999997Q17.0112 0.34559999999999996 12.671999999999999 0.34559999999999996Z M83.00737999999998 0.0V-24.8832H73.52257999999999V-27.647999999999996H95.64097999999998V-24.8832H86.15617999999998V0.0Z M159.71715999999998 0.38399999999999995Q154.72515999999996 0.38399999999999995 151.94115999999997 -2.6687999999999996Q149.15715999999998 -5.7216 149.15715999999998 -11.2128V-27.647999999999996H152.30595999999997V-11.059199999999999Q152.30595999999997 -6.911999999999999 154.22596 -4.684799999999999Q156.14595999999997 -2.4576 159.71715999999998 -2.4576Q163.36515999999997 -2.4576 165.28515999999996 -4.6655999999999995Q167.20515999999998 -6.8736 167.20515999999998 -11.059199999999999V-27.647999999999996H170.35395999999997V-11.174399999999999Q170.35395999999997 -5.7216 167.55075999999997 -2.6687999999999996Q164.74755999999996 0.38399999999999995 159.71715999999998 0.38399999999999995Z M228.32453999999996 0.0V-2.7647999999999997H235.73573999999996Q239.19173999999995 -2.7647999999999997 241.68773999999996 -4.166399999999999Q244.18373999999994 -5.568 245.52773999999994 -8.1024Q246.87173999999996 -10.6368 246.87173999999996 -13.977599999999999Q246.87173999999996 -17.279999999999998 245.52773999999994 -19.7376Q244.18373999999994 -22.1952 241.70693999999995 -23.5392Q239.23013999999995 -24.8832 235.73573999999996 -24.8832H228.32453999999996V-27.647999999999996H235.73573999999996Q240.07493999999997 -27.647999999999996 243.30053999999996 -25.9392Q246.52613999999994 -24.2304 248.31173999999993 -21.1392Q250.09733999999995 -18.048 250.09733999999995 -13.900799999999998Q250.09733999999995 -9.753599999999999 248.29253999999995 -6.623999999999999Q246.48773999999995 -3.4943999999999997 243.28133999999994 -1.7471999999999999Q240.07493999999997 0.0 235.77413999999996 0.0ZM226.44293999999996 0.0V-27.647999999999996H229.59173999999996V0.0Z M305.0343199999999 0.0V-27.647999999999996H308.1831199999999V0.0Z M376.2913 0.38399999999999995Q373.4113 0.38399999999999995 371.0113 -0.6719999999999999Q368.61129999999997 -1.7279999999999998 366.84489999999994 -3.6672Q365.07849999999996 -5.6064 364.09929999999997 -8.2176Q363.1201 -10.8288 363.1201 -13.9392Q363.1201 -18.048 364.80969999999996 -21.2352Q366.49929999999995 -24.422399999999996 369.47529999999995 -26.227199999999996Q372.45129999999995 -28.031999999999996 376.25289999999995 -28.031999999999996Q380.13129999999995 -28.031999999999996 383.10729999999995 -26.227199999999996Q386.08329999999995 -24.422399999999996 387.77289999999994 -21.2352Q389.4625 -18.048 389.4625 -13.900799999999998Q389.4625 -10.790399999999998 388.4833 -8.179199999999998Q387.50409999999994 -5.568 385.73769999999996 -3.6479999999999997Q383.9713 -1.7279999999999998 381.5521 -0.6719999999999999Q379.13289999999995 0.38399999999999995 376.2913 0.38399999999999995ZM376.25289999999995 -2.4576Q379.20969999999994 -2.4576 381.4561 -3.936Q383.7025 -5.4144 384.9697 -8.025599999999999Q386.2369 -10.6368 386.2369 -13.977599999999999Q386.2369 -17.279999999999998 384.98889999999994 -19.8144Q383.74089999999995 -22.348799999999997 381.49449999999996 -23.769599999999997Q379.24809999999997 -25.190399999999997 376.25289999999995 -25.190399999999997Q373.25769999999994 -25.190399999999997 371.03049999999996 -23.769599999999997Q368.8033 -22.348799999999997 367.57449999999994 -19.833599999999997Q366.34569999999997 -17.318399999999997 366.34569999999997 -13.977599999999999Q366.34569999999997 -10.5984 367.59369999999996 -8.0064Q368.84169999999995 -5.4144 371.0689 -3.936Q373.29609999999997 -2.4576 376.25289999999995 -2.4576Z" fill="#6B6F80" transform="translate(0 81.92)"/></g></g><rect x="355.24" y="424.45" width="112.78" height="8" rx="4.0" fill="#FF9A56"/><rect x="480.82" y="424.45" width="112.78" height="8" rx="4.0" fill="#FFD36C"/><rect x="606.40" y="424.45" width="112.78" height="8" rx="4.0" fill="#C92C6B"/><rect x="731.98" y="424.45" width="112.78" height="8" rx="4.0" fill="#7BD1E6"/><path d="M2.835 0.0V-1.512H6.888000000000001Q8.778 -1.512 10.143 -2.2785Q11.508000000000001 -3.0450000000000004 12.243000000000002 -4.431Q12.978000000000002 -5.817 12.978000000000002 -7.644Q12.978000000000002 -9.450000000000001 12.243000000000002 -10.794Q11.508000000000001 -12.138 10.153500000000001 -12.873000000000001Q8.799000000000001 -13.608 6.888000000000001 -13.608H2.835V-15.120000000000001H6.888000000000001Q9.261000000000001 -15.120000000000001 11.025000000000002 -14.185500000000001Q12.789000000000001 -13.251000000000001 13.765500000000001 -11.560500000000001Q14.742 -9.870000000000001 14.742 -7.602Q14.742 -5.3340000000000005 13.755 -3.6225000000000005Q12.768 -1.911 11.014500000000002 -0.9555Q9.261000000000001 0.0 6.909000000000001 0.0ZM1.806 0.0V-15.120000000000001H3.528V0.0Z M22.218000000000004 0.0V-15.120000000000001H23.94V0.0ZM23.1 0.0V-1.512H32.34V0.0ZM23.1 -7.119000000000001V-8.631H31.584000000000003V-7.119000000000001ZM23.1 -13.608V-15.120000000000001H32.172000000000004V-13.608Z M44.457 0.189Q41.811 0.189 40.2465 -1.113Q38.682 -2.415 38.409 -4.83H40.089Q40.32 -3.087 41.412000000000006 -2.205Q42.504000000000005 -1.3230000000000002 44.436 -1.3230000000000002Q46.074 -1.3230000000000002 46.9035 -1.9425000000000003Q47.733000000000004 -2.5620000000000003 47.733000000000004 -3.7590000000000003Q47.733000000000004 -4.788 47.166000000000004 -5.397Q46.599000000000004 -6.006 45.402 -6.405L42.861000000000004 -7.287000000000001Q40.929 -7.9590000000000005 40.005 -8.9145Q39.081 -9.870000000000001 39.081 -11.34Q39.081 -12.558000000000002 39.69 -13.450500000000002Q40.299 -14.343000000000002 41.412 -14.847000000000001Q42.525 -15.351 43.995000000000005 -15.351Q46.263000000000005 -15.351 47.628 -14.1645Q48.993 -12.978000000000002 49.203 -10.794H47.523Q47.25 -12.369000000000002 46.3995 -13.104000000000001Q45.549 -13.839 43.953 -13.839Q42.441 -13.839 41.601 -13.23Q40.761 -12.621 40.761 -11.508000000000001Q40.761 -10.563 41.349000000000004 -9.996Q41.937 -9.429 43.176 -9.009L45.885000000000005 -8.064Q47.649 -7.455 48.531000000000006 -6.4155Q49.413000000000004 -5.376 49.413000000000004 -3.7800000000000002Q49.413000000000004 -1.8900000000000001 48.1215 -0.8505Q46.83 0.189 44.457 0.189Z M56.721 0.0V-15.120000000000001H58.443V0.0Z M73.479 0.21000000000000002Q71.169 0.21000000000000002 69.46799999999999 -0.7350000000000001Q67.767 -1.6800000000000002 66.84299999999999 -3.3915000000000006Q65.919 -5.103000000000001 65.919 -7.434Q65.919 -9.765 66.8325 -11.5395Q67.746 -13.314 69.3735 -14.322Q71.001 -15.33 73.122 -15.33Q74.781 -15.33 76.13550000000001 -14.7Q77.49 -14.07 78.3615 -12.957Q79.233 -11.844000000000001 79.422 -10.374H77.7Q77.49 -11.928 76.2615 -12.852Q75.033 -13.776000000000002 73.185 -13.776000000000002Q71.526 -13.776000000000002 70.287 -12.988500000000002Q69.048 -12.201 68.3655 -10.794Q67.68299999999999 -9.387 67.68299999999999 -7.476000000000001Q67.68299999999999 -5.565 68.3865 -4.189500000000001Q69.09 -2.814 70.4235 -2.079Q71.757 -1.344 73.626 -1.344Q74.907 -1.344 75.91499999999999 -1.7115Q76.923 -2.079 77.742 -2.8560000000000003L79.464 -2.226Q78.309 -1.008 76.8075 -0.399Q75.306 0.21000000000000002 73.479 0.21000000000000002ZM77.742 -2.226V-7.119000000000001L78.393 -6.468H73.605V-7.98H79.464V-2.226Z M87.36 0.0V-15.120000000000001H89.145L97.818 -2.394L97.566 -2.3520000000000003V-15.120000000000001H99.20400000000001V0.0H97.419L88.74600000000001 -12.726L88.998 -12.768V0.0Z M121.38000000000002 0.189Q118.73400000000002 0.189 117.16950000000003 -1.113Q115.60500000000002 -2.415 115.33200000000002 -4.83H117.01200000000001Q117.24300000000002 -3.087 118.33500000000002 -2.205Q119.42700000000002 -1.3230000000000002 121.35900000000002 -1.3230000000000002Q122.99700000000001 -1.3230000000000002 123.82650000000001 -1.9425000000000003Q124.65600000000002 -2.5620000000000003 124.65600000000002 -3.7590000000000003Q124.65600000000002 -4.788 124.08900000000003 -5.397Q123.52200000000002 -6.006 122.32500000000002 -6.405L119.78400000000002 -7.287000000000001Q117.85200000000002 -7.9590000000000005 116.92800000000003 -8.9145Q116.00400000000002 -9.870000000000001 116.00400000000002 -11.34Q116.00400000000002 -12.558000000000002 116.61300000000003 -13.450500000000002Q117.22200000000002 -14.343000000000002 118.33500000000002 -14.847000000000001Q119.44800000000002 -15.351 120.91800000000002 -15.351Q123.18600000000002 -15.351 124.55100000000002 -14.1645Q125.91600000000003 -12.978000000000002 126.12600000000002 -10.794H124.44600000000001Q124.17300000000002 -12.369000000000002 123.32250000000002 -13.104000000000001Q122.47200000000002 -13.839 120.87600000000002 -13.839Q119.36400000000002 -13.839 118.52400000000002 -13.23Q117.68400000000001 -12.621 117.68400000000001 -11.508000000000001Q117.68400000000001 -10.563 118.27200000000002 -9.996Q118.86000000000001 -9.429 120.09900000000002 -9.009L122.80800000000002 -8.064Q124.57200000000002 -7.455 125.45400000000001 -6.4155Q126.33600000000001 -5.376 126.33600000000001 -3.7800000000000002Q126.33600000000001 -1.8900000000000001 125.04450000000001 -0.8505Q123.75300000000001 0.189 121.38000000000002 0.189Z M137.27700000000002 0.0V-6.846L131.544 -15.120000000000001H133.64400000000003L138.621 -7.854H137.823L142.8 -15.120000000000001H144.73200000000003L138.99900000000002 -6.846V0.0Z M155.92500000000004 0.189Q153.27900000000002 0.189 151.71450000000004 -1.113Q150.15000000000003 -2.415 149.87700000000004 -4.83H151.55700000000004Q151.78800000000004 -3.087 152.88000000000005 -2.205Q153.97200000000004 -1.3230000000000002 155.90400000000002 -1.3230000000000002Q157.54200000000003 -1.3230000000000002 158.37150000000003 -1.9425000000000003Q159.20100000000002 -2.5620000000000003 159.20100000000002 -3.7590000000000003Q159.20100000000002 -4.788 158.63400000000001 -5.397Q158.06700000000004 -6.006 156.87000000000003 -6.405L154.32900000000004 -7.287000000000001Q152.39700000000002 -7.9590000000000005 151.473 -8.9145Q150.54900000000004 -9.870000000000001 150.54900000000004 -11.34Q150.54900000000004 -12.558000000000002 151.15800000000002 -13.450500000000002Q151.76700000000002 -14.343000000000002 152.88000000000002 -14.847000000000001Q153.99300000000002 -15.351 155.46300000000002 -15.351Q157.73100000000002 -15.351 159.09600000000003 -14.1645Q160.46100000000004 -12.978000000000002 160.67100000000002 -10.794H158.99100000000004Q158.71800000000005 -12.369000000000002 157.86750000000004 -13.104000000000001Q157.01700000000002 -13.839 155.42100000000002 -13.839Q153.90900000000002 -13.839 153.06900000000002 -13.23Q152.22900000000004 -12.621 152.22900000000004 -11.508000000000001Q152.22900000000004 -10.563 152.81700000000004 -9.996Q153.40500000000003 -9.429 154.64400000000003 -9.009L157.35300000000004 -8.064Q159.11700000000002 -7.455 159.99900000000002 -6.4155Q160.88100000000003 -5.376 160.88100000000003 -3.7800000000000002Q160.88100000000003 -1.8900000000000001 159.58950000000004 -0.8505Q158.29800000000003 0.189 155.92500000000004 0.189Z M171.82200000000006 0.0V-13.608H166.63500000000005V-15.120000000000001H178.73100000000005V-13.608H173.54400000000004V0.0Z M185.91300000000007 0.0V-15.120000000000001H187.63500000000005V0.0ZM186.79500000000004 0.0V-1.512H196.03500000000005V0.0ZM186.79500000000004 -7.119000000000001V-8.631H195.27900000000005V-7.119000000000001ZM186.79500000000004 -13.608V-15.120000000000001H195.86700000000005V-13.608Z M203.93100000000007 0.0V-15.120000000000001H206.57700000000006L212.03700000000006 -0.546H211.23900000000006L216.65700000000007 -15.120000000000001H219.34500000000006V0.0H217.64400000000006V-14.217H217.87500000000006L212.60400000000007 0.0H210.54600000000005L205.27500000000006 -14.091000000000001H205.50600000000006V0.0Z M232.70100000000008 0.189Q230.05500000000006 0.189 228.49050000000005 -1.113Q226.92600000000007 -2.415 226.65300000000008 -4.83H228.33300000000008Q228.56400000000008 -3.087 229.65600000000006 -2.205Q230.74800000000008 -1.3230000000000002 232.68000000000006 -1.3230000000000002Q234.31800000000007 -1.3230000000000002 235.14750000000006 -1.9425000000000003Q235.97700000000006 -2.5620000000000003 235.97700000000006 -3.7590000000000003Q235.97700000000006 -4.788 235.41000000000008 -5.397Q234.84300000000007 -6.006 233.64600000000007 -6.405L231.10500000000008 -7.287000000000001Q229.17300000000006 -7.9590000000000005 228.24900000000008 -8.9145Q227.32500000000007 -9.870000000000001 227.32500000000007 -11.34Q227.32500000000007 -12.558000000000002 227.93400000000008 -13.450500000000002Q228.54300000000006 -14.343000000000002 229.65600000000006 -14.847000000000001Q230.76900000000006 -15.351 232.23900000000006 -15.351Q234.50700000000006 -15.351 235.87200000000007 -14.1645Q237.23700000000008 -12.978000000000002 237.44700000000006 -10.794H235.76700000000008Q235.49400000000009 -12.369000000000002 234.64350000000007 -13.104000000000001Q233.79300000000006 -13.839 232.19700000000006 -13.839Q230.68500000000006 -13.839 229.84500000000008 -13.23Q229.00500000000008 -12.621 229.00500000000008 -11.508000000000001Q229.00500000000008 -10.563 229.59300000000007 -9.996Q230.18100000000007 -9.429 231.42000000000007 -9.009L234.12900000000008 -8.064Q235.8930000000001 -7.455 236.7750000000001 -6.4155Q237.65700000000007 -5.376 237.65700000000007 -3.7800000000000002Q237.65700000000007 -1.8900000000000001 236.36550000000005 -0.8505Q235.07400000000007 0.189 232.70100000000008 0.189Z M251.97900000000007 -7.035V-9.198H254.14200000000005V-7.035Z M269.38800000000003 0.0V-15.120000000000001H271.11000000000007V0.0ZM270.27000000000004 -6.489000000000001V-8.001000000000001H278.41800000000006V-6.489000000000001ZM270.27000000000004 -13.608V-15.120000000000001H279.00600000000003V-13.608Z M286.083 0.0V-15.120000000000001H291.66900000000004Q293.28600000000006 -15.120000000000001 294.4200000000001 -14.595Q295.55400000000003 -14.07 296.15250000000003 -13.1355Q296.75100000000003 -12.201 296.75100000000003 -10.92Q296.75100000000003 -9.639000000000001 296.15250000000003 -8.6835Q295.55400000000003 -7.728000000000001 294.4200000000001 -7.192500000000001Q293.28600000000006 -6.657 291.66900000000004 -6.657H287.343V-8.169H291.60600000000005Q293.28600000000006 -8.169 294.1575 -8.904Q295.02900000000005 -9.639000000000001 295.02900000000005 -10.92Q295.02900000000005 -12.180000000000001 294.168 -12.894000000000002Q293.307 -13.608 291.60600000000005 -13.608H287.80500000000006V0.0ZM294.94500000000005 0.0 286.90200000000004 -7.497000000000001H289.254L297.54900000000004 0.0Z M310.737 0.21000000000000002Q309.16200000000003 0.21000000000000002 307.84950000000003 -0.36750000000000005Q306.53700000000003 -0.9450000000000001 305.571 -2.0055Q304.605 -3.0660000000000003 304.06950000000006 -4.494000000000001Q303.53400000000005 -5.922000000000001 303.53400000000005 -7.623Q303.53400000000005 -9.870000000000001 304.4580000000001 -11.613000000000001Q305.38200000000006 -13.356000000000002 307.00950000000006 -14.343Q308.63700000000006 -15.33 310.71600000000007 -15.33Q312.83700000000005 -15.33 314.46450000000004 -14.343Q316.09200000000004 -13.356000000000002 317.0160000000001 -11.613000000000001Q317.94000000000005 -9.870000000000001 317.94000000000005 -7.602Q317.94000000000005 -5.901000000000001 317.40450000000004 -4.473000000000001Q316.869 -3.0450000000000004 315.903 -1.995Q314.937 -0.9450000000000001 313.61400000000003 -0.36750000000000005Q312.29100000000005 0.21000000000000002 310.737 0.21000000000000002ZM310.71600000000007 -1.344Q312.333 -1.344 313.5615 -2.1525000000000003Q314.79 -2.9610000000000003 315.48300000000006 -4.389Q316.17600000000004 -5.817 316.17600000000004 -7.644Q316.17600000000004 -9.450000000000001 315.49350000000004 -10.836000000000002Q314.81100000000004 -12.222000000000001 313.58250000000004 -12.999000000000002Q312.35400000000004 -13.776000000000002 310.71600000000007 -13.776000000000002Q309.07800000000003 -13.776000000000002 307.86 -12.999000000000002Q306.64200000000005 -12.222000000000001 305.97 -10.8465Q305.29800000000006 -9.471 305.29800000000006 -7.644Q305.29800000000006 -5.796 305.9805 -4.378500000000001Q306.663 -2.9610000000000003 307.88100000000003 -2.1525000000000003Q309.09900000000005 -1.344 310.71600000000007 -1.344Z M325.416 0.0V-15.120000000000001H327.201L335.874 -2.394L335.622 -2.3520000000000003V-15.120000000000001H337.26V0.0H335.475L326.802 -12.726L327.05400000000003 -12.768V0.0Z M349.629 0.0V-13.608H344.442V-15.120000000000001H356.538V-13.608H351.35100000000006V0.0Z M360.15000000000003 -4.914000000000001V-6.510000000000001H367.41600000000005V-4.914000000000001Z M375.522 0.0V-15.120000000000001H377.244V0.0ZM376.404 0.0V-1.512H385.644V0.0ZM376.404 -7.119000000000001V-8.631H384.88800000000003V-7.119000000000001ZM376.404 -13.608V-15.120000000000001H385.476V-13.608Z M393.54 0.0V-15.120000000000001H395.32500000000005L403.99800000000005 -2.394L403.74600000000004 -2.3520000000000003V-15.120000000000001H405.384V0.0H403.59900000000005L394.92600000000004 -12.726L395.17800000000005 -12.768V0.0Z M414.64500000000004 0.0V-1.512H418.69800000000004Q420.5880000000001 -1.512 421.9530000000001 -2.2785Q423.31800000000004 -3.0450000000000004 424.05300000000005 -4.431Q424.78800000000007 -5.817 424.78800000000007 -7.644Q424.78800000000007 -9.450000000000001 424.05300000000005 -10.794Q423.31800000000004 -12.138 421.96350000000007 -12.873000000000001Q420.60900000000004 -13.608 418.69800000000004 -13.608H414.64500000000004V-15.120000000000001H418.69800000000004Q421.0710000000001 -15.120000000000001 422.83500000000004 -14.185500000000001Q424.59900000000005 -13.251000000000001 425.57550000000003 -11.560500000000001Q426.5520000000001 -9.870000000000001 426.5520000000001 -7.602Q426.5520000000001 -5.3340000000000005 425.56500000000005 -3.6225000000000005Q424.5780000000001 -1.911 422.82450000000006 -0.9555Q421.0710000000001 0.0 418.71900000000005 0.0ZM413.61600000000004 0.0V-15.120000000000001H415.3380000000001V0.0Z M441.79800000000006 0.0 447.6360000000001 -15.120000000000001H449.1480000000001L443.4570000000001 0.0ZM453.81000000000006 0.0 448.1190000000001 -15.120000000000001H449.7360000000001L455.57400000000007 0.0ZM444.6960000000001 -6.111000000000001H452.5920000000001V-4.599H444.6960000000001Z M462.33600000000007 0.0V-15.120000000000001H467.9220000000001Q469.5390000000001 -15.120000000000001 470.6730000000001 -14.595Q471.8070000000001 -14.07 472.4055000000001 -13.1355Q473.0040000000001 -12.201 473.0040000000001 -10.92Q473.0040000000001 -9.639000000000001 472.4055000000001 -8.6835Q471.8070000000001 -7.728000000000001 470.6730000000001 -7.192500000000001Q469.5390000000001 -6.657 467.9220000000001 -6.657H463.59600000000006V-8.169H467.8590000000001Q469.5390000000001 -8.169 470.41050000000007 -8.904Q471.2820000000001 -9.639000000000001 471.2820000000001 -10.92Q471.2820000000001 -12.180000000000001 470.42100000000005 -12.894000000000002Q469.56000000000006 -13.608 467.8590000000001 -13.608H464.0580000000001V0.0ZM471.1980000000001 0.0 463.1550000000001 -7.497000000000001H465.50700000000006L473.8020000000001 0.0Z M486.9480000000001 0.21000000000000002Q485.39400000000006 0.21000000000000002 484.08150000000006 -0.36750000000000005Q482.76900000000006 -0.9450000000000001 481.8030000000001 -1.9845000000000002Q480.8370000000001 -3.024 480.3120000000001 -4.4415Q479.7870000000001 -5.859 479.7870000000001 -7.5600000000000005Q479.7870000000001 -9.261000000000001 480.3120000000001 -10.6785Q480.8370000000001 -12.096 481.79250000000013 -13.1355Q482.7480000000001 -14.175 484.0605000000001 -14.752500000000001Q485.3730000000001 -15.33 486.9270000000001 -15.33Q488.6280000000001 -15.33 489.9825000000001 -14.637Q491.3370000000001 -13.944 492.2085000000001 -12.684000000000001Q493.0800000000001 -11.424000000000001 493.2900000000001 -9.744H491.5680000000001Q491.3160000000001 -11.613000000000001 490.0875000000001 -12.694500000000001Q488.8590000000001 -13.776000000000002 486.9480000000001 -13.776000000000002Q485.3310000000001 -13.776000000000002 484.11300000000006 -12.988500000000002Q482.8950000000001 -12.201 482.22300000000007 -10.8045Q481.5510000000001 -9.408000000000001 481.5510000000001 -7.5600000000000005Q481.5510000000001 -5.712000000000001 482.22300000000007 -4.3155Q482.8950000000001 -2.919 484.11300000000006 -2.1315Q485.3310000000001 -1.344 486.9270000000001 -1.344Q488.8800000000001 -1.344 490.1295000000001 -2.436Q491.3790000000001 -3.528 491.61000000000007 -5.376H493.3320000000001Q493.12200000000007 -3.696 492.2505000000001 -2.436Q491.3790000000001 -1.1760000000000002 490.0245000000001 -0.4830000000000001Q488.6700000000001 0.21000000000000002 486.9480000000001 0.21000000000000002Z M500.72400000000005 0.0V-15.120000000000001H502.4460000000001V0.0ZM510.84600000000006 0.0V-15.120000000000001H512.5680000000001V0.0ZM501.60600000000005 -8.631H511.6020000000001V-7.119000000000001H501.60600000000005Z M520.8000000000001 0.0V-15.120000000000001H522.522V0.0Z M534.891 0.0V-13.608H529.704V-15.120000000000001H541.8V-13.608H536.6129999999999V0.0Z M548.982 0.0V-15.120000000000001H550.704V0.0ZM549.8639999999999 0.0V-1.512H559.1039999999999V0.0ZM549.8639999999999 -7.119000000000001V-8.631H558.348V-7.119000000000001ZM549.8639999999999 -13.608V-15.120000000000001H558.9359999999999V-13.608Z M572.544 0.21000000000000002Q570.99 0.21000000000000002 569.6775 -0.36750000000000005Q568.365 -0.9450000000000001 567.399 -1.9845000000000002Q566.433 -3.024 565.9079999999999 -4.4415Q565.3829999999999 -5.859 565.3829999999999 -7.5600000000000005Q565.3829999999999 -9.261000000000001 565.9079999999999 -10.6785Q566.433 -12.096 567.3885 -13.1355Q568.3439999999999 -14.175 569.6564999999999 -14.752500000000001Q570.9689999999999 -15.33 572.523 -15.33Q574.2239999999999 -15.33 575.5785 -14.637Q576.933 -13.944 577.8045 -12.684000000000001Q578.6759999999999 -11.424000000000001 578.886 -9.744H577.164Q576.9119999999999 -11.613000000000001 575.6834999999999 -12.694500000000001Q574.4549999999999 -13.776000000000002 572.544 -13.776000000000002Q570.927 -13.776000000000002 569.7090000000001 -12.988500000000002Q568.491 -12.201 567.819 -10.8045Q567.1469999999999 -9.408000000000001 567.1469999999999 -7.5600000000000005Q567.1469999999999 -5.712000000000001 567.819 -4.3155Q568.491 -2.919 569.7090000000001 -2.1315Q570.927 -1.344 572.523 -1.344Q574.476 -1.344 575.7255 -2.436Q576.975 -3.528 577.206 -5.376H578.928Q578.718 -3.696 577.8465 -2.436Q576.975 -1.1760000000000002 575.6205 -0.4830000000000001Q574.266 0.21000000000000002 572.544 0.21000000000000002Z M589.4699999999999 0.0V-13.608H584.2829999999999V-15.120000000000001H596.3789999999999V-13.608H591.1919999999999V0.0Z M608.853 0.21000000000000002Q606.1229999999999 0.21000000000000002 604.6004999999999 -1.4595Q603.0779999999999 -3.129 603.0779999999999 -6.132000000000001V-15.120000000000001H604.8V-6.048Q604.8 -3.7800000000000002 605.8499999999999 -2.5620000000000003Q606.8999999999999 -1.344 608.853 -1.344Q610.848 -1.344 611.8979999999999 -2.5515000000000003Q612.9479999999999 -3.7590000000000003 612.9479999999999 -6.048V-15.120000000000001H614.67V-6.111000000000001Q614.67 -3.129 613.137 -1.4595Q611.6039999999999 0.21000000000000002 608.853 0.21000000000000002Z M622.545 0.0V-15.120000000000001H628.131Q629.7479999999999 -15.120000000000001 630.882 -14.595Q632.016 -14.07 632.6144999999999 -13.1355Q633.213 -12.201 633.213 -10.92Q633.213 -9.639000000000001 632.6144999999999 -8.6835Q632.016 -7.728000000000001 630.882 -7.192500000000001Q629.7479999999999 -6.657 628.131 -6.657H623.805V-8.169H628.0679999999999Q629.7479999999999 -8.169 630.6194999999999 -8.904Q631.4909999999999 -9.639000000000001 631.4909999999999 -10.92Q631.4909999999999 -12.180000000000001 630.6299999999999 -12.894000000000002Q629.7689999999999 -13.608 628.0679999999999 -13.608H624.2669999999999V0.0ZM631.4069999999999 0.0 623.3639999999999 -7.497000000000001H625.7159999999999L634.011 0.0Z M640.9409999999999 0.0V-15.120000000000001H642.6629999999999V0.0ZM641.8229999999999 0.0V-1.512H651.0629999999999V0.0ZM641.8229999999999 -7.119000000000001V-8.631H650.3069999999999V-7.119000000000001ZM641.8229999999999 -13.608V-15.120000000000001H650.8949999999999V-13.608Z M665.973 -7.035V-9.198H668.136V-7.035Z M682.332 0.0 688.1700000000001 -15.120000000000001H689.682L683.991 0.0ZM694.344 0.0 688.653 -15.120000000000001H690.27L696.1080000000001 0.0ZM685.23 -6.111000000000001H693.126V-4.599H685.23Z M708.8760000000001 0.21000000000000002Q707.3220000000001 0.21000000000000002 706.0095000000001 -0.36750000000000005Q704.6970000000001 -0.9450000000000001 703.7310000000001 -1.9845000000000002Q702.7650000000001 -3.024 702.24 -4.4415Q701.715 -5.859 701.715 -7.5600000000000005Q701.715 -9.261000000000001 702.24 -10.6785Q702.7650000000001 -12.096 703.7205000000001 -13.1355Q704.676 -14.175 705.9885 -14.752500000000001Q707.301 -15.33 708.8550000000001 -15.33Q710.556 -15.33 711.9105000000001 -14.637Q713.2650000000001 -13.944 714.1365000000001 -12.684000000000001Q715.008 -11.424000000000001 715.2180000000001 -9.744H713.4960000000001Q713.244 -11.613000000000001 712.0155 -12.694500000000001Q710.787 -13.776000000000002 708.8760000000001 -13.776000000000002Q707.2590000000001 -13.776000000000002 706.0410000000002 -12.988500000000002Q704.8230000000001 -12.201 704.1510000000001 -10.8045Q703.479 -9.408000000000001 703.479 -7.5600000000000005Q703.479 -5.712000000000001 704.1510000000001 -4.3155Q704.8230000000001 -2.919 706.0410000000002 -2.1315Q707.2590000000001 -1.344 708.8550000000001 -1.344Q710.8080000000001 -1.344 712.0575000000001 -2.436Q713.3070000000001 -3.528 713.5380000000001 -5.376H715.2600000000001Q715.0500000000001 -3.696 714.1785000000001 -2.436Q713.3070000000001 -1.1760000000000002 711.9525000000001 -0.4830000000000001Q710.5980000000001 0.21000000000000002 708.8760000000001 0.21000000000000002Z M728.931 0.21000000000000002Q727.3770000000001 0.21000000000000002 726.0645000000001 -0.36750000000000005Q724.7520000000001 -0.9450000000000001 723.7860000000001 -1.9845000000000002Q722.82 -3.024 722.2950000000001 -4.4415Q721.77 -5.859 721.77 -7.5600000000000005Q721.77 -9.261000000000001 722.2950000000001 -10.6785Q722.82 -12.096 723.7755 -13.1355Q724.731 -14.175 726.0435 -14.752500000000001Q727.356 -15.33 728.9100000000001 -15.33Q730.611 -15.33 731.9655 -14.637Q733.32 -13.944 734.1915 -12.684000000000001Q735.063 -11.424000000000001 735.273 -9.744H733.551Q733.299 -11.613000000000001 732.0705 -12.694500000000001Q730.842 -13.776000000000002 728.931 -13.776000000000002Q727.3140000000001 -13.776000000000002 726.096 -12.988500000000002Q724.878 -12.201 724.206 -10.8045Q723.534 -9.408000000000001 723.534 -7.5600000000000005Q723.534 -5.712000000000001 724.206 -4.3155Q724.878 -2.919 726.096 -2.1315Q727.3140000000001 -1.344 728.9100000000001 -1.344Q730.863 -1.344 732.1125000000001 -2.436Q733.3620000000001 -3.528 733.5930000000001 -5.376H735.315Q735.105 -3.696 734.2335 -2.436Q733.3620000000001 -1.1760000000000002 732.0075 -0.4830000000000001Q730.653 0.21000000000000002 728.931 0.21000000000000002Z M742.7070000000001 0.0V-15.120000000000001H744.4290000000001V0.0ZM743.589 0.0V-1.512H752.8290000000001V0.0ZM743.589 -7.119000000000001V-8.631H752.0730000000001V-7.119000000000001ZM743.589 -13.608V-15.120000000000001H752.6610000000001V-13.608Z M764.946 0.189Q762.3000000000001 0.189 760.7355 -1.113Q759.171 -2.415 758.898 -4.83H760.5780000000001Q760.8090000000001 -3.087 761.9010000000001 -2.205Q762.993 -1.3230000000000002 764.9250000000001 -1.3230000000000002Q766.5630000000001 -1.3230000000000002 767.3925000000002 -1.9425000000000003Q768.2220000000001 -2.5620000000000003 768.2220000000001 -3.7590000000000003Q768.2220000000001 -4.788 767.6550000000001 -5.397Q767.0880000000001 -6.006 765.8910000000001 -6.405L763.35 -7.287000000000001Q761.4180000000001 -7.9590000000000005 760.4940000000001 -8.9145Q759.57 -9.870000000000001 759.57 -11.34Q759.57 -12.558000000000002 760.1790000000001 -13.450500000000002Q760.7880000000001 -14.343000000000002 761.9010000000001 -14.847000000000001Q763.0140000000001 -15.351 764.484 -15.351Q766.7520000000001 -15.351 768.1170000000001 -14.1645Q769.4820000000001 -12.978000000000002 769.6920000000001 -10.794H768.0120000000001Q767.739 -12.369000000000002 766.8885 -13.104000000000001Q766.0380000000001 -13.839 764.4420000000001 -13.839Q762.9300000000001 -13.839 762.0900000000001 -13.23Q761.2500000000001 -12.621 761.2500000000001 -11.508000000000001Q761.2500000000001 -10.563 761.8380000000001 -9.996Q762.426 -9.429 763.6650000000001 -9.009L766.374 -8.064Q768.138 -7.455 769.02 -6.4155Q769.902 -5.376 769.902 -3.7800000000000002Q769.902 -1.8900000000000001 768.6105 -0.8505Q767.3190000000001 0.189 764.946 0.189Z M782.3340000000001 0.189Q779.6880000000001 0.189 778.1235000000001 -1.113Q776.5590000000001 -2.415 776.2860000000001 -4.83H777.9660000000001Q778.1970000000001 -3.087 779.2890000000001 -2.205Q780.3810000000001 -1.3230000000000002 782.3130000000001 -1.3230000000000002Q783.9510000000001 -1.3230000000000002 784.7805000000001 -1.9425000000000003Q785.6100000000001 -2.5620000000000003 785.6100000000001 -3.7590000000000003Q785.6100000000001 -4.788 785.0430000000001 -5.397Q784.4760000000001 -6.006 783.2790000000001 -6.405L780.738 -7.287000000000001Q778.8060000000002 -7.9590000000000005 777.8820000000001 -8.9145Q776.9580000000001 -9.870000000000001 776.9580000000001 -11.34Q776.9580000000001 -12.558000000000002 777.5670000000001 -13.450500000000002Q778.1760000000002 -14.343000000000002 779.2890000000002 -14.847000000000001Q780.4020000000002 -15.351 781.8720000000001 -15.351Q784.1400000000001 -15.351 785.5050000000001 -14.1645Q786.8700000000001 -12.978000000000002 787.0800000000002 -10.794H785.4000000000001Q785.1270000000001 -12.369000000000002 784.2765000000002 -13.104000000000001Q783.4260000000002 -13.839 781.8300000000002 -13.839Q780.3180000000001 -13.839 779.4780000000001 -13.23Q778.6380000000001 -12.621 778.6380000000001 -11.508000000000001Q778.6380000000001 -10.563 779.2260000000001 -9.996Q779.8140000000001 -9.429 781.0530000000001 -9.009L783.7620000000001 -8.064Q785.5260000000001 -7.455 786.4080000000001 -6.4155Q787.2900000000001 -5.376 787.2900000000001 -3.7800000000000002Q787.2900000000001 -1.8900000000000001 785.9985000000001 -0.8505Q784.7070000000001 0.189 782.3340000000001 0.189Z M794.5980000000002 0.0V-15.120000000000001H796.3200000000002V0.0Z M805.6860000000001 0.0V-1.4280000000000002H810.5160000000001Q811.902 -1.4280000000000002 812.721 -2.184Q813.5400000000001 -2.9400000000000004 813.5400000000001 -4.221Q813.5400000000001 -5.586 812.6790000000001 -6.405Q811.8180000000001 -7.224 810.3690000000001 -7.224H805.6860000000001V-8.610000000000001H810.1380000000001Q811.5660000000001 -8.610000000000001 812.3640000000001 -9.303Q813.1620000000001 -9.996 813.1620000000001 -11.256Q813.1620000000001 -12.432 812.4165 -13.062000000000001Q811.671 -13.692 810.243 -13.692H805.6860000000001V-15.120000000000001H810.3900000000001Q812.469 -15.120000000000001 813.6765 -14.133000000000001Q814.8840000000001 -13.146 814.8840000000001 -11.445Q814.8840000000001 -10.374 814.4010000000001 -9.534Q813.9180000000001 -8.694 813.0780000000001 -8.2215Q812.238 -7.7490000000000006 811.1460000000001 -7.7490000000000006L811.2510000000001 -8.190000000000001Q812.4060000000001 -8.190000000000001 813.3195000000001 -7.644000000000001Q814.2330000000001 -7.098000000000001 814.7685000000001 -6.163500000000001Q815.3040000000001 -5.229 815.3040000000001 -4.032Q815.3040000000001 -2.835 814.7265000000001 -1.9215Q814.1490000000001 -1.008 813.0990000000002 -0.504Q812.0490000000001 0.0 810.6630000000001 0.0ZM804.5520000000001 0.0V-15.120000000000001H806.2740000000001V0.0Z M822.5280000000001 0.0V-15.120000000000001H824.2500000000001V0.0Z M832.4820000000001 0.0V-15.120000000000001H834.2040000000001V0.0ZM833.364 0.0V-1.512H841.974V0.0Z M849.45 0.0V-15.120000000000001H851.172V0.0Z M863.5409999999999 0.0V-13.608H858.3539999999999V-15.120000000000001H870.4499999999999V-13.608H865.2629999999999V0.0Z M882.0629999999999 0.0V-6.846L876.3299999999999 -15.120000000000001H878.43L883.4069999999999 -7.854H882.6089999999999L887.5859999999999 -15.120000000000001H889.5179999999999L883.7849999999999 -6.846V0.0Z" fill="#6B6F80" transform="translate(154.99 478.00)"/></svg>