<svg xmlns="http://www.w3.org/2000/svg" viewBox="0 0 1600 64"><rect width="1600" height="64" fill="#33394E"/><g transform="translate(572.11 12.00) scale(0.07812)"><path d="M 433.41 375.67 A 214 214 0 0 1 209.68 464.93" fill="none" stroke="#7BD1E6" stroke-width="42" stroke-linecap="butt"/><circle cx="433.41" cy="375.67" r="21.00" fill="#7BD1E6"/><path d="M 188.10 458.94 A 214 214 0 0 1 42.29 267.20" fill="none" stroke="#C92C6B" stroke-width="42" stroke-linecap="butt"/><path d="M 42.29 244.80 A 214 214 0 0 1 188.10 53.06" fill="none" stroke="#FF9A56" stroke-width="42" stroke-linecap="butt"/><path d="M 209.68 47.07 A 214 214 0 0 1 433.41 136.33" fill="none" stroke="#FFD36C" stroke-width="42" stroke-linecap="butt"/><circle cx="433.41" cy="136.33" r="21.00" fill="#FFD36C"/><rect x="374" y="224" width="118" height="64" rx="26" fill="#33394E" stroke="#FBF9F3" stroke-width="16"/><circle cx="256" cy="256" r="150" fill="#33394E" stroke="#FBF9F3" stroke-width="16"/><circle cx="256" cy="256" r="104" fill="#C2B1A6"/></g><path d="M1.8199999999999998 0.0V-0.884H4.81Q5.668 -0.884 6.175 -1.3519999999999999Q6.6819999999999995 -1.8199999999999998 6.6819999999999995 -2.613Q6.6819999999999995 -3.4579999999999997 6.148999999999999 -3.965Q5.616 -4.4719999999999995 4.718999999999999 -4.4719999999999995H1.8199999999999998V-5.33H4.576Q5.46 -5.33 5.954 -5.759Q6.4479999999999995 -6.188 6.4479999999999995 -6.968Q6.4479999999999995 -7.696 5.9864999999999995 -8.085999999999999Q5.5249999999999995 -8.475999999999999 4.641 -8.475999999999999H1.8199999999999998V-9.36H4.732Q6.019 -9.36 6.7665 -8.748999999999999Q7.513999999999999 -8.138 7.513999999999999 -7.085Q7.513999999999999 -6.422 7.215 -5.901999999999999Q6.9159999999999995 -5.382 6.395999999999999 -5.089499999999999Q5.8759999999999994 -4.797 5.2 -4.797L5.265 -5.069999999999999Q5.9799999999999995 -5.069999999999999 6.5455 -4.731999999999999Q7.111 -4.394 7.4425 -3.8155Q7.774 -3.2369999999999997 7.774 -2.496Q7.774 -1.755 7.416499999999999 -1.1895Q7.058999999999999 -0.624 6.408999999999999 -0.312Q5.7589999999999995 0.0 4.901 0.0ZM1.1179999999999999 0.0V-9.36H2.1839999999999997V0.0Z M12.584000000000001 0.0V-9.36H16.042Q17.043 -9.36 17.745 -9.035Q18.447000000000003 -8.709999999999999 18.817500000000003 -8.131499999999999Q19.188000000000002 -7.553 19.188000000000002 -6.76Q19.188000000000002 -5.967 18.817500000000003 -5.3755Q18.447000000000003 -4.784 17.745 -4.4525Q17.043 -4.1209999999999996 16.042 -4.1209999999999996H13.364V-5.0569999999999995H16.003Q17.043 -5.0569999999999995 17.5825 -5.512Q18.122 -5.967 18.122 -6.76Q18.122 -7.54 17.589 -7.981999999999999Q17.056 -8.424 16.003 -8.424H13.65V0.0ZM18.07 0.0 13.091000000000001 -4.641H14.547L19.682000000000002 0.0Z M28.106 0.13Q27.131000000000004 0.13 26.318500000000004 -0.22749999999999998Q25.506000000000004 -0.585 24.908 -1.2414999999999998Q24.310000000000002 -1.898 23.978500000000004 -2.782Q23.647000000000002 -3.666 23.647000000000002 -4.718999999999999Q23.647000000000002 -6.109999999999999 24.219 -7.188999999999999Q24.791000000000004 -8.267999999999999 25.798500000000004 -8.879Q26.806000000000004 -9.49 28.093000000000004 -9.49Q29.406000000000002 -9.49 30.413500000000003 -8.879Q31.421000000000003 -8.267999999999999 31.993000000000002 -7.188999999999999Q32.565000000000005 -6.109999999999999 32.565000000000005 -4.7059999999999995Q32.565000000000005 -3.653 32.23350000000001 -2.769Q31.902 -1.885 31.304000000000002 -1.2349999999999999Q30.706000000000003 -0.585 29.887000000000004 -0.22749999999999998Q29.068000000000005 0.13 28.106 0.13ZM28.093000000000004 -0.832Q29.094 -0.832 29.8545 -1.3325Q30.615000000000002 -1.833 31.044000000000004 -2.717Q31.473000000000003 -3.601 31.473000000000003 -4.732Q31.473000000000003 -5.85 31.050500000000003 -6.708Q30.628000000000004 -7.566 29.867500000000003 -8.047Q29.107000000000003 -8.528 28.093000000000004 -8.528Q27.079000000000004 -8.528 26.325000000000003 -8.047Q25.571000000000005 -7.566 25.155000000000005 -6.714499999999999Q24.739000000000004 -5.8629999999999995 24.739000000000004 -4.732Q24.739000000000004 -3.5879999999999996 25.161500000000004 -2.7104999999999997Q25.584000000000003 -1.833 26.338 -1.3325Q27.092000000000002 -0.832 28.093000000000004 -0.832Z M40.95 0.13Q39.26 0.13 38.317499999999995 -0.9035Q37.375 -1.9369999999999998 37.375 -3.796V-9.36H38.441V-3.7439999999999998Q38.441 -2.34 39.091 -1.5859999999999999Q39.741 -0.832 40.95 -0.832Q42.185 -0.832 42.835 -1.5795Q43.485 -2.327 43.485 -3.7439999999999998V-9.36H44.551V-3.783Q44.551 -1.9369999999999998 43.602000000000004 -0.9035Q42.653 0.13 40.95 0.13Z M54.041 0.13Q52.611 0.13 51.55799999999999 -0.455Q50.504999999999995 -1.04 49.93299999999999 -2.0995Q49.361 -3.159 49.361 -4.601999999999999Q49.361 -6.045 49.9265 -7.1434999999999995Q50.492 -8.241999999999999 51.4995 -8.866Q52.507 -9.49 53.82 -9.49Q54.847 -9.49 55.685500000000005 -9.1Q56.524 -8.709999999999999 57.0635 -8.020999999999999Q57.602999999999994 -7.332 57.72 -6.422H56.653999999999996Q56.524 -7.3839999999999995 55.7635 -7.9559999999999995Q55.003 -8.528 53.858999999999995 -8.528Q52.832 -8.528 52.065 -8.0405Q51.298 -7.553 50.8755 -6.682Q50.452999999999996 -5.811 50.452999999999996 -4.628Q50.452999999999996 -3.445 50.88849999999999 -2.5934999999999997Q51.324 -1.742 52.1495 -1.287Q52.975 -0.832 54.132 -0.832Q54.925 -0.832 55.549 -1.0594999999999999Q56.173 -1.287 56.68 -1.768L57.745999999999995 -1.378Q57.031 -0.624 56.1015 -0.247Q55.172 0.13 54.041 0.13ZM56.68 -1.378V-4.407L57.083 -4.004H54.119V-4.9399999999999995H57.745999999999995V-1.378Z M62.894 0.0V-9.36H63.959999999999994V0.0ZM69.16 0.0V-9.36H70.226V0.0ZM63.44 -5.343H69.628V-4.407H63.44Z M78.143 0.0V-8.424H74.932V-9.36H82.42V-8.424H79.209V0.0Z M95.40700000000001 0.0V-8.424H92.19600000000001V-9.36H99.68400000000001V-8.424H96.47300000000001V0.0Z M107.66600000000001 0.13Q106.69100000000002 0.13 105.87850000000002 -0.22749999999999998Q105.06600000000002 -0.585 104.46800000000002 -1.2414999999999998Q103.87000000000002 -1.898 103.53850000000003 -2.782Q103.20700000000002 -3.666 103.20700000000002 -4.718999999999999Q103.20700000000002 -6.109999999999999 103.77900000000002 -7.188999999999999Q104.35100000000001 -8.267999999999999 105.35850000000002 -8.879Q106.36600000000001 -9.49 107.65300000000002 -9.49Q108.96600000000002 -9.49 109.97350000000003 -8.879Q110.98100000000002 -8.267999999999999 111.55300000000003 -7.188999999999999Q112.12500000000001 -6.109999999999999 112.12500000000001 -4.7059999999999995Q112.12500000000001 -3.653 111.79350000000002 -2.769Q111.46200000000002 -1.885 110.86400000000002 -1.2349999999999999Q110.26600000000002 -0.585 109.44700000000002 -0.22749999999999998Q108.62800000000001 0.13 107.66600000000001 0.13ZM107.65300000000002 -0.832Q108.65400000000001 -0.832 109.4145 -1.3325Q110.17500000000001 -1.833 110.60400000000001 -2.717Q111.03300000000002 -3.601 111.03300000000002 -4.732Q111.03300000000002 -5.85 110.61050000000002 -6.708Q110.18800000000002 -7.566 109.42750000000001 -8.047Q108.66700000000002 -8.528 107.65300000000002 -8.528Q106.63900000000001 -8.528 105.88500000000002 -8.047Q105.13100000000001 -7.566 104.71500000000002 -6.714499999999999Q104.29900000000002 -5.8629999999999995 104.29900000000002 -4.732Q104.29900000000002 -3.5879999999999996 104.72150000000002 -2.7104999999999997Q105.14400000000002 -1.833 105.89800000000002 -1.3325Q106.65200000000002 -0.832 107.65300000000002 -0.832Z M125.47600000000003 0.0V-4.2379999999999995L121.92700000000002 -9.36H123.22700000000002L126.30800000000002 -4.862H125.81400000000002L128.895 -9.36H130.091L126.54200000000003 -4.2379999999999995V0.0Z M137.87800000000004 0.13Q136.90300000000002 0.13 136.09050000000002 -0.22749999999999998Q135.27800000000002 -0.585 134.68 -1.2414999999999998Q134.08200000000002 -1.898 133.75050000000005 -2.782Q133.41900000000004 -3.666 133.41900000000004 -4.718999999999999Q133.41900000000004 -6.109999999999999 133.99100000000004 -7.188999999999999Q134.56300000000005 -8.267999999999999 135.57050000000004 -8.879Q136.57800000000003 -9.49 137.86500000000004 -9.49Q139.17800000000003 -9.49 140.18550000000005 -8.879Q141.19300000000004 -8.267999999999999 141.76500000000004 -7.188999999999999Q142.33700000000005 -6.109999999999999 142.33700000000005 -4.7059999999999995Q142.33700000000005 -3.653 142.00550000000004 -2.769Q141.67400000000004 -1.885 141.07600000000002 -1.2349999999999999Q140.47800000000004 -0.585 139.65900000000005 -0.22749999999999998Q138.84000000000003 0.13 137.87800000000004 0.13ZM137.86500000000004 -0.832Q138.86600000000004 -0.832 139.62650000000002 -1.3325Q140.38700000000003 -1.833 140.81600000000003 -2.717Q141.24500000000003 -3.601 141.24500000000003 -4.732Q141.24500000000003 -5.85 140.82250000000005 -6.708Q140.40000000000003 -7.566 139.63950000000003 -8.047Q138.87900000000002 -8.528 137.86500000000004 -8.528Q136.85100000000003 -8.528 136.09700000000004 -8.047Q135.34300000000005 -7.566 134.92700000000002 -6.714499999999999Q134.51100000000002 -5.8629999999999995 134.51100000000002 -4.732Q134.51100000000002 -3.5879999999999996 134.93350000000004 -2.7104999999999997Q135.35600000000002 -1.833 136.11 -1.3325Q136.86400000000003 -0.832 137.86500000000004 -0.832Z M150.72200000000004 0.13Q149.03200000000004 0.13 148.08950000000004 -0.9035Q147.14700000000002 -1.9369999999999998 147.14700000000002 -3.796V-9.36H148.21300000000002V-3.7439999999999998Q148.21300000000002 -2.34 148.86300000000003 -1.5859999999999999Q149.51300000000003 -0.832 150.72200000000004 -0.832Q151.95700000000002 -0.832 152.60700000000003 -1.5795Q153.25700000000003 -2.327 153.25700000000003 -3.7439999999999998V-9.36H154.32300000000004V-3.783Q154.32300000000004 -1.9369999999999998 153.37400000000002 -0.9035Q152.42500000000004 0.13 150.72200000000004 0.13Z M166.02300000000002 0.0V-0.884H169.01300000000003Q169.87100000000004 -0.884 170.37800000000004 -1.3519999999999999Q170.88500000000002 -1.8199999999999998 170.88500000000002 -2.613Q170.88500000000002 -3.4579999999999997 170.35200000000003 -3.965Q169.81900000000002 -4.4719999999999995 168.92200000000003 -4.4719999999999995H166.02300000000002V-5.33H168.77900000000002Q169.66300000000004 -5.33 170.15700000000004 -5.759Q170.65100000000004 -6.188 170.65100000000004 -6.968Q170.65100000000004 -7.696 170.18950000000004 -8.085999999999999Q169.72800000000004 -8.475999999999999 168.84400000000002 -8.475999999999999H166.02300000000002V-9.36H168.93500000000003Q170.22200000000004 -9.36 170.96950000000004 -8.748999999999999Q171.71700000000004 -8.138 171.71700000000004 -7.085Q171.71700000000004 -6.422 171.41800000000003 -5.901999999999999Q171.11900000000003 -5.382 170.59900000000005 -5.089499999999999Q170.07900000000004 -4.797 169.40300000000002 -4.797L169.46800000000002 -5.069999999999999Q170.18300000000002 -5.069999999999999 170.74850000000004 -4.731999999999999Q171.31400000000002 -4.394 171.64550000000003 -3.8155Q171.97700000000003 -3.2369999999999997 171.97700000000003 -2.496Q171.97700000000003 -1.755 171.61950000000002 -1.1895Q171.26200000000003 -0.624 170.61200000000002 -0.312Q169.96200000000002 0.0 169.10400000000004 0.0ZM165.32100000000003 0.0V-9.36H166.38700000000003V0.0Z M179.04900000000004 0.0V-4.2379999999999995L175.50000000000006 -9.36H176.80000000000004L179.88100000000006 -4.862H179.38700000000006L182.46800000000005 -9.36H183.66400000000004L180.11500000000004 -4.2379999999999995V0.0Z" fill="#ABAFBE" transform="translate(630.11 36.68)"/><g transform="translate(836.08 38.30)"><path d="M20.4638671875 -20.5517578125Q20.91796875 -21.5625 21.1083984375 -21.5625H21.181640625Q21.4013671875 -21.5625 22.0751953125 -21.09375Q22.7490234375 -20.625 22.7490234375 -20.21484375Q22.7490234375 -19.6435546875 18.9990234375 -11.3671875Q15.2490234375 -3.0908203125 14.69970703125 -2.08740234375Q14.150390625 -1.083984375 13.9453125 -0.7470703125Q13.740234375 -0.41015625 13.388671875 0.0Q12.7587890625 0.7763671875 11.8212890625 0.7763671875Q11.4404296875 0.7763671875 11.1474609375 0.87158203125Q10.8544921875 0.966796875 10.7958984375 0.966796875Q10.3271484375 0.966796875 10.3271484375 0.7470703125Q10.3271484375 0.703125 10.45166015625 0.38818359375Q10.576171875 0.0732421875 13.798828125 -6.7236328125Q10.3564453125 -6.85546875 7.7490234375 -6.9287109375Q5.244140625 -3.779296875 3.2080078125 -0.3369140625Q2.958984375 0.146484375 2.7392578125 0.34423828125Q2.51953125 0.5419921875 2.138671875 0.5419921875Q1.7578125 0.5419921875 1.318359375 0.15380859375Q0.87890625 -0.234375 0.87890625 -0.7470703125Q0.87890625 -2.2119140625 4.658203125 -7.0166015625Q2.8857421875 -7.0166015625 2.40966796875 -6.9287109375Q1.93359375 -6.8408203125 1.8017578125 -6.8408203125Q1.40625 -6.8408203125 1.40625 -7.50732421875Q1.40625 -8.173828125 2.18994140625 -8.67919921875Q2.9736328125 -9.1845703125 4.2919921875 -9.1845703125Q4.39453125 -9.1845703125 4.658203125 -9.19921875Q5.56640625 -9.2431640625 6.5185546875 -9.2724609375Q9.7119140625 -13.0224609375 13.1982421875 -16.23046875Q16.6845703125 -19.4384765625 19.2333984375 -20.7275390625Q19.6435546875 -20.9326171875 19.88525390625 -20.92529296875Q20.126953125 -20.91796875 20.4638671875 -20.5517578125ZM19.4384765625 -18.486328125Q14.091796875 -14.4287109375 9.66796875 -9.2724609375Q12.2607421875 -9.2138671875 14.912109375 -9.052734375Q17.578125 -14.6630859375 19.4384765625 -18.486328125Z M26.4697265625 -10.3125Q23.9208984375 -7.060546875 21.5771484375 -4.4677734375Q21.5625 -4.2919921875 21.45263671875 -3.81591796875Q21.3427734375 -3.33984375 21.3427734375 -2.8564453125Q21.3427734375 -2.373046875 21.78955078125 -1.98486328125Q22.236328125 -1.5966796875 22.8955078125 -1.5966796875Q23.5546875 -1.5966796875 24.30908203125 -2.0654296875Q25.0634765625 -2.5341796875 25.6201171875 -3.10546875Q27.0849609375 -4.6142578125 27.4365234375 -4.6142578125Q27.7880859375 -4.6142578125 27.7880859375 -3.544921875V-3.251953125Q27.7880859375 -2.6806640625 27.5830078125 -2.4169921875Q26.3525390625 -0.908203125 24.814453125 -0.16845703125Q23.2763671875 0.5712890625 21.8994140625 0.5712890625Q20.5224609375 0.5712890625 19.8046875 -0.27099609375Q19.0869140625 -1.11328125 19.0869140625 -2.578125Q19.0869140625 -5.4345703125 20.61767578125 -9.29443359375Q22.1484375 -13.154296875 24.0673828125 -15.8642578125Q28.388671875 -21.9873046875 30.673828125 -21.9873046875Q31.376953125 -21.9873046875 31.91162109375 -21.56982421875Q32.4462890625 -21.15234375 32.4462890625 -20.33203125Q32.4462890625 -19.51171875 31.5380859375 -17.76123046875Q30.6298828125 -16.0107421875 29.35546875 -14.18701171875Q28.0810546875 -12.36328125 26.4697265625 -10.3125ZM30.0146484375 -19.5556640625Q30.0146484375 -19.775390625 29.8681640625 -19.775390625Q29.35546875 -19.775390625 27.1728515625 -16.845703125Q24.990234375 -13.916015625 24.01611328125 -12.1728515625Q23.0419921875 -10.4296875 22.177734375 -7.79296875Q23.90625 -9.84375 26.96044921875 -14.18701171875Q30.0146484375 -18.5302734375 30.0146484375 -19.5556640625Z M34.2041015625 -10.3125Q31.6552734375 -7.060546875 29.3115234375 -4.4677734375Q29.296875 -4.2919921875 29.18701171875 -3.81591796875Q29.0771484375 -3.33984375 29.0771484375 -2.8564453125Q29.0771484375 -2.373046875 29.52392578125 -1.98486328125Q29.970703125 -1.5966796875 30.6298828125 -1.5966796875Q31.2890625 -1.5966796875 32.04345703125 -2.0654296875Q32.7978515625 -2.5341796875 33.3544921875 -3.10546875Q34.8193359375 -4.6142578125 35.1708984375 -4.6142578125Q35.5224609375 -4.6142578125 35.5224609375 -3.544921875V-3.251953125Q35.5224609375 -2.6806640625 35.3173828125 -2.4169921875Q34.0869140625 -0.908203125 32.548828125 -0.16845703125Q31.0107421875 0.5712890625 29.6337890625 0.5712890625Q28.2568359375 0.5712890625 27.5390625 -0.27099609375Q26.8212890625 -1.11328125 26.8212890625 -2.578125Q26.8212890625 -5.4345703125 28.35205078125 -9.29443359375Q29.8828125 -13.154296875 31.8017578125 -15.8642578125Q36.123046875 -21.9873046875 38.408203125 -21.9873046875Q39.111328125 -21.9873046875 39.64599609375 -21.56982421875Q40.1806640625 -21.15234375 40.1806640625 -20.33203125Q40.1806640625 -19.51171875 39.2724609375 -17.76123046875Q38.3642578125 -16.0107421875 37.08984375 -14.18701171875Q35.8154296875 -12.36328125 34.2041015625 -10.3125ZM37.7490234375 -19.5556640625Q37.7490234375 -19.775390625 37.6025390625 -19.775390625Q37.08984375 -19.775390625 34.9072265625 -16.845703125Q32.724609375 -13.916015625 31.75048828125 -12.1728515625Q30.7763671875 -10.4296875 29.912109375 -7.79296875Q31.640625 -9.84375 34.69482421875 -14.18701171875Q37.7490234375 -18.5302734375 37.7490234375 -19.5556640625Z M37.7490234375 -9.931640625Q40.13671875 -11.8505859375 41.9384765625 -11.8505859375Q42.744140625 -11.8505859375 43.154296875 -11.455078125Q43.30078125 -11.3232421875 43.30078125 -11.220703125V-11.1328125Q43.505859375 -11.162109375 43.9453125 -11.162109375Q44.384765625 -11.162109375 44.84619140625 -10.7666015625Q45.3076171875 -10.37109375 45.3076171875 -9.55810546875Q45.3076171875 -8.7451171875 44.736328125 -7.44873046875Q44.1650390625 -6.15234375 43.1689453125 -4.81201171875Q42.1728515625 -3.4716796875 40.97900390625 -2.29248046875Q39.78515625 -1.11328125 38.40087890625 -0.35888671875Q37.0166015625 0.3955078125 35.888671875 0.3955078125Q34.7607421875 0.3955078125 34.07958984375 -0.31494140625Q33.3984375 -1.025390625 33.3984375 -2.29248046875Q33.3984375 -3.5595703125 34.02099609375 -5.09765625Q34.6435546875 -6.6357421875 35.625 -7.81494140625Q36.6064453125 -8.994140625 37.7490234375 -9.931640625ZM42.4658203125 -9.2138671875H42.36328125Q41.8505859375 -9.2138671875 41.8505859375 -9.9609375Q40.78125 -9.609375 39.609375 -8.73046875Q38.4375 -7.8515625 37.5146484375 -6.650390625Q35.6396484375 -4.248046875 35.6103515625 -2.5927734375Q35.6103515625 -1.7724609375 36.2109375 -1.7724609375Q36.8115234375 -1.7724609375 37.998046875 -2.5634765625Q39.1845703125 -3.3544921875 40.34912109375 -4.8193359375Q41.513671875 -6.2841796875 42.09228515625 -7.36083984375Q42.6708984375 -8.4375 42.6708984375 -8.82568359375Q42.6708984375 -9.2138671875 42.4658203125 -9.2138671875Z M52.6318359375 -2.255859375Q52.6318359375 -1.611328125 53.5107421875 -1.611328125Q53.9794921875 -1.611328125 54.68994140625 -2.080078125Q55.400390625 -2.548828125 55.9716796875 -3.10546875Q57.4951171875 -4.6142578125 57.7001953125 -4.6142578125Q58.0810546875 -4.6142578125 58.0810546875 -3.515625Q58.0810546875 -2.4169921875 57.392578125 -2.0068359375Q55.2978515625 -0.1171875 54.1552734375 0.29296875Q53.5107421875 0.5126953125 52.734375 0.498046875Q51.9580078125 0.4833984375 51.1962890625 -0.17578125Q50.4345703125 -0.8349609375 50.4345703125 -1.77978515625Q50.4345703125 -2.724609375 50.9326171875 -3.92578125Q51.4306640625 -5.126953125 51.95068359375 -5.98388671875Q52.470703125 -6.8408203125 53.232421875 -7.97607421875Q53.994140625 -9.111328125 54.0380859375 -9.3896484375L54.0087890625 -9.4189453125Q53.525390625 -9.375 51.61376953125 -7.5146484375Q49.7021484375 -5.654296875 48.45703125 -4.27734375Q47.2119140625 -2.900390625 45.4833984375 -0.6005859375Q45.0 0.029296875 44.6923828125 0.029296875Q44.384765625 0.029296875 43.86474609375 -0.16845703125Q43.3447265625 -0.3662109375 43.2275390625 -0.4541015625Q43.1103515625 -0.5419921875 43.1103515625 -0.7177734375Q43.1103515625 -0.8935546875 43.212890625 -1.14990234375Q43.3154296875 -1.40625 43.41064453125 -1.57470703125Q43.505859375 -1.7431640625 43.7255859375 -2.0947265625Q43.9453125 -2.4462890625 44.59716796875 -3.58154296875Q45.2490234375 -4.716796875 46.5966796875 -6.97265625Q47.9443359375 -9.228515625 48.2080078125 -9.697265625Q48.7646484375 -10.6640625 49.1162109375 -11.103515625Q49.775390625 -11.9384765625 51.3427734375 -11.9384765625Q51.6943359375 -11.9384765625 51.6943359375 -11.4990234375Q51.6943359375 -10.810546875 50.419921875 -8.90625L49.8046875 -7.9833984375Q52.3388671875 -10.7958984375 54.08203125 -11.54296875Q54.931640625 -11.9091796875 55.61279296875 -11.9091796875Q56.2939453125 -11.9091796875 56.69677734375 -11.54296875Q57.099609375 -11.1767578125 57.099609375 -10.72998046875Q57.099609375 -10.283203125 56.7919921875 -9.66064453125Q56.484375 -9.0380859375 56.16943359375 -8.54736328125Q55.8544921875 -8.056640625 55.341796875 -7.3095703125Q54.8291015625 -6.5625 54.78515625 -6.49658203125Q54.7412109375 -6.4306640625 54.55810546875 -6.14501953125Q54.375 -5.859375 54.287109375 -5.7275390625Q54.19921875 -5.595703125 53.994140625 -5.26611328125Q53.7890625 -4.9365234375 53.66455078125 -4.716796875Q53.5400390625 -4.4970703125 53.35693359375 -4.1748046875Q53.173828125 -3.8525390625 53.06396484375 -3.6181640625Q52.9541015625 -3.3837890625 52.8369140625 -3.10546875Q52.6318359375 -2.5927734375 52.6318359375 -2.255859375Z M58.3154296875 -2.9296875 58.30078125 -2.6953125Q58.30078125 -2.3291015625 58.5791015625 -2.0654296875Q58.857421875 -1.8017578125 59.091796875 -1.8017578125Q60.849609375 -1.8017578125 62.20458984375 -2.3291015625Q63.5595703125 -2.8564453125 63.5595703125 -3.3837890625Q63.5595703125 -3.6328125 63.06884765625 -3.81591796875Q62.578125 -3.9990234375 61.41357421875 -4.27001953125Q60.2490234375 -4.541015625 59.7216796875 -4.69482421875Q59.1943359375 -4.8486328125 58.88671875 -4.98046875Q58.5791015625 -5.1123046875 58.2568359375 -5.3466796875Q57.568359375 -5.830078125 57.568359375 -6.78955078125Q57.568359375 -7.7490234375 58.27880859375 -8.69384765625Q58.9892578125 -9.638671875 60.05859375 -10.3125Q61.1279296875 -10.986328125 62.3583984375 -11.4990234375Q64.7900390625 -12.509765625 66.4453125 -12.509765625Q68.0712890625 -12.509765625 68.4521484375 -11.806640625Q68.5693359375 -11.5576171875 68.5693359375 -11.25V-11.1474609375Q68.5693359375 -10.37109375 68.23974609375 -9.931640625Q67.91015625 -9.4921875 67.19970703125 -9.140625Q66.4892578125 -8.7890625 66.07177734375 -8.7890625Q65.654296875 -8.7890625 65.54443359375 -8.84765625Q65.4345703125 -8.90625 65.361328125 -9.00146484375Q65.2880859375 -9.0966796875 65.17822265625 -9.140625Q65.068359375 -9.1845703125 65.068359375 -9.3603515625Q65.068359375 -9.5361328125 65.21484375 -9.71923828125Q65.361328125 -9.90234375 65.419921875 -10.107421875Q64.453125 -10.0634765625 63.3984375 -9.66064453125Q62.34375 -9.2578125 61.58935546875 -8.759765625Q60.8349609375 -8.26171875 60.3369140625 -7.8076171875Q59.8388671875 -7.353515625 59.8388671875 -7.14111328125Q59.8388671875 -6.9287109375 60.5126953125 -6.796875Q63.544921875 -6.1962890625 64.4970703125 -5.7568359375Q65.44921875 -5.3173828125 65.8154296875 -4.7607421875Q66.181640625 -4.2041015625 66.181640625 -3.75Q66.181640625 -2.8125 65.4345703125 -1.9775390625Q64.6875 -1.142578125 63.5888671875 -0.615234375Q61.23046875 0.5419921875 59.47998046875 0.5419921875Q57.7294921875 0.5419921875 57.06298828125 0.00732421875Q56.396484375 -0.52734375 56.396484375 -1.259765625Q56.396484375 -1.9921875 56.77001953125 -2.61474609375Q57.1435546875 -3.2373046875 57.7294921875 -3.2373046875Q58.3154296875 -3.2373046875 58.3154296875 -2.9296875Z" fill="#FBF9F3"/><g transform="translate(73.43 -7.35) skewX(-12)"><rect x="-4.50" y="-1.57" width="9.00" height="3.15" rx="1.57" fill="#C92C6B"/></g><path d="M5.3466796875 4.86328125Q5.2734375 4.9365234375 4.89990234375 5.60302734375Q4.5263671875 6.26953125 4.1015625 6.95068359375Q3.6767578125 7.6318359375 3.05419921875 8.2470703125Q2.431640625 8.8623046875 2.01416015625 8.91357421875Q1.5966796875 8.96484375 1.4794921875 8.96484375Q0.1318359375 8.96484375 0.1318359375 7.6025390625Q0.1318359375 6.005859375 1.787109375 3.8671875Q2.4169921875 3.0615234375 3.369140625 2.13134765625Q4.3212890625 1.201171875 4.4091796875 1.07666015625Q4.4970703125 0.9521484375 6.6064453125 -3.0322265625Q5.2001953125 -1.494140625 3.9990234375 -0.53466796875Q2.7978515625 0.4248046875 1.6845703125 0.5419921875H1.58203125Q1.0107421875 0.5419921875 0.4541015625 0.16845703125Q-0.1025390625 -0.205078125 -0.1025390625 -1.142578125Q-0.1025390625 -2.5341796875 0.64453125 -3.837890625Q0.908203125 -4.2919921875 1.56005859375 -5.3759765625Q2.2119140625 -6.4599609375 2.7685546875 -7.470703125Q3.2958984375 -8.2763671875 3.8525390625 -9.345703125Q4.4091796875 -10.4150390625 4.7021484375 -10.87646484375Q4.9951171875 -11.337890625 5.2587890625 -11.337890625Q5.5224609375 -11.337890625 5.93994140625 -11.00830078125Q6.357421875 -10.6787109375 6.357421875 -10.224609375Q6.357421875 -9.7705078125 4.4384765625 -6.2841796875Q2.51953125 -2.7978515625 2.51953125 -2.314453125Q2.51953125 -2.197265625 2.63671875 -2.197265625Q3.0322265625 -2.197265625 4.38720703125 -3.31787109375Q5.7421875 -4.4384765625 7.3828125 -6.1962890625Q9.2138671875 -8.14453125 10.25390625 -9.755859375Q10.3857421875 -9.9609375 10.46630859375 -10.07080078125Q10.546875 -10.1806640625 10.67138671875 -10.36376953125Q10.7958984375 -10.546875 10.87646484375 -10.6494140625Q10.95703125 -10.751953125 11.06689453125 -10.89111328125Q11.1767578125 -11.0302734375 11.2646484375 -11.103515625Q11.3525390625 -11.1767578125 11.455078125 -11.25Q11.6162109375 -11.396484375 11.81396484375 -11.396484375Q12.01171875 -11.396484375 12.41455078125 -11.30859375Q12.8173828125 -11.220703125 12.89794921875 -11.1181640625Q12.978515625 -11.015625 13.06640625 -10.927734375Q13.212890625 -10.7666015625 13.212890625 -10.62744140625Q13.212890625 -10.48828125 13.095703125 -10.26123046875Q12.978515625 -10.0341796875 11.7333984375 -7.939453125Q8.0712890625 -1.7578125 6.6943359375 1.083984375Q8.9208984375 -0.791015625 12.9638671875 -4.4677734375Q13.125 -4.599609375 13.2861328125 -4.599609375Q13.740234375 -4.599609375 13.740234375 -3.2080078125Q13.740234375 -2.7978515625 13.59375 -2.666015625Q9.2138671875 0.703125 5.3466796875 4.86328125Z" fill="#FBF9F3" transform="translate(80.03 0)"/></g><path d="M5.775 0.15750000000000003Q3.5700000000000003 0.15750000000000003 2.2662500000000003 -0.9275000000000001Q0.9625000000000001 -2.0125 0.7350000000000001 -4.025H2.1350000000000002Q2.3275 -2.5725000000000002 3.2375 -1.8375000000000001Q4.1475 -1.1025 5.7575 -1.1025Q7.1225000000000005 -1.1025 7.813750000000001 -1.6187500000000001Q8.505 -2.1350000000000002 8.505 -3.1325000000000003Q8.505 -3.99 8.0325 -4.4975000000000005Q7.5600000000000005 -5.005000000000001 6.562500000000001 -5.3375L4.445 -6.072500000000001Q2.8350000000000004 -6.6325 2.0650000000000004 -7.428750000000001Q1.2950000000000002 -8.225000000000001 1.2950000000000002 -9.450000000000001Q1.2950000000000002 -10.465000000000002 1.8025000000000002 -11.208750000000002Q2.31 -11.9525 3.2375 -12.3725Q4.165 -12.7925 5.390000000000001 -12.7925Q7.280000000000001 -12.7925 8.4175 -11.80375Q9.555000000000001 -10.815000000000001 9.73 -8.995000000000001H8.33Q8.102500000000001 -10.307500000000001 7.393750000000001 -10.920000000000002Q6.6850000000000005 -11.5325 5.355 -11.5325Q4.095000000000001 -11.5325 3.3950000000000005 -11.025000000000002Q2.6950000000000003 -10.517500000000002 2.6950000000000003 -9.590000000000002Q2.6950000000000003 -8.8025 3.1850000000000005 -8.33Q3.6750000000000003 -7.857500000000001 4.7075000000000005 -7.5075L6.965000000000001 -6.720000000000001Q8.435 -6.2125 9.170000000000002 -5.34625Q9.905000000000001 -4.48 9.905000000000001 -3.1500000000000004Q9.905000000000001 -1.5750000000000002 8.828750000000001 -0.7087500000000001Q7.7525 0.15750000000000003 5.775 0.15750000000000003Z M19.372500000000002 0.0V-11.340000000000002H15.050000000000002V-12.600000000000001H25.130000000000003V-11.340000000000002H20.8075V0.0Z M35.875 0.17500000000000002Q33.6 0.17500000000000002 32.33125 -1.2162500000000003Q31.0625 -2.6075000000000004 31.0625 -5.11V-12.600000000000001H32.4975V-5.040000000000001Q32.4975 -3.1500000000000004 33.3725 -2.1350000000000002Q34.2475 -1.12 35.875 -1.12Q37.5375 -1.12 38.4125 -2.12625Q39.2875 -3.1325000000000003 39.2875 -5.040000000000001V-12.600000000000001H40.722500000000004V-5.0925Q40.722500000000004 -2.6075000000000004 39.44500000000001 -1.2162500000000003Q38.167500000000004 0.17500000000000002 35.875 0.17500000000000002Z M48.685 0.0V-1.2600000000000002H52.06250000000001Q53.6375 -1.2600000000000002 54.775000000000006 -1.8987500000000002Q55.91250000000001 -2.5375 56.525000000000006 -3.6925Q57.1375 -4.8475 57.1375 -6.370000000000001Q57.1375 -7.875000000000001 56.525000000000006 -8.995000000000001Q55.91250000000001 -10.115 54.78375000000001 -10.727500000000001Q53.65500000000001 -11.340000000000002 52.06250000000001 -11.340000000000002H48.685V-12.600000000000001H52.06250000000001Q54.040000000000006 -12.600000000000001 55.510000000000005 -11.821250000000001Q56.980000000000004 -11.0425 57.79375 -9.633750000000001Q58.60750000000001 -8.225000000000001 58.60750000000001 -6.335000000000001Q58.60750000000001 -4.445 57.78500000000001 -3.0187500000000003Q56.962500000000006 -1.5925000000000002 55.501250000000006 -0.7962500000000001Q54.040000000000006 0.0 52.080000000000005 0.0ZM47.82750000000001 0.0V-12.600000000000001H49.2625V0.0Z M65.18750000000001 0.0V-12.600000000000001H66.62250000000002V0.0Z M79.20500000000001 0.17500000000000002Q77.89250000000001 0.17500000000000002 76.79875000000001 -0.30625Q75.70500000000001 -0.7875000000000001 74.9 -1.6712500000000001Q74.09500000000001 -2.555 73.64875 -3.745Q73.20250000000001 -4.9350000000000005 73.20250000000001 -6.352500000000001Q73.20250000000001 -8.225000000000001 73.97250000000003 -9.677500000000002Q74.74250000000002 -11.13 76.09875000000002 -11.9525Q77.45500000000001 -12.775 79.18750000000001 -12.775Q80.95500000000001 -12.775 82.31125000000002 -11.9525Q83.66750000000002 -11.13 84.43750000000001 -9.677500000000002Q85.20750000000001 -8.225000000000001 85.20750000000001 -6.335000000000001Q85.20750000000001 -4.9175 84.76125000000002 -3.7275Q84.31500000000001 -2.5375 83.51000000000002 -1.6625Q82.70500000000001 -0.7875000000000001 81.60250000000002 -0.30625Q80.50000000000001 0.17500000000000002 79.20500000000001 0.17500000000000002ZM79.18750000000001 -1.12Q80.53500000000001 -1.12 81.55875 -1.7937500000000002Q82.58250000000001 -2.4675000000000002 83.16000000000001 -3.6575Q83.73750000000001 -4.8475 83.73750000000001 -6.370000000000001Q83.73750000000001 -7.875000000000001 83.16875000000002 -9.030000000000001Q82.60000000000002 -10.185 81.57625000000002 -10.8325Q80.55250000000001 -11.48 79.18750000000001 -11.48Q77.82250000000002 -11.48 76.80750000000002 -10.8325Q75.79250000000002 -10.185 75.23250000000002 -9.03875Q74.67250000000001 -7.892500000000001 74.67250000000001 -6.370000000000001Q74.67250000000001 -4.83 75.24125000000001 -3.64875Q75.81000000000002 -2.4675000000000002 76.82500000000002 -1.7937500000000002Q77.84000000000002 -1.12 79.18750000000001 -1.12Z" fill="#ABAFBE" transform="translate(941.81 38.30)"/></svg>