<svg xmlns="http://www.w3.org/2000/svg" viewBox="0 0 880 150"><g transform="translate(285.93 27.00) scale(0.18750)"><path d="M 433.41 375.67 A 214 214 0 0 1 209.68 464.93" fill="none" stroke="#7BD1E6" stroke-width="42" stroke-linecap="butt"/><circle cx="433.41" cy="375.67" r="21.00" fill="#7BD1E6"/><path d="M 188.10 458.94 A 214 214 0 0 1 42.29 267.20" fill="none" stroke="#C92C6B" stroke-width="42" stroke-linecap="butt"/><path d="M 42.29 244.80 A 214 214 0 0 1 188.10 53.06" fill="none" stroke="#FF9A56" stroke-width="42" stroke-linecap="butt"/><path d="M 209.68 47.07 A 214 214 0 0 1 433.41 136.33" fill="none" stroke="#FFD36C" stroke-width="42" stroke-linecap="butt"/><circle cx="433.41" cy="136.33" r="21.00" fill="#FFD36C"/><rect x="374" y="224" width="118" height="64" rx="26" fill="#EFEBDF" stroke="#33394E" stroke-width="16"/><circle cx="256" cy="256" r="150" fill="#EFEBDF" stroke="#33394E" stroke-width="16"/><circle cx="256" cy="256" r="104" fill="#C2B1A6"/></g><path d="M2.288 0.0V-1.43H4.7059999999999995Q5.356 -1.43 5.6875 -1.7875Q6.019 -2.145 6.019 -2.782Q6.019 -3.432 5.6615 -3.809Q5.303999999999999 -4.186 4.641 -4.186H2.288V-5.616H4.537Q5.148 -5.616 5.4665 -5.9085Q5.785 -6.201 5.785 -6.773Q5.785 -7.345 5.4795 -7.637499999999999Q5.1739999999999995 -7.93 4.576 -7.93H2.288V-9.36H5.005Q6.253 -9.36 7.02 -8.722999999999999Q7.787 -8.086 7.787 -6.994Q7.787 -6.305 7.462 -5.811Q7.137 -5.317 6.590999999999999 -5.057Q6.045 -4.797 5.369 -4.797L5.434 -5.069999999999999Q6.162 -5.069999999999999 6.7535 -4.757999999999999Q7.345 -4.446 7.696 -3.8804999999999996Q8.046999999999999 -3.315 8.046999999999999 -2.548Q8.046999999999999 -1.781 7.689499999999999 -1.2025Q7.332 -0.624 6.6884999999999994 -0.312Q6.045 0.0 5.1739999999999995 0.0ZM0.65 0.0V-9.36H2.6519999999999997V0.0Z M12.090000000000002 0.0V-9.36H16.276Q17.29 -9.36 18.044 -9.0155Q18.798000000000002 -8.671 19.214000000000002 -8.047Q19.630000000000003 -7.423 19.630000000000003 -6.590999999999999Q19.630000000000003 -5.771999999999999 19.214000000000002 -5.1545Q18.798000000000002 -4.537 18.044 -4.1925Q17.29 -3.848 16.276 -3.848H13.676V-5.317H16.224Q16.939 -5.317 17.322499999999998 -5.6485Q17.706 -5.9799999999999995 17.706 -6.577999999999999Q17.706 -7.189 17.329 -7.5075Q16.952 -7.826 16.224 -7.826H14.092V0.0ZM17.368000000000002 0.0 13.611 -4.862H15.73L20.072000000000003 0.0Z M28.327000000000005 0.13Q27.287000000000006 0.13 26.409500000000005 -0.22099999999999997Q25.532000000000004 -0.572 24.888500000000004 -1.2155Q24.245000000000005 -1.859 23.887500000000003 -2.7495Q23.530000000000005 -3.6399999999999997 23.530000000000005 -4.718999999999999Q23.530000000000005 -6.149 24.141000000000005 -7.221500000000001Q24.752000000000002 -8.294 25.837500000000006 -8.892Q26.923000000000005 -9.49 28.314000000000004 -9.49Q29.731 -9.49 30.810000000000002 -8.892Q31.889000000000003 -8.294 32.5065 -7.215Q33.124 -6.136 33.124 -4.7059999999999995Q33.124 -3.6399999999999997 32.76650000000001 -2.7495Q32.409000000000006 -1.859 31.765500000000003 -1.2155Q31.122000000000003 -0.572 30.244500000000002 -0.22099999999999997Q29.367000000000004 0.13 28.327000000000005 0.13ZM28.314000000000004 -1.456Q29.133000000000003 -1.456 29.757000000000005 -1.8719999999999999Q30.381000000000004 -2.288 30.738500000000002 -3.0225Q31.096000000000004 -3.7569999999999997 31.096000000000004 -4.732Q31.096000000000004 -5.694 30.745000000000005 -6.409Q30.394000000000005 -7.124 29.770000000000003 -7.513999999999999Q29.146000000000004 -7.904 28.314000000000004 -7.904Q27.495000000000005 -7.904 26.871000000000002 -7.513999999999999Q26.247000000000003 -7.124 25.902500000000003 -6.4155Q25.558000000000003 -5.707 25.558000000000003 -4.732Q25.558000000000003 -3.7439999999999998 25.909000000000006 -3.0095Q26.260000000000005 -2.275 26.884000000000004 -1.8655Q27.508000000000003 -1.456 28.314000000000004 -1.456Z M41.197 0.13Q39.195 0.13 38.200500000000005 -0.9684999999999999Q37.206 -2.0669999999999997 37.206 -4.173V-9.36H39.208000000000006V-3.8219999999999996Q39.208000000000006 -2.6 39.741 -2.028Q40.274 -1.456 41.21 -1.456Q42.146 -1.456 42.679 -2.028Q43.212 -2.6 43.212 -3.8089999999999997V-9.36H45.214000000000006V-4.147Q45.214000000000006 -2.0669999999999997 44.21300000000001 -0.9684999999999999Q43.212 0.13 41.197 0.13Z M54.184 0.13Q52.663 0.13 51.571 -0.468Q50.479 -1.066 49.8875 -2.145Q49.296 -3.2239999999999998 49.296 -4.667Q49.296 -6.0969999999999995 49.894 -7.182499999999999Q50.492 -8.267999999999999 51.5515 -8.879Q52.611 -9.49 54.015 -9.49Q55.172 -9.49 56.088499999999996 -9.074Q57.004999999999995 -8.658 57.570499999999996 -7.9365Q58.135999999999996 -7.215 58.239999999999995 -6.266H56.238Q56.108 -7.0329999999999995 55.51649999999999 -7.4685Q54.925 -7.904 54.041 -7.904Q53.222 -7.904 52.611000000000004 -7.5205Q52.0 -7.137 51.662 -6.422Q51.324 -5.707 51.324 -4.7059999999999995Q51.324 -3.666 51.662 -2.9314999999999998Q52.0 -2.197 52.6565 -1.8135Q53.313 -1.43 54.275 -1.43Q55.055 -1.43 55.601 -1.625Q56.147 -1.8199999999999998 56.433 -2.171L58.330999999999996 -1.417Q57.577 -0.6629999999999999 56.582499999999996 -0.26649999999999996Q55.588 0.13 54.184 0.13ZM56.329 -1.417V-3.9909999999999997L56.732 -3.5879999999999996H54.262V-5.122H58.330999999999996V-1.417Z M62.59499999999999 0.0V-9.36H64.597V0.0ZM68.65299999999999 0.0V-9.36H70.65499999999999V0.0ZM63.53099999999999 -5.6419999999999995H69.56299999999999V-4.108H63.53099999999999Z M77.792 0.0V-7.826H74.737V-9.36H82.84899999999999V-7.826H79.794V0.0Z M95.23800000000001 0.0V-7.826H92.183V-9.36H100.29500000000002V-7.826H97.24000000000001V0.0Z M108.22500000000001 0.13Q107.18500000000002 0.13 106.3075 -0.22099999999999997Q105.43 -0.572 104.78650000000002 -1.2155Q104.14300000000001 -1.859 103.78550000000001 -2.7495Q103.42800000000001 -3.6399999999999997 103.42800000000001 -4.718999999999999Q103.42800000000001 -6.149 104.03900000000002 -7.221500000000001Q104.65 -8.294 105.7355 -8.892Q106.82100000000001 -9.49 108.21200000000002 -9.49Q109.629 -9.49 110.708 -8.892Q111.787 -8.294 112.40450000000001 -7.215Q113.022 -6.136 113.022 -4.7059999999999995Q113.022 -3.6399999999999997 112.6645 -2.7495Q112.30700000000002 -1.859 111.66350000000001 -1.2155Q111.02000000000001 -0.572 110.14250000000001 -0.22099999999999997Q109.26500000000001 0.13 108.22500000000001 0.13ZM108.21200000000002 -1.456Q109.031 -1.456 109.655 -1.8719999999999999Q110.27900000000001 -2.288 110.63650000000001 -3.0225Q110.99400000000001 -3.7569999999999997 110.99400000000001 -4.732Q110.99400000000001 -5.694 110.64300000000001 -6.409Q110.29200000000002 -7.124 109.668 -7.513999999999999Q109.04400000000001 -7.904 108.21200000000002 -7.904Q107.39300000000001 -7.904 106.769 -7.513999999999999Q106.14500000000001 -7.124 105.80050000000001 -6.4155Q105.45600000000002 -5.707 105.45600000000002 -4.732Q105.45600000000002 -3.7439999999999998 105.80700000000002 -3.0095Q106.15800000000002 -2.275 106.78200000000001 -1.8655Q107.406 -1.456 108.21200000000002 -1.456Z M125.74900000000001 0.0V-3.783L122.26500000000001 -9.36H124.67000000000002L127.42600000000002 -4.407H126.29500000000002L129.038 -9.36H131.235L127.75100000000002 -3.783V0.0Z M138.86600000000004 0.13Q137.82600000000002 0.13 136.94850000000002 -0.22099999999999997Q136.07100000000003 -0.572 135.4275 -1.2155Q134.78400000000002 -1.859 134.42650000000003 -2.7495Q134.06900000000002 -3.6399999999999997 134.06900000000002 -4.718999999999999Q134.06900000000002 -6.149 134.68 -7.221500000000001Q135.29100000000003 -8.294 136.37650000000002 -8.892Q137.46200000000002 -9.49 138.85300000000004 -9.49Q140.27000000000004 -9.49 141.34900000000005 -8.892Q142.42800000000003 -8.294 143.04550000000003 -7.215Q143.66300000000004 -6.136 143.66300000000004 -4.7059999999999995Q143.66300000000004 -3.6399999999999997 143.30550000000005 -2.7495Q142.94800000000004 -1.859 142.30450000000002 -1.2155Q141.66100000000003 -0.572 140.78350000000003 -0.22099999999999997Q139.90600000000003 0.13 138.86600000000004 0.13ZM138.85300000000004 -1.456Q139.67200000000003 -1.456 140.29600000000002 -1.8719999999999999Q140.92000000000002 -2.288 141.27750000000003 -3.0225Q141.63500000000002 -3.7569999999999997 141.63500000000002 -4.732Q141.63500000000002 -5.694 141.28400000000002 -6.409Q140.93300000000002 -7.124 140.30900000000003 -7.513999999999999Q139.68500000000003 -7.904 138.85300000000004 -7.904Q138.03400000000002 -7.904 137.41000000000003 -7.513999999999999Q136.78600000000003 -7.124 136.44150000000002 -6.4155Q136.09700000000004 -5.707 136.09700000000004 -4.732Q136.09700000000004 -3.7439999999999998 136.44800000000004 -3.0095Q136.79900000000004 -2.275 137.42300000000003 -1.8655Q138.04700000000003 -1.456 138.85300000000004 -1.456Z M151.73600000000005 0.13Q149.73400000000004 0.13 148.73950000000002 -0.9684999999999999Q147.74500000000003 -2.0669999999999997 147.74500000000003 -4.173V-9.36H149.74700000000004V-3.8219999999999996Q149.74700000000004 -2.6 150.28000000000003 -2.028Q150.81300000000005 -1.456 151.74900000000005 -1.456Q152.68500000000003 -1.456 153.21800000000002 -2.028Q153.75100000000003 -2.6 153.75100000000003 -3.8089999999999997V-9.36H155.75300000000004V-4.147Q155.75300000000004 -2.0669999999999997 154.75200000000004 -0.9684999999999999Q153.75100000000003 0.13 151.73600000000005 0.13Z M167.29700000000005 0.0V-1.43H169.71500000000003Q170.36500000000004 -1.43 170.69650000000004 -1.7875Q171.02800000000005 -2.145 171.02800000000005 -2.782Q171.02800000000005 -3.432 170.67050000000006 -3.809Q170.31300000000005 -4.186 169.65000000000003 -4.186H167.29700000000005V-5.616H169.54600000000005Q170.15700000000004 -5.616 170.47550000000004 -5.9085Q170.79400000000004 -6.201 170.79400000000004 -6.773Q170.79400000000004 -7.345 170.48850000000004 -7.637499999999999Q170.18300000000005 -7.93 169.58500000000004 -7.93H167.29700000000005V-9.36H170.01400000000004Q171.26200000000006 -9.36 172.02900000000005 -8.722999999999999Q172.79600000000005 -8.086 172.79600000000005 -6.994Q172.79600000000005 -6.305 172.47100000000006 -5.811Q172.14600000000004 -5.317 171.60000000000002 -5.057Q171.05400000000003 -4.797 170.37800000000004 -4.797L170.44300000000004 -5.069999999999999Q171.17100000000005 -5.069999999999999 171.76250000000005 -4.757999999999999Q172.35400000000004 -4.446 172.70500000000004 -3.8804999999999996Q173.05600000000004 -3.315 173.05600000000004 -2.548Q173.05600000000004 -1.781 172.69850000000002 -1.2025Q172.34100000000004 -0.624 171.69750000000005 -0.312Q171.05400000000003 0.0 170.18300000000005 0.0ZM165.65900000000005 0.0V-9.36H167.66100000000003V0.0Z M179.62100000000007 0.0V-3.783L176.13700000000006 -9.36H178.54200000000006L181.29800000000006 -4.407H180.16700000000006L182.91000000000005 -9.36H185.10700000000006L181.62300000000005 -3.783V0.0Z" fill="#6B6F80" transform="translate(408.81 38.34)"/><g transform="translate(408.81 91.38)"><g><path d="M35.470703125 -35.623046875Q36.2578125 -37.375 36.587890625 -37.375H36.71484375Q37.095703125 -37.375 38.263671875 -36.5625Q39.431640625 -35.75 39.431640625 -35.0390625Q39.431640625 -34.048828125 32.931640625 -19.703125Q26.431640625 -5.357421875 25.4794921875 -3.6181640625Q24.52734375 -1.87890625 24.171875 -1.294921875Q23.81640625 -0.7109375 23.20703125 0.0Q22.115234375 1.345703125 20.490234375 1.345703125Q19.830078125 1.345703125 19.322265625 1.5107421875Q18.814453125 1.67578125 18.712890625 1.67578125Q17.900390625 1.67578125 17.900390625 1.294921875Q17.900390625 1.21875 18.1162109375 0.6728515625Q18.33203125 0.126953125 23.91796875 -11.654296875Q17.951171875 -11.8828125 13.431640625 -12.009765625Q9.08984375 -6.55078125 5.560546875 -0.583984375Q5.12890625 0.25390625 4.748046875 0.5966796875Q4.3671875 0.939453125 3.70703125 0.939453125Q3.046875 0.939453125 2.28515625 0.2666015625Q1.5234375 -0.40625 1.5234375 -1.294921875Q1.5234375 -3.833984375 8.07421875 -12.162109375Q5.001953125 -12.162109375 4.1767578125 -12.009765625Q3.3515625 -11.857421875 3.123046875 -11.857421875Q2.4375 -11.857421875 2.4375 -13.0126953125Q2.4375 -14.16796875 3.7958984375 -15.0439453125Q5.154296875 -15.919921875 7.439453125 -15.919921875Q7.6171875 -15.919921875 8.07421875 -15.9453125Q9.6484375 -16.021484375 11.298828125 -16.072265625Q16.833984375 -22.572265625 22.876953125 -28.1328125Q28.919921875 -33.693359375 33.337890625 -35.927734375Q34.048828125 -36.283203125 34.4677734375 -36.2705078125Q34.88671875 -36.2578125 35.470703125 -35.623046875ZM33.693359375 -32.04296875Q24.42578125 -25.009765625 16.7578125 -16.072265625Q21.251953125 -15.970703125 25.84765625 -15.69140625Q30.46875 -25.416015625 33.693359375 -32.04296875Z M45.880859375 -17.875Q41.462890625 -12.23828125 37.400390625 -7.744140625Q37.375 -7.439453125 37.1845703125 -6.6142578125Q36.994140625 -5.7890625 36.994140625 -4.951171875Q36.994140625 -4.11328125 37.7685546875 -3.4404296875Q38.54296875 -2.767578125 39.685546875 -2.767578125Q40.828125 -2.767578125 42.1357421875 -3.580078125Q43.443359375 -4.392578125 44.408203125 -5.3828125Q46.947265625 -7.998046875 47.556640625 -7.998046875Q48.166015625 -7.998046875 48.166015625 -6.14453125V-5.63671875Q48.166015625 -4.646484375 47.810546875 -4.189453125Q45.677734375 -1.57421875 43.01171875 -0.2919921875Q40.345703125 0.990234375 37.958984375 0.990234375Q35.572265625 0.990234375 34.328125 -0.4697265625Q33.083984375 -1.9296875 33.083984375 -4.46875Q33.083984375 -9.419921875 35.7373046875 -16.1103515625Q38.390625 -22.80078125 41.716796875 -27.498046875Q49.20703125 -38.111328125 53.16796875 -38.111328125Q54.38671875 -38.111328125 55.3134765625 -37.3876953125Q56.240234375 -36.6640625 56.240234375 -35.2421875Q56.240234375 -33.8203125 54.666015625 -30.7861328125Q53.091796875 -27.751953125 50.8828125 -24.5908203125Q48.673828125 -21.4296875 45.880859375 -17.875ZM52.025390625 -33.896484375Q52.025390625 -34.27734375 51.771484375 -34.27734375Q50.8828125 -34.27734375 47.099609375 -29.19921875Q43.31640625 -24.12109375 41.6279296875 -21.099609375Q39.939453125 -18.078125 38.44140625 -13.5078125Q41.4375 -17.0625 46.7314453125 -24.5908203125Q52.025390625 -32.119140625 52.025390625 -33.896484375Z M59.287109375 -17.875Q54.869140625 -12.23828125 50.806640625 -7.744140625Q50.78125 -7.439453125 50.5908203125 -6.6142578125Q50.400390625 -5.7890625 50.400390625 -4.951171875Q50.400390625 -4.11328125 51.1748046875 -3.4404296875Q51.94921875 -2.767578125 53.091796875 -2.767578125Q54.234375 -2.767578125 55.5419921875 -3.580078125Q56.849609375 -4.392578125 57.814453125 -5.3828125Q60.353515625 -7.998046875 60.962890625 -7.998046875Q61.572265625 -7.998046875 61.572265625 -6.14453125V-5.63671875Q61.572265625 -4.646484375 61.216796875 -4.189453125Q59.083984375 -1.57421875 56.41796875 -0.2919921875Q53.751953125 0.990234375 51.365234375 0.990234375Q48.978515625 0.990234375 47.734375 -0.4697265625Q46.490234375 -1.9296875 46.490234375 -4.46875Q46.490234375 -9.419921875 49.1435546875 -16.1103515625Q51.796875 -22.80078125 55.123046875 -27.498046875Q62.61328125 -38.111328125 66.57421875 -38.111328125Q67.79296875 -38.111328125 68.7197265625 -37.3876953125Q69.646484375 -36.6640625 69.646484375 -35.2421875Q69.646484375 -33.8203125 68.072265625 -30.7861328125Q66.498046875 -27.751953125 64.2890625 -24.5908203125Q62.080078125 -21.4296875 59.287109375 -17.875ZM65.431640625 -33.896484375Q65.431640625 -34.27734375 65.177734375 -34.27734375Q64.2890625 -34.27734375 60.505859375 -29.19921875Q56.72265625 -24.12109375 55.0341796875 -21.099609375Q53.345703125 -18.078125 51.84765625 -13.5078125Q54.84375 -17.0625 60.1376953125 -24.5908203125Q65.431640625 -32.119140625 65.431640625 -33.896484375Z M65.431640625 -17.21484375Q69.5703125 -20.541015625 72.693359375 -20.541015625Q74.08984375 -20.541015625 74.80078125 -19.85546875Q75.0546875 -19.626953125 75.0546875 -19.44921875V-19.296875Q75.41015625 -19.34765625 76.171875 -19.34765625Q76.93359375 -19.34765625 77.7333984375 -18.662109375Q78.533203125 -17.9765625 78.533203125 -16.5673828125Q78.533203125 -15.158203125 77.54296875 -12.9111328125Q76.552734375 -10.6640625 74.826171875 -8.3408203125Q73.099609375 -6.017578125 71.0302734375 -3.9736328125Q68.9609375 -1.9296875 66.5615234375 -0.6220703125Q64.162109375 0.685546875 62.20703125 0.685546875Q60.251953125 0.685546875 59.0712890625 -0.5458984375Q57.890625 -1.77734375 57.890625 -3.9736328125Q57.890625 -6.169921875 58.9697265625 -8.8359375Q60.048828125 -11.501953125 61.75 -13.5458984375Q63.451171875 -15.58984375 65.431640625 -17.21484375ZM73.607421875 -15.970703125H73.4296875Q72.541015625 -15.970703125 72.541015625 -17.265625Q70.6875 -16.65625 68.65625 -15.1328125Q66.625 -13.609375 65.025390625 -11.52734375Q61.775390625 -7.36328125 61.724609375 -4.494140625Q61.724609375 -3.072265625 62.765625 -3.072265625Q63.806640625 -3.072265625 65.86328125 -4.443359375Q67.919921875 -5.814453125 69.9384765625 -8.353515625Q71.95703125 -10.892578125 72.9599609375 -12.7587890625Q73.962890625 -14.625 73.962890625 -15.2978515625Q73.962890625 -15.970703125 73.607421875 -15.970703125Z M91.228515625 -3.91015625Q91.228515625 -2.79296875 92.751953125 -2.79296875Q93.564453125 -2.79296875 94.7958984375 -3.60546875Q96.02734375 -4.41796875 97.017578125 -5.3828125Q99.658203125 -7.998046875 100.013671875 -7.998046875Q100.673828125 -7.998046875 100.673828125 -6.09375Q100.673828125 -4.189453125 99.48046875 -3.478515625Q95.849609375 -0.203125 93.869140625 0.5078125Q92.751953125 0.888671875 91.40625 0.86328125Q90.060546875 0.837890625 88.740234375 -0.3046875Q87.419921875 -1.447265625 87.419921875 -3.0849609375Q87.419921875 -4.72265625 88.283203125 -6.8046875Q89.146484375 -8.88671875 90.0478515625 -10.3720703125Q90.94921875 -11.857421875 92.26953125 -13.8251953125Q93.58984375 -15.79296875 93.666015625 -16.275390625L93.615234375 -16.326171875Q92.77734375 -16.25 89.4638671875 -13.025390625Q86.150390625 -9.80078125 83.9921875 -7.4140625Q81.833984375 -5.02734375 78.837890625 -1.041015625Q78.0 0.05078125 77.466796875 0.05078125Q76.93359375 0.05078125 76.0322265625 -0.2919921875Q75.130859375 -0.634765625 74.927734375 -0.787109375Q74.724609375 -0.939453125 74.724609375 -1.244140625Q74.724609375 -1.548828125 74.90234375 -1.9931640625Q75.080078125 -2.4375 75.2451171875 -2.7294921875Q75.41015625 -3.021484375 75.791015625 -3.630859375Q76.171875 -4.240234375 77.3017578125 -6.2080078125Q78.431640625 -8.17578125 80.767578125 -12.0859375Q83.103515625 -15.99609375 83.560546875 -16.80859375Q84.525390625 -18.484375 85.134765625 -19.24609375Q86.27734375 -20.693359375 88.994140625 -20.693359375Q89.603515625 -20.693359375 89.603515625 -19.931640625Q89.603515625 -18.73828125 87.39453125 -15.4375L86.328125 -13.837890625Q90.720703125 -18.712890625 93.7421875 -20.0078125Q95.21484375 -20.642578125 96.3955078125 -20.642578125Q97.576171875 -20.642578125 98.2744140625 -20.0078125Q98.97265625 -19.373046875 98.97265625 -18.5986328125Q98.97265625 -17.82421875 98.439453125 -16.7451171875Q97.90625 -15.666015625 97.3603515625 -14.8154296875Q96.814453125 -13.96484375 95.92578125 -12.669921875Q95.037109375 -11.375 94.9609375 -11.2607421875Q94.884765625 -11.146484375 94.5673828125 -10.6513671875Q94.25 -10.15625 94.09765625 -9.927734375Q93.9453125 -9.69921875 93.58984375 -9.1279296875Q93.234375 -8.556640625 93.0185546875 -8.17578125Q92.802734375 -7.794921875 92.4853515625 -7.236328125Q92.16796875 -6.677734375 91.9775390625 -6.271484375Q91.787109375 -5.865234375 91.583984375 -5.3828125Q91.228515625 -4.494140625 91.228515625 -3.91015625Z M101.080078125 -5.078125 101.0546875 -4.671875Q101.0546875 -4.037109375 101.537109375 -3.580078125Q102.01953125 -3.123046875 102.42578125 -3.123046875Q105.47265625 -3.123046875 107.8212890625 -4.037109375Q110.169921875 -4.951171875 110.169921875 -5.865234375Q110.169921875 -6.296875 109.3193359375 -6.6142578125Q108.46875 -6.931640625 106.4501953125 -7.4013671875Q104.431640625 -7.87109375 103.517578125 -8.1376953125Q102.603515625 -8.404296875 102.0703125 -8.6328125Q101.537109375 -8.861328125 100.978515625 -9.267578125Q99.78515625 -10.10546875 99.78515625 -11.7685546875Q99.78515625 -13.431640625 101.0166015625 -15.0693359375Q102.248046875 -16.70703125 104.1015625 -17.875Q105.955078125 -19.04296875 108.087890625 -19.931640625Q112.302734375 -21.68359375 115.171875 -21.68359375Q117.990234375 -21.68359375 118.650390625 -20.46484375Q118.853515625 -20.033203125 118.853515625 -19.5V-19.322265625Q118.853515625 -17.9765625 118.2822265625 -17.21484375Q117.7109375 -16.453125 116.4794921875 -15.84375Q115.248046875 -15.234375 114.5244140625 -15.234375Q113.80078125 -15.234375 113.6103515625 -15.3359375Q113.419921875 -15.4375 113.29296875 -15.6025390625Q113.166015625 -15.767578125 112.9755859375 -15.84375Q112.78515625 -15.919921875 112.78515625 -16.224609375Q112.78515625 -16.529296875 113.0390625 -16.8466796875Q113.29296875 -17.1640625 113.39453125 -17.51953125Q111.71875 -17.443359375 109.890625 -16.7451171875Q108.0625 -16.046875 106.7548828125 -15.18359375Q105.447265625 -14.3203125 104.583984375 -13.533203125Q103.720703125 -12.74609375 103.720703125 -12.3779296875Q103.720703125 -12.009765625 104.888671875 -11.78125Q110.14453125 -10.740234375 111.794921875 -9.978515625Q113.4453125 -9.216796875 114.080078125 -8.251953125Q114.71484375 -7.287109375 114.71484375 -6.5Q114.71484375 -4.875 113.419921875 -3.427734375Q112.125 -1.98046875 110.220703125 -1.06640625Q106.1328125 0.939453125 103.0986328125 0.939453125Q100.064453125 0.939453125 98.9091796875 0.0126953125Q97.75390625 -0.9140625 97.75390625 -2.18359375Q97.75390625 -3.453125 98.4013671875 -4.5322265625Q99.048828125 -5.611328125 100.064453125 -5.611328125Q101.080078125 -5.611328125 101.080078125 -5.078125Z" fill="#33394E"/><g transform="translate(127.27 -12.74) skewX(-12)"><rect x="-7.80" y="-2.73" width="15.60" height="5.46" rx="2.73" fill="#C92C6B"/></g><path d="M9.267578125 8.4296875Q9.140625 8.556640625 8.4931640625 9.7119140625Q7.845703125 10.8671875 7.109375 12.0478515625Q6.373046875 13.228515625 5.2939453125 14.294921875Q4.21484375 15.361328125 3.4912109375 15.4501953125Q2.767578125 15.5390625 2.564453125 15.5390625Q0.228515625 15.5390625 0.228515625 13.177734375Q0.228515625 10.41015625 3.09765625 6.703125Q4.189453125 5.306640625 5.83984375 3.6943359375Q7.490234375 2.08203125 7.642578125 1.8662109375Q7.794921875 1.650390625 11.451171875 -5.255859375Q9.013671875 -2.58984375 6.931640625 -0.9267578125Q4.849609375 0.736328125 2.919921875 0.939453125H2.7421875Q1.751953125 0.939453125 0.787109375 0.2919921875Q-0.177734375 -0.35546875 -0.177734375 -1.98046875Q-0.177734375 -4.392578125 1.1171875 -6.65234375Q1.57421875 -7.439453125 2.7041015625 -9.318359375Q3.833984375 -11.197265625 4.798828125 -12.94921875Q5.712890625 -14.345703125 6.677734375 -16.19921875Q7.642578125 -18.052734375 8.150390625 -18.8525390625Q8.658203125 -19.65234375 9.115234375 -19.65234375Q9.572265625 -19.65234375 10.2958984375 -19.0810546875Q11.01953125 -18.509765625 11.01953125 -17.72265625Q11.01953125 -16.935546875 7.693359375 -10.892578125Q4.3671875 -4.849609375 4.3671875 -4.01171875Q4.3671875 -3.80859375 4.5703125 -3.80859375Q5.255859375 -3.80859375 7.6044921875 -5.7509765625Q9.953125 -7.693359375 12.796875 -10.740234375Q15.970703125 -14.1171875 17.7734375 -16.91015625Q18.001953125 -17.265625 18.1416015625 -17.4560546875Q18.28125 -17.646484375 18.4970703125 -17.9638671875Q18.712890625 -18.28125 18.8525390625 -18.458984375Q18.9921875 -18.63671875 19.1826171875 -18.8779296875Q19.373046875 -19.119140625 19.525390625 -19.24609375Q19.677734375 -19.373046875 19.85546875 -19.5Q20.134765625 -19.75390625 20.4775390625 -19.75390625Q20.8203125 -19.75390625 21.5185546875 -19.6015625Q22.216796875 -19.44921875 22.3564453125 -19.271484375Q22.49609375 -19.09375 22.6484375 -18.94140625Q22.90234375 -18.662109375 22.90234375 -18.4208984375Q22.90234375 -18.1796875 22.69921875 -17.7861328125Q22.49609375 -17.392578125 20.337890625 -13.76171875Q13.990234375 -3.046875 11.603515625 1.87890625Q15.462890625 -1.37109375 22.470703125 -7.744140625Q22.75 -7.97265625 23.029296875 -7.97265625Q23.81640625 -7.97265625 23.81640625 -5.560546875Q23.81640625 -4.849609375 23.5625 -4.62109375Q15.970703125 1.21875 9.267578125 8.4296875Z" fill="#33394E" transform="translate(138.71 0)"/><path d="M5.148 0.1404Q3.1824 0.1404 2.0202 -0.8267999999999999Q0.858 -1.7939999999999998 0.6552 -3.5879999999999996H1.9032Q2.0747999999999998 -2.2931999999999997 2.886 -1.638Q3.6972 -0.9828 5.1324 -0.9828Q6.3492 -0.9828 6.9654 -1.443Q7.5816 -1.9032 7.5816 -2.7923999999999998Q7.5816 -3.5568 7.160399999999999 -4.0092Q6.739199999999999 -4.4616 5.85 -4.758L3.9623999999999997 -5.4132Q2.5271999999999997 -5.9124 1.8407999999999998 -6.622199999999999Q1.1543999999999999 -7.332 1.1543999999999999 -8.424Q1.1543999999999999 -9.3288 1.6067999999999998 -9.9918Q2.0591999999999997 -10.6548 2.8859999999999997 -11.0292Q3.7127999999999997 -11.403599999999999 4.8048 -11.403599999999999Q6.489599999999999 -11.403599999999999 7.5036 -10.522199999999998Q8.5176 -9.640799999999999 8.6736 -8.0184H7.425599999999999Q7.222799999999999 -9.1884 6.590999999999999 -9.7344Q5.9592 -10.2804 4.7736 -10.2804Q3.6504 -10.2804 3.0263999999999998 -9.828Q2.4024 -9.3756 2.4024 -8.5488Q2.4024 -7.8468 2.8392 -7.425599999999999Q3.276 -7.0043999999999995 4.1964 -6.6924L6.2088 -5.990399999999999Q7.5192 -5.537999999999999 8.174399999999999 -4.7658Q8.8296 -3.9936 8.8296 -2.808Q8.8296 -1.404 7.8702 -0.6317999999999999Q6.9108 0.1404 5.148 0.1404Z M33.721748125 0.0V-10.108799999999999H29.868548124999997V-11.232H38.854148124999995V-10.108799999999999H35.000948125V0.0Z M64.88509625 0.156Q62.85709625 0.156 61.72609625 -1.0841999999999998Q60.59509625 -2.3244 60.59509625 -4.5552V-11.232H61.87429625V-4.4928Q61.87429625 -2.808 62.65429625 -1.9032Q63.43429625 -0.9984 64.88509625 -0.9984Q66.36709625 -0.9984 67.14709625 -1.8954Q67.92709625 -2.7923999999999998 67.92709625 -4.4928V-11.232H69.20629625V-4.5396Q69.20629625 -2.3244 68.06749625 -1.0841999999999998Q66.92869625 0.156 64.88509625 0.156Z M92.75684437499999 0.0V-1.1232H95.76764437499999Q97.17164437499999 -1.1232 98.18564437499998 -1.6926Q99.19964437499999 -2.262 99.74564437499998 -3.2916Q100.29164437499999 -4.3212 100.29164437499999 -5.6784Q100.29164437499999 -7.02 99.74564437499998 -8.0184Q99.19964437499999 -9.0168 98.19344437499998 -9.5628Q97.18724437499999 -10.108799999999999 95.76764437499999 -10.108799999999999H92.75684437499999V-11.232H95.76764437499999Q97.53044437499999 -11.232 98.84084437499999 -10.5378Q100.15124437499999 -9.8436 100.87664437499998 -8.5878Q101.60204437499999 -7.332 101.60204437499999 -5.6472Q101.60204437499999 -3.9623999999999997 100.868844375 -2.691Q100.135644375 -1.4196 98.83304437499999 -0.7098Q97.53044437499999 0.0 95.783244375 0.0ZM91.99244437499999 0.0V-11.232H93.271644375V0.0Z M123.92019249999998 0.0V-11.232H125.19939249999999V0.0Z M152.86834062499997 0.156Q151.698340625 0.156 150.723340625 -0.27299999999999996Q149.74834062499997 -0.702 149.03074062499996 -1.4898Q148.313140625 -2.2776 147.915340625 -3.3384Q147.51754062499998 -4.3991999999999996 147.51754062499998 -5.6628Q147.51754062499998 -7.332 148.20394062499997 -8.6268Q148.890340625 -9.9216 150.09934062499997 -10.6548Q151.30834062499997 -11.388 152.85274062499997 -11.388Q154.42834062499998 -11.388 155.63734062499998 -10.6548Q156.84634062499998 -9.9216 157.53274062499997 -8.6268Q158.21914062499997 -7.332 158.21914062499997 -5.6472Q158.21914062499997 -4.3835999999999995 157.82134062499998 -3.3228Q157.423540625 -2.262 156.70594062499998 -1.482Q155.98834062499998 -0.702 155.00554062499998 -0.27299999999999996Q154.02274062499998 0.156 152.86834062499997 0.156ZM152.85274062499997 -0.9984Q154.05394062499997 -0.9984 154.966540625 -1.5989999999999998Q155.879140625 -2.1995999999999998 156.39394062499997 -3.2603999999999997Q156.90874062499998 -4.3212 156.90874062499998 -5.6784Q156.90874062499998 -7.02 156.40174062499997 -8.0496Q155.89474062499997 -9.0792 154.98214062499997 -9.6564Q154.06954062499997 -10.2336 152.85274062499997 -10.2336Q151.635940625 -10.2336 150.73114062499997 -9.6564Q149.82634062499997 -9.0792 149.32714062499997 -8.0574Q148.82794062499997 -7.0356 148.82794062499997 -5.6784Q148.82794062499997 -4.3056 149.33494062499997 -3.2526Q149.84194062499998 -2.1995999999999998 150.74674062499997 -1.5989999999999998Q151.65154062499997 -0.9984 152.85274062499997 -0.9984Z" fill="#6B6F80" transform="translate(0 33.28)"/></g></g></svg>