<?xml version="1.0" encoding="UTF-8" standalone="no"?>
<!-- Created with Inkscape (http://www.inkscape.org/) -->

<svg
   version="1.1"
   id="svg1"
   width="1200"
   height="630"
   viewBox="0 0 1200 630"
   sodipodi:docname="studio_banner_simple.svg"
   inkscape:version="1.4.3 (0d15f750, 2025-12-25)"
   inkscape:export-filename="studio_banner_simple.png"
   inkscape:export-xdpi="96"
   inkscape:export-ydpi="96"
   xmlns:inkscape="http://www.inkscape.org/namespaces/inkscape"
   xmlns:sodipodi="http://sodipodi.sourceforge.net/DTD/sodipodi-0.dtd"
   xmlns:xlink="http://www.w3.org/1999/xlink"
   xmlns="http://www.w3.org/2000/svg"
   xmlns:svg="http://www.w3.org/2000/svg">
  <defs
     id="defs1">
    <filter
       style="color-interpolation-filters:sRGB;"
       inkscape:label="Drop Shadow"
       id="filter42"
       x="-0.015264541"
       y="-0.025699778"
       width="1.0347692"
       height="1.0585384">
      <feFlood
         result="flood"
         in="SourceGraphic"
         flood-opacity="0.498039"
         flood-color="rgb(0,0,0)"
         id="feFlood41" />
      <feGaussianBlur
         result="blur"
         in="SourceGraphic"
         stdDeviation="6.000000"
         id="feGaussianBlur41" />
      <feOffset
         result="offset"
         in="blur"
         dx="4.000000"
         dy="4.000000"
         id="feOffset41" />
      <feComposite
         result="comp1"
         operator="in"
         in="flood"
         in2="offset"
         id="feComposite41" />
      <feComposite
         result="comp2"
         operator="over"
         in="SourceGraphic"
         in2="comp1"
         id="feComposite42" />
    </filter>
  </defs>
  <sodipodi:namedview
     id="namedview1"
     pagecolor="#ffffff"
     bordercolor="#000000"
     borderopacity="0.25"
     inkscape:showpageshadow="2"
     inkscape:pageopacity="0.0"
     inkscape:pagecheckerboard="0"
     inkscape:deskcolor="#d1d1d1"
     inkscape:zoom="0.68118214"
     inkscape:cx="555.65168"
     inkscape:cy="212.13122"
     inkscape:window-width="1512"
     inkscape:window-height="834"
     inkscape:window-x="0"
     inkscape:window-y="33"
     inkscape:window-maximized="0"
     inkscape:current-layer="a2"
     inkscape:export-bgcolor="#ffffff00" />
  <g
     inkscape:groupmode="layer"
     inkscape:label="Image"
     id="g1"
     style="display:inline;opacity:0.745">
    <path
       sodipodi:type="star"
       style="display:inline;fill:#f8cca2;fill-opacity:0.50337076;stroke:#f4ae6b;stroke-width:5;stroke-linecap:round;stroke-linejoin:bevel;stroke-miterlimit:10;stroke-dasharray:none;stroke-opacity:0.83595508;paint-order:markers fill stroke"
       id="path1499"
       inkscape:flatsided="true"
       sodipodi:sides="3"
       sodipodi:cx="444.07413"
       sodipodi:cy="-146.92416"
       sodipodi:r1="229.06166"
       sodipodi:r2="114.53083"
       sodipodi:arg1="1.0167806"
       sodipodi:arg2="2.0639782"
       inkscape:rounded="0"
       inkscape:randomized="0"
       d="M 564.58496,47.874152 215.11842,-139.95788 552.519,-348.68876 Z"
       inkscape:transform-center-x="54.222441"
       inkscape:transform-center-y="-3.483138"
       transform="translate(-389.59665,736.27162)" />
    <path
       style="display:inline;fill:#f4dbe2;stroke:none;stroke-width:3.92358;stroke-linecap:round;stroke-linejoin:bevel;stroke-miterlimit:10;paint-order:markers fill stroke;fill-opacity:1"
       id="path1494-6"
       sodipodi:type="arc"
       sodipodi:cx="208.01866"
       sodipodi:cy="114.37355"
       sodipodi:rx="293.18613"
       sodipodi:ry="205.39449"
       sodipodi:start="0"
       sodipodi:end="6.2793881"
       sodipodi:open="true"
       sodipodi:arc-type="arc"
       d="M 501.20479,114.37355 A 293.18613,205.39449 0 0 1 208.29698,319.76794 293.18613,205.39449 0 0 1 -85.166937,114.76351 293.18613,205.39449 0 0 1 207.1837,-91.020102 293.18613,205.39449 0 0 1 501.20267,113.59363" />
    <path
       style="display:inline;fill:#fbf3e4;stroke:none;stroke-width:2.34537;stroke-linecap:round;stroke-linejoin:bevel;stroke-miterlimit:10;paint-order:markers fill stroke;fill-opacity:1"
       id="path1494-2"
       sodipodi:type="arc"
       sodipodi:cx="539.72845"
       sodipodi:cy="221.71432"
       sodipodi:rx="170.82782"
       sodipodi:ry="125.96018"
       sodipodi:start="0"
       sodipodi:end="6.2793881"
       sodipodi:open="true"
       sodipodi:arc-type="arc"
       d="M 710.55627,221.71432 A 170.82782,125.96018 0 0 1 539.89062,347.67445 170.82782,125.96018 0 0 1 368.90094,221.95347 170.82782,125.96018 0 0 1 539.24195,95.754654 170.82782,125.96018 0 0 1 710.55504,221.23603" />
    <path
       style="display:inline;fill:#f8cca2;stroke:none;stroke-width:3.43628;stroke-linecap:round;stroke-linejoin:bevel;stroke-miterlimit:10;paint-order:markers fill stroke"
       id="path1494-7"
       sodipodi:type="arc"
       sodipodi:cx="1032.6003"
       sodipodi:cy="371.45135"
       sodipodi:rx="261.13858"
       sodipodi:ry="176.8788"
       sodipodi:start="0"
       sodipodi:end="6.2793881"
       sodipodi:open="true"
       sodipodi:arc-type="arc"
       d="M 1293.7389,371.45135 A 261.13858,176.8788 0 0 1 1032.8482,548.33007 261.13858,176.8788 0 0 1 771.46223,371.78718 261.13858,176.8788 0 0 1 1031.8566,194.57327 261.13858,176.8788 0 0 1 1293.737,370.77971" />
    <path
       style="display:inline;fill:#d4ecf0;stroke:none;stroke-width:3;stroke-linecap:round;stroke-linejoin:bevel;stroke-miterlimit:10;paint-order:markers fill stroke;fill-opacity:1"
       id="path1494"
       sodipodi:type="arc"
       sodipodi:cx="399.60336"
       sodipodi:cy="554.50012"
       sodipodi:rx="198.79257"
       sodipodi:ry="177.09694"
       sodipodi:start="0"
       sodipodi:end="6.2793881"
       sodipodi:open="true"
       sodipodi:arc-type="arc"
       d="M 598.39594,554.50012 A 198.79257,177.09694 0 0 1 399.79208,731.59698 198.79257,177.09694 0 0 1 200.81115,554.83636 198.79257,177.09694 0 0 1 399.03722,377.4039 198.79257,177.09694 0 0 1 598.3945,553.82765" />
    <path
       sodipodi:type="star"
       style="fill:#ecafc5;fill-opacity:1;stroke:none;stroke-width:3;stroke-linecap:round;stroke-linejoin:bevel;stroke-miterlimit:10;paint-order:markers fill stroke"
       id="path1495"
       inkscape:flatsided="true"
       sodipodi:sides="5"
       sodipodi:cx="-2.1947453"
       sodipodi:cy="149.24268"
       sodipodi:r1="209.25317"
       sodipodi:r2="169.28937"
       sodipodi:arg1="-0.85591303"
       sodipodi:arg2="-0.2275945"
       inkscape:rounded="0"
       inkscape:randomized="0"
       d="M 134.97684,-8.7789909 190.48114,230.86922 -20.286083,357.71232 -206.05169,196.45746 -110.09393,-30.046634 Z"
       inkscape:transform-center-x="5.590531"
       inkscape:transform-center-y="14.590169"
       transform="translate(-29.348039,-125.54439)" />
    <path
       sodipodi:type="star"
       style="display:inline;fill:none;fill-opacity:1;stroke:#76c3cf;stroke-width:3;stroke-linecap:round;stroke-linejoin:bevel;stroke-miterlimit:10;stroke-opacity:0.89999998;paint-order:markers fill stroke"
       id="path1495-4"
       inkscape:flatsided="true"
       sodipodi:sides="5"
       sodipodi:cx="-2.1947453"
       sodipodi:cy="149.24268"
       sodipodi:r1="47.80406"
       sodipodi:r2="169.28937"
       sodipodi:arg1="-0.098799461"
       sodipodi:arg2="0.52951907"
       inkscape:rounded="0"
       inkscape:randomized="0"
       d="m 45.376191,144.52734 -28.386158,48.50087 -54.898869,-12.00925 -5.54321,-55.92299 51.4729778,-22.55306 z"
       inkscape:transform-center-x="11.080628"
       inkscape:transform-center-y="28.918146"
       transform="matrix(1.9820296,0,0,1.9820296,1082.0185,291.63962)" />
    <path
       sodipodi:type="star"
       style="fill:none;fill-opacity:1;stroke:#f8ead0;stroke-width:3;stroke-linecap:round;stroke-linejoin:bevel;stroke-miterlimit:10;stroke-opacity:0.89999998;paint-order:markers fill stroke"
       id="path1497"
       inkscape:flatsided="false"
       sodipodi:sides="5"
       sodipodi:cx="1108.7037"
       sodipodi:cy="-99.457245"
       sodipodi:r1="154.14404"
       sodipodi:r2="43.527313"
       sodipodi:arg1="1.1686823"
       sodipodi:arg2="1.7970008"
       inkscape:rounded="0"
       inkscape:randomized="0"
       d="m 1169.0303,42.391606 -70.0889,-99.43041 -106.50202,58.7891989 72.90532,-97.3841379 -88.82281,-83.122587 115.14681,39.2437 51.6065,-110.16179 -1.7406,121.63808 120.7173,15.03887 -116.2226,35.932762 z"
       inkscape:transform-center-x="-10.683175"
       inkscape:transform-center-y="-4.1841604"
       transform="translate(-254.34967,117.39216)" />
    <path
       style="fill:none;fill-opacity:1;stroke:#bf2d62;stroke-width:5;stroke-linecap:round;stroke-linejoin:bevel;stroke-miterlimit:10;stroke-dasharray:none;stroke-opacity:0.422472;paint-order:markers fill stroke"
       d="M -17.674966,349.16525 C 138.74847,678.13824 208.88229,684.996 674.19137,387.39415 1169.9286,63.990496 1253.0057,630.20351 1253.0057,630.20351"
       id="path1498"
       sodipodi:nodetypes="ccc" />
    <path
       style="display:inline;fill:#358b99;fill-opacity:1;stroke:none;stroke-width:1.05489;stroke-linecap:round;stroke-linejoin:bevel;stroke-miterlimit:10;stroke-dasharray:none;stroke-opacity:1;paint-order:markers fill stroke"
       id="path1494-0"
       sodipodi:type="arc"
       sodipodi:cx="1099.7026"
       sodipodi:cy="77.942757"
       sodipodi:rx="13.702113"
       sodipodi:ry="12.186845"
       sodipodi:start="0"
       sodipodi:end="6.2538861"
       sodipodi:open="true"
       sodipodi:arc-type="arc"
       d="m 1113.4047,77.942757 a 13.702113,12.186845 0 0 1 -13.6017,12.186518 13.702113,12.186845 0 0 1 -13.801,-12.007992 13.702113,12.186845 0 0 1 13.3996,-12.362429 13.702113,12.186845 0 0 1 13.9973,11.826889" />
    <path
       style="display:inline;fill:none;fill-opacity:1;stroke:#378f9e;stroke-width:4.88045;stroke-linecap:round;stroke-linejoin:bevel;stroke-miterlimit:10;stroke-dasharray:none;stroke-opacity:0.38876405;paint-order:markers fill stroke"
       id="path1494-0-4"
       sodipodi:type="arc"
       sodipodi:cx="1100.2207"
       sodipodi:cy="77.262306"
       sodipodi:rx="63.392879"
       sodipodi:ry="56.382484"
       sodipodi:start="0"
       sodipodi:end="6.2538861"
       sodipodi:open="true"
       sodipodi:arc-type="arc"
       d="m 1163.6136,77.262306 a 63.392879,56.382484 0 0 1 -62.9286,56.380974 63.392879,56.382484 0 0 1 -63.8504,-55.555022 63.392879,56.382484 0 0 1 61.9932,-57.194824 63.392879,56.382484 0 0 1 64.7586,54.717146" />
    <path
       style="display:inline;fill:none;fill-opacity:1;stroke:#378f9e;stroke-width:8.36504;stroke-linecap:round;stroke-linejoin:bevel;stroke-miterlimit:10;stroke-dasharray:none;stroke-opacity:0.35955057;paint-order:markers fill stroke"
       id="path1494-0-0"
       sodipodi:type="arc"
       sodipodi:cx="1110.2881"
       sodipodi:cy="67.88504"
       sodipodi:rx="108.65483"
       sodipodi:ry="96.639076"
       sodipodi:start="0"
       sodipodi:end="6.2538861"
       sodipodi:open="true"
       sodipodi:arc-type="arc"
       d="m 1218.9429,67.88504 a 108.65483,96.639076 0 0 1 -107.8589,96.63648 108.65483,96.639076 0 0 1 -109.4391,-95.220806 108.65483,96.639076 0 0 1 106.2558,-98.031419 108.65483,96.639076 0 0 1 110.9956,93.784702" />
    <path
       style="display:inline;fill:none;fill-opacity:1;stroke:#f4ae6b;stroke-width:4.83382;stroke-linecap:round;stroke-linejoin:bevel;stroke-miterlimit:10;stroke-dasharray:none;stroke-opacity:0.397753;paint-order:markers fill stroke"
       d="M 1200.9755,201.10127 C 666.89926,-6.2939198 610.46066,357.11942 296.2806,363.13283 117.10708,349.93579 -18.69559,104.16248 -18.69559,104.16248"
       id="path1498-8"
       sodipodi:nodetypes="ccc" />
    <path
       style="display:inline;fill:#f8cca2;fill-opacity:0.85000002;stroke:none;stroke-width:1.05489;stroke-linecap:round;stroke-linejoin:bevel;stroke-miterlimit:10;stroke-dasharray:none;stroke-opacity:1;paint-order:markers fill stroke"
       id="path1494-0-5"
       sodipodi:type="arc"
       sodipodi:cx="207.70213"
       sodipodi:cy="399.18686"
       sodipodi:rx="13.702113"
       sodipodi:ry="12.186845"
       sodipodi:start="0"
       sodipodi:end="6.2538861"
       sodipodi:open="true"
       sodipodi:arc-type="arc"
       d="m 221.40425,399.18686 a 13.702113,12.186845 0 0 1 -13.60175,12.18652 13.702113,12.186845 0 0 1 -13.80101,-12.00799 13.702113,12.186845 0 0 1 13.39957,-12.36243 13.702113,12.186845 0 0 1 13.99731,11.82689" />
    <path
       style="fill:#a2d6de;fill-opacity:0.53965515;stroke:none;stroke-width:97.6558;stroke-linecap:round;stroke-linejoin:bevel;stroke-miterlimit:10;stroke-opacity:0.89999998;paint-order:markers fill stroke"
       id="path2"
       sodipodi:type="arc"
       sodipodi:cx="139.26555"
       sodipodi:cy="71.616478"
       sodipodi:rx="134.32713"
       sodipodi:ry="1.0660883"
       sodipodi:start="6.2642564"
       sodipodi:end="0.09259241"
       sodipodi:open="true"
       sodipodi:arc-type="arc"
       d="m 273.56862,71.596299 a 134.32713,1.0660883 0 0 1 -0.55134,0.11875" />
  </g>
  <a
     id="a2"
     xlink:href="https://allons-y.studio">
    <path
       style="display:inline;mix-blend-mode:normal;stroke:none;stroke-width:0.717056;filter:url(#filter42)"
       d="m 303.99591,173.83394 c -42.55045,-17.73305 -96.08316,-14.92264 -135.52365,9.68315 -23.08524,14.40222 -42.01532,39.27043 -40.00732,67.75893 2.83805,40.2647 43.6458,54.40164 78.01131,43.86658 26.15366,-8.01765 45.62857,-27.5927 62.61461,-48.16891 15.22655,-18.44484 31.57865,-39.36738 42.07561,-60.9498 14.57057,7.36712 28.63098,20.59393 33.54597,36.56988 3.79733,12.34303 0.77897,26.71127 0.88092,39.4381 0.28743,35.88146 14.29408,89.04912 59.5011,87.40492 2.71086,-0.0986 11.6123,-3.14638 6.40208,-6.88366 -8.83146,-6.33481 -17.85881,-5.35514 -25.62116,-15.27758 -14.64791,-18.72415 -15.91029,-43.93371 -15.91029,-66.67779 0,-54.83341 16.96124,-108.78258 37.29082,-159.1865 6.1807,-15.324065 12.9456,-30.568732 20.68153,-45.174553 2.33848,-4.415167 9.49798,-13.062644 8.43745,-18.241613 -1.81372,-8.857022 -25.3038,3.525896 -29.12287,5.748533 -25.6492,14.927457 -44.23002,40.305099 -61.03999,64.121133 -14.79349,20.9591 -30.81541,42.94473 -42.21612,65.96918 m 162.05473,68.12035 c 3.1762,9.92328 3.26198,20.79529 11.61089,28.30567 6.26635,5.637 14.17167,5.45371 22.09076,5.38755 22.54534,-0.18834 43.2026,-14.02141 58.79861,-29.39088 13.04812,45.60361 58.32049,51.70566 93.93439,37.92241 17.07101,-6.6068 14.95464,-8.05943 29.91579,-19.69387 -2.47876,8.09202 -4.29097,17.37438 -0.31684,19.04651 8.99967,3.78664 17.00038,2.25726 21.5806,-3.71165 6.17848,-8.05176 7.92456,-21.21364 11.34222,-30.68267 6.02385,-16.68976 13.6038,-36.41397 23.79507,-50.96802 3.48339,-4.97458 13.7551,-21.64071 21.62959,-17.7699 7.12802,3.50388 -0.10722,17.94786 -2.08526,22.78929 -7.60787,18.62123 -18.49392,37.98852 -16.6811,58.79863 1.53587,17.63063 17.88873,24.65303 32.79229,16.09413 6.45962,-3.70966 11.01217,-9.75882 16.49229,-14.66002 12.72753,32.85533 60.58516,20.49613 71.16477,-7.17056 11.00416,-28.77688 -11.32513,-47.17211 -16.46219,-73.13975 -1.67993,-8.49207 19.08031,-35.79159 -3.07518,-33.78301 -7.73968,0.70169 -13.87948,7.61023 -16.63025,14.42257 -2.52404,6.25084 -1.92422,12.94785 -3.5878,19.36044 -2.16959,8.36331 -6.73903,16.61632 -10.47059,24.37991 -5.4041,11.24327 -15.11656,19.24901 -20.29103,30.1166 -2.86704,6.02149 -12.64144,31.63249 -22.78636,26.89009 -7.17148,-3.35244 0.85706,-20.54386 2.55946,-25.45621 6.34133,-18.29832 17.77471,-36.6462 16.60692,-56.64745 -1.42598,-24.42354 -27.08511,-22.64407 -41.48069,-10.36659 -6.69347,5.70862 -11.6789,12.92973 -17.2139,19.68832 0.88879,-6.59442 3.40331,-15.75497 0.64839,-22.10672 -3.30532,-7.62078 -15.52167,-9.34436 -20.65564,-2.72586 -3.75671,4.84298 -4.51988,12.29556 -5.22908,18.37908 -3.33377,28.59707 -0.028,46.56134 -32.5896,73.29805 15.55589,-20.14736 13.28551,-61.34436 7.21877,-69.78521 -5.48784,-7.6354 -24.51182,11.64014 -58.02786,11.44431 -41.90927,-0.24488 -58.76999,-23.50785 -62.19615,-16.30522 -7.71037,16.20909 -0.15831,45.52018 -38.62207,63.11843 -9.18959,4.20447 -22.26792,1.54374 -27.17117,-7.98798 -5.29151,-10.28649 2.12259,-31.96066 5.56228,-42.26497 4.23752,-12.69435 18.97945,-22.73747 27.31672,-32.98459 16.18655,-19.89454 30.34947,-41.61587 40.43872,-65.252119 5.51626,-12.923034 16.88785,-38.351702 6.05572,-51.262308 -5.66507,-6.752075 -14.94352,-5.490924 -22.0859,-2.120529 -14.47614,6.831023 -23.96265,22.201433 -31.89387,35.456428 -16.91625,28.271168 -29.45782,60.255358 -38.76657,91.783208 -4.76602,16.14199 -6.1366,35.08241 -13.54116,50.19394 -5.22321,10.65976 -19.73986,37.91758 -34.08053,36.43593 -7.30564,-0.75481 -8.53995,-9.80841 -8.55772,-15.6413 -0.0469,-15.38148 3.41335,-32.77425 8.29219,-47.32523 4.3513,-12.97761 20.31144,-23.75328 28.86316,-34.41918 16.97263,-21.16871 31.38498,-44.2764 41.34679,-69.554466 4.69741,-11.919664 13.01652,-33.518448 3.25152,-44.928327 -6.20211,-7.246844 -16.39778,-4.915665 -23.75122,-0.97549 -15.0895,8.085398 -24.85945,24.997185 -32.96256,39.45031 -24.73051,44.110733 -46.97746,100.072673 -48.02202,151.298883 -0.11213,5.49849 0.39163,11.13478 1.66222,16.49229 0.9396,3.96194 2.35179,7.93042 4.42695,11.44598 17.47757,29.60889 49.96729,-6.06048 59.83723,-22.91888 M 410.8373,52.651425 c -14.50394,31.409907 -32.21471,60.456765 -44.12501,93.217315 -7.55659,20.78528 -9.12885,45.44608 -18.25889,65.25213 -5.73052,-8.53679 -11.95708,-16.18974 -20.0776,-22.58877 -3.02874,-2.38667 -6.87386,-5.89047 -10.32145,-9.9158 -0.58544,-0.68355 50.22791,-102.235551 92.78295,-125.964875 m 30.11636,113.294895 c 7.07103,-28.96817 19.92968,-59.09543 34.03301,-85.329698 2.85697,-5.314377 11.0496,-25.133427 19.31132,-22.387832 8.21683,2.730665 -1.26948,24.652877 -3.1112,29.558396 -9.55512,25.450644 -26.91038,62.778364 -50.23313,78.159134 m 68.12036,0 c 0.0951,-10.13634 5.40834,-20.80457 9.05056,-30.11636 7.40016,-18.91949 15.1237,-37.898464 24.50772,-55.930394 2.49783,-4.799739 11.92123,-25.49843 19.57076,-21.415798 7.19202,3.838466 -2.05037,24.074607 -4.00062,29.303418 -9.52309,25.532794 -26.52762,61.844304 -49.12842,78.159134 M 639.15531,62.136073 c 8.17013,11.914679 6.20953,23.174895 2.63812,30.356178 -9.7123,19.529239 -30.63545,28.088139 -30.92706,51.047989 -0.0534,4.20628 7.12318,24.1335 14.95194,19.11826 4.5563,-2.91886 -4.46112,-16.48161 -3.44553,-21.94027 3.85195,-20.70387 33.50469,-29.45305 33.37143,-52.002837 -0.0712,-12.061174 -4.05261,-21.616975 -16.89461,-26.57932 m 31.14576,10.147559 c 2.19306,12.004885 1.21937,27.285456 -3.02879,34.005128 -9.69087,15.32882 -23.90735,17.19128 -28.35893,35.48129 -2.48773,10.2212 6.22218,34.83711 14.83619,32.37012 6.43499,-1.84292 -6.93409,-19.3139 -2.82797,-27.55437 4.96424,-19.20968 27.69709,-29.50345 30.22837,-47.795915 0.61017,-4.409431 -1.45599,-15.994939 -10.84887,-26.567834 m -64.9291,3.234433 c 5.22613,9.690651 1.68394,22.355164 -2.72922,27.955086 -11.74328,14.90117 -23.0744,21.85224 -27.95749,41.16632 -2.70191,10.68686 14.59653,35.45209 21.85401,33.07693 6.16763,-2.01847 -14.15337,-25.65458 -8.40306,-37.03419 8.10863,-16.04665 25.59348,-20.45953 28.61992,-38.88518 0.66086,-4.023466 2.19039,-18.607044 -11.47852,-26.278966 M 996.02807,256.25091 c 8.54293,22.80401 9.09123,32.53714 7.20553,42.64593 -0.6101,3.27156 -109.30862,-18.44818 -135.30686,40.48969 -7.86209,17.82331 -4.20425,32.98685 3.73055,43.24881 15.36172,12.70905 45.91456,9.96536 59.04601,7.21283 38.94881,-8.16424 65.73425,-40.95684 83.1786,-74.75413 46.8693,28.19593 58.5913,80.97199 36.7192,130.39948 -27.7716,51.00979 -64.18344,79.4224 -115.5956,103.84783 -109.55964,52.05065 -235.87514,44.14658 -346.33822,-0.42755 -28.2495,-11.39925 -52.22332,-28.24386 -78.8762,-42.36572 12.16523,-30.84043 21.40674,-59.01889 1.36465,-89.63204 -16.67554,-25.47095 -59.53019,-45.82165 -49.57646,-81.74442 6.90115,-24.90605 54.73455,-48.9817 70.23954,-17.89987 5.53578,11.09722 0.921,22.62559 -7.73449,30.56606 -3.81085,3.49604 -12.53391,6.98003 -12.18585,13.14108 0.46288,8.19325 11.73287,8.03132 17.25313,6.10673 11.09717,-3.86893 18.69318,-15.31183 21.87126,-26.17755 7.99218,-27.32497 -14.68346,-45.8471 -39.71202,-48.9033 -27.65471,-3.37687 -58.47384,11.73066 -70.31419,37.43039 -2.61365,5.67295 -4.54749,11.72125 -5.32256,17.92642 -5.32722,42.64896 35.63409,57.95788 53.30049,90.34909 9.39786,17.23093 8.0529,35.45254 0.73892,53.06217 -32.30268,-27.5239 -60.53717,-67.78747 -107.55845,-66.57646 -19.07093,0.49112 -38.03753,6.50964 -52.22233,19.64805 -25.53921,23.65515 -30.59969,67.7381 -6.40799,94.253 35.2458,38.63057 98.30596,32.09431 140.37474,9.42147 10.40333,-5.60686 20.14572,-12.81086 28.67407,-20.98318 3.06697,-2.93891 7.39656,-9.66551 12.23648,-9.2321 9.94675,0.89076 24.08918,14.47133 32.94625,19.43431 23.67157,13.26419 48.37369,23.8142 73.85681,33.03948 66.09159,23.92619 132.68641,26.75136 202.20988,24.92978 25.64774,-0.67198 52.42752,-7.98793 76.72504,-15.72214 62.58963,-19.9231 108.75986,-46.51636 151.1564,-97.63871 32.2767,-38.91957 45.2102,-116.30041 4.3476,-158.10492 -4.578,-4.68351 -21.2414,-15.23262 -27.1509,-18.18617 4.3938,-37.12907 3.7459,-47.2817 3.9086,-67.81852 0.1261,-15.92337 26.5368,-52.42646 27.1532,-66.29478 0.4104,-9.23744 -12.2599,-8.90614 -18.0618,-6.02369 -8.8667,4.40518 -10.9201,16.24209 -14.3023,24.64641 -7.5447,18.74679 -15.7393,37.56843 -26.88337,54.49628 -4.06256,6.17097 -12.80772,20.87358 -21.53786,20.2489 -9.44625,-0.67595 -3.66595,-17.49574 -2.2081,-22.40007 6.20971,-20.89128 18.01687,-40.27425 22.38615,-61.66685 2.20157,-10.7786 -5.40138,-20.24594 -16.92552,-15.13766 -7.77471,3.44623 -9.08511,16.5614 -11.87374,23.74234 -8.82789,22.73192 -23.46975,47.93977 -20.96443,73.13975 2.14385,21.56495 24.69178,24.15975 39.22626,12.37827 M 298.97651,180.28745 c -8.61788,19.63729 -23.8364,38.30115 -36.84669,55.21334 -16.96241,22.04955 -38.83375,46.21466 -67.12647,52.69064 -22.87435,5.23575 -47.23503,-5.18483 -50.50869,-30.4619 -3.46372,-26.74468 12.57686,-49.93796 34.01639,-64.26871 34.20013,-22.86029 82.08356,-28.35914 120.46546,-13.17337 m 528.5433,21.46717 c 8.12999,15.14221 14.45213,36.79477 8.837,53.77915 -4.06657,12.30029 -22.42658,21.91829 -31.40685,8.47937 -3.79343,-5.67685 -3.56545,-15.56061 3.30871,-18.77873 4.48605,-2.10016 10.63717,-0.92516 13.00403,-6.39238 2.76727,-6.39207 -4.79553,-10.37793 -4.75681,-16.33111 0.0445,-6.78674 6.40196,-14.95393 9.57981,-20.7563 h 1.43411 m 54.4963,22.9458 h 21.51169 l 14.34112,-2.2e-4 c 3.3308,-0.002 25.74139,-5.16267 15.68848,-11.89327 -3.63856,-2.43612 -11.51162,-0.34504 -15.68848,-0.30749 -11.98323,0.10771 -35.99128,-5.35967 -35.85281,12.20098 M 572.54653,212.41163 c 25.18148,10.82591 69.45009,9.78568 95.6596,0.34584 1.52199,15.69547 -2.65108,40.66717 -15.57521,51.36752 -13.89195,11.50167 -49.67026,10.72634 -66.42889,0.29847 -9.8194,-6.11 -24.81945,-35.83812 -13.6555,-52.26607 m 209.72596,184.68107 c -12.59112,-10.81578 -28.06613,-7.78052 -40.87221,1.37741 -20.74536,14.83553 -26.66234,38.89907 -39.35403,59.57238 -3.82109,6.22413 -13.90373,24.72544 -22.85066,23.26923 -8.15371,-1.32715 -2.57561,-17.2381 -1.25266,-21.83512 4.79221,-16.6523 11.88457,-32.48609 17.74351,-48.75982 1.94394,-5.39946 5.82556,-13.81664 -0.41603,-17.82413 -6.79226,-4.36106 -15.68338,-1.62434 -19.7317,4.97619 -12.81756,20.89819 -18.4137,45.40826 -32.71425,65.9101 -3.29971,4.73063 -11.39771,19.03976 -18.65695,17.14523 -7.14382,-1.86446 -1.38199,-17.1215 -0.1467,-21.44757 4.96802,-17.39854 12.98204,-33.92817 19.17636,-50.911 2.49612,-6.84361 4.80157,-16.14926 -5.0654,-17.63025 -10.81103,-1.62267 -15.92285,5.73867 -19.39898,14.76203 -8.11214,21.05749 -16.22004,41.99265 -29.85102,60.23269 -4.27551,5.72117 -12.5059,17.82312 -20.91027,16.8243 -6.45953,-0.7677 -6.34584,-9.17586 -5.92031,-13.95604 1.2075,-13.56429 5.27009,-27.23579 9.42572,-40.15515 4.29622,-13.35631 9.39583,-26.41931 14.60924,-39.43809 2.02324,-5.05246 3.74104,-12.62073 7.74656,-16.47539 4.53553,-4.36472 28.40045,1.64251 27.6071,-7.07526 -0.67039,-7.36666 -18.39307,-5.3205 -23.4508,-5.84867 2.68751,-5.64209 5.24692,-11.40211 7.55675,-17.20935 2.28307,-5.74001 7.48024,-13.66628 6.84936,-19.99837 -0.99081,-9.94466 -17.48082,-5.31647 -21.93639,-1.07448 -9.58318,9.1238 -10.10894,24.6526 -17.58161,35.11434 -4.25456,5.95638 -12.00296,2.23881 -17.55682,5.61589 -7.03615,4.27845 0.77886,8.13779 5.36313,8.27515 2.15555,0.0646 4.3159,0.0324 6.47216,0.0327 -10.73607,32.93394 -28.11384,64.88165 -28.39757,100.38789 -0.0325,4.06984 0.51465,8.30409 1.73667,12.18991 10.56008,33.57859 43.67693,5.39412 56.0602,-9.32172 0.57653,4.36632 0.94919,8.78678 2.6273,12.90448 11.69606,28.6998 42.53727,-1.31201 51.15193,-15.77271 h 0.71706 c 0.4008,4.80136 0.64466,9.78863 2.34842,14.34061 11.25967,30.08271 43.48234,1.8147 52.14786,-14.34061 h 0.71705 c 0.69951,4.63391 1.44204,9.34703 3.45849,13.62381 1.46173,3.10023 3.51841,5.95918 6.03384,8.2914 18.96751,17.58596 37.03848,-5.98832 47.87218,-19.76404 0.35166,15.22397 11.06221,30.76585 27.9652,23.15557 8.40138,-3.78262 14.30749,-11.99624 20.07757,-18.85322 0.52051,3.6328 0.96322,7.36514 2.46179,10.75313 12.08011,27.30975 40.04374,-1.81479 50.60039,-12.9043 2.14285,26.83915 32.23541,35.6058 51.62691,19.02619 12.03048,-10.28593 14.93765,-25.80273 25.23064,-36.29271 4.54684,-4.63377 13.61288,-5.53057 19.22696,-9.03196 2.97835,-1.8575 21.40721,-17.70206 13.0928,-21.25942 -3.29963,-1.41175 -6.81884,2.63595 -8.8751,4.59819 -6.08549,5.80705 -12.15985,10.40857 -19.9919,13.56039 1.0654,-12.16247 3.76412,-24.92738 -1.51105,-36.56733 -9.24823,-20.40674 -35.85354,-12.31115 -49.39944,-1.51342 -16.49209,13.14628 -21.01958,31.3927 -30.89596,48.83659 -3.68208,6.50332 -14.95071,28.40088 -24.65392,25.72043 -6.79582,-1.87734 -1.79485,-15.76982 -0.63172,-19.98397 4.48174,-16.23732 11.68006,-31.44982 17.17617,-47.32572 1.97591,-5.70761 4.253,-14.12589 -4.04973,-15.50139 -6.9181,-1.14612 -13.90681,0.98174 -17.84833,6.98092 -10.96874,16.69449 -14.4907,38.40872 -24.76633,55.84619 -2.33611,3.96434 -13.61857,23.97245 -19.82734,18.33102 -6.35412,-5.77343 1.58273,-27.84795 3.43808,-34.82332 9.21001,-34.62588 22.71742,-68.42907 37.286,-101.10494 3.31014,-7.42427 21.57802,-35.94039 9.44492,-40.62465 -12.29185,-4.74558 -20.05979,8.00651 -24.75178,16.96179 -12.72463,24.28687 -22.53661,50.24371 -31.78136,76.00797 m 216.9738,-85.05322 c -16.17009,34.24911 -39.8316,55.33935 -67.82608,65.28684 -15.51244,5.5122 -37.27625,4.02661 -45.56147,-12.50583 -8.69581,-17.35206 2.52554,-36.37731 17.59628,-45.4447 24.68544,-14.85213 68.49,-13.71682 96.0381,-7.32241 m -147.74649,54.89691 c -17.91457,1.65205 -18.49733,28.59387 0.98689,26.86475 17.29319,-1.53466 17.17616,-28.44968 -1.02877,-26.77085 m -85.21385,35.80676 c 10.92132,-1.24857 9.06378,13.68797 7.45203,20.05578 -4.03477,15.9405 -12.15911,32.88003 -21.11974,46.60857 -3.06044,4.68893 -7.88087,12.35163 -14.23022,12.54587 -9.82193,0.30053 -7.04408,-16.9883 -5.97422,-22.58457 2.96888,-15.52979 9.08893,-31.64221 18.46021,-44.45697 3.56077,-4.86919 8.95931,-11.43101 15.41194,-12.16868 m 157.05589,6.3524 c 13.24647,-2.61289 11.44314,19.07837 10.33264,26.61005 -0.43697,2.96371 -0.83673,8.78578 -4.40129,9.76091 -16.14725,4.41728 -24.15426,-32.77648 -5.93135,-36.37096 m -22.24294,23.02512 c 2.44652,7.46952 6.44791,13.8562 12.91203,18.53325 2.82542,2.04438 11.04388,3.81082 11.59237,7.69904 1.56783,11.11495 -19.80575,35.36006 -31.48939,29.83456 -5.71695,-2.70367 -6.60215,-10.31469 -6.29611,-15.9117 0.73841,-13.50542 5.10328,-29.25043 13.2811,-40.15515 m -522.73408,3.8968 c 34.28847,-3.72122 58.66079,21.17299 81.74441,42.38374 5.21996,4.79642 22.5017,16.04834 22.97057,23.36399 0.43285,6.75378 -9.36487,15.65077 -13.67522,19.96111 -17.11222,17.11233 -41.1659,28.51529 -65.22573,31.14727 -25.63877,2.80472 -54.33954,-4.23857 -69.37433,-26.81854 -24.15073,-36.27073 1.56985,-85.48052 43.5603,-90.03757 z"
       id="path1"
       inkscape:label="logo"
       sodipodi:nodetypes="csssscsssssssssssccsscscsssssssscssssssssssscssscssssssssssssssssssssssssccscssccsssccssscccsssssccssscsccsssssccsscscssscssssssssssscsssssssssssscssssssssscsccssssccssssscccccsscccssccsssssssssssssssssssscsssssscsccsccsccsscscscssssscssssssssssssssccsssccsccsssssccssccsssscsssssss" />
  </a>
</svg>
